<svg width="600" height="600" viewBox="0 0 600 600" fill="none" xmlns="http://www.w3.org/2000/svg">
<g clip-path="url(#clip0_99_1523)">
<rect width="600" height="600" rx="50" fill="white"/>
<circle cx="297.693" cy="303.463" r="259.615" fill="white"/>
<path d="M87.6767 233.408C82.7657 236.476 75.7649 240.965 72.1078 243.347C68.4506 245.729 65.2114 247.79 64.898 247.927C62.3902 248.935 61.7633 251.408 61.7633 260.569V270.417L52.8816 276.097L44 281.73V304.037V326.298L52.8816 331.977L61.7633 337.611V346.131C61.7633 354.009 62.4947 356.482 64.898 357.398C65.3159 357.536 70.9584 361.108 77.5412 365.414C93.9461 376.04 96.4539 377.552 97.2898 377.323C97.6033 377.231 100.947 375.17 104.709 372.788C108.366 370.407 111.709 368.437 112.023 368.391C112.336 368.391 115.889 370.452 119.755 373.017C125.502 376.773 127.069 377.506 128.114 377.002C128.846 376.682 135.22 372.697 142.325 368.162C149.326 363.628 156.64 358.91 158.625 357.673L162.073 355.475V346.634V337.794L171.269 331.886L180.359 326.023L180.673 304.587C180.882 285.074 180.777 283.013 179.105 281.456C178.165 280.54 177.016 279.669 176.702 279.532C176.284 279.395 172.836 277.288 169.074 274.814L162.073 270.325V260.065V249.851L158.625 247.653C156.64 246.416 149.326 241.698 142.325 237.163C135.22 232.629 128.95 228.644 128.114 228.323C127.069 227.819 125.607 228.507 119.755 232.308C115.784 234.873 112.336 236.934 112.023 236.934C111.709 236.889 108.366 234.919 104.709 232.537C100.947 230.155 97.6033 228.094 97.2898 228.003C96.8718 227.911 92.5878 230.339 87.6767 233.408ZM100.32 237.072C101.469 237.896 103.455 239.087 104.709 239.683C105.858 240.324 107.321 241.286 107.843 241.881C108.366 242.477 108.784 256.126 108.784 272.249V301.518H106.171C104.5 301.518 103.559 301.243 103.559 300.831C103.559 299.594 98.4392 300.006 97.2898 301.335C94.991 303.991 96.9763 310.678 100.111 310.678C101.469 310.678 104.604 309.167 104.604 308.526C104.604 308.159 105.336 307.93 106.485 308.022C108.157 308.159 108.261 309.9 108.575 335.367L108.784 362.62L103.455 366.193C100.529 368.162 97.4988 369.765 96.7673 369.765C96.1404 369.765 92.2743 367.658 88.4082 365.048C84.542 362.482 80.8849 360.284 80.3624 360.238C79.9445 360.147 79.5265 359.872 79.5265 359.688C79.5265 359.459 76.9143 357.719 73.7796 355.795L68.0327 352.268V345.031C68.0327 338.71 68.2416 337.703 69.9135 336.878C71.1673 336.283 72.6302 336.008 73.9886 336.145C79.84 336.832 81.9298 327.076 76.1829 325.748C73.3616 325.107 71.6898 325.84 70.2269 328.267C69.6 329.366 68.2416 330.74 67.1967 331.29L65.2114 332.344L62.5992 330.786C61.1363 329.916 57.5837 327.717 54.658 325.84L49.2245 322.404V315.9C49.2245 312.327 49.538 309.075 49.8514 308.663C50.7918 307.518 52.7771 307.793 54.7624 309.304C55.8073 310.037 57.2702 310.678 58.0016 310.678C61.3453 310.678 63.5396 304.861 61.4498 301.38C60.8229 300.464 59.9869 300.144 58.0016 300.144C56.6433 300.144 55.1804 300.418 54.8669 300.785C54.031 301.701 50.4784 302.022 49.8514 301.197C49.538 300.831 49.2245 297.212 49.2245 293.136V285.715L56.2253 281.227C60.0914 278.753 63.6441 276.6 64.271 276.463C65.5249 276.097 70.1224 278.57 70.1224 279.669C70.1224 281.135 73.1527 283.654 74.8245 283.654C78.8996 283.654 80.9894 277.425 78.0637 274.264C76.9143 273.074 75.8694 272.661 74.0931 272.661C72.4212 272.661 70.9584 272.203 69.809 271.333C68.3461 270.188 68.0327 268.722 68.0327 261.577V253.195L72.9437 249.989C75.6604 248.202 78.2727 246.691 78.6906 246.645C79.2131 246.553 79.5265 246.187 79.5265 245.866C79.5265 245.546 79.9445 245.179 80.3624 245.088C80.8849 244.996 84.542 242.843 88.4082 240.232C92.2743 237.667 96.1404 235.56 96.8718 235.56C97.6033 235.56 99.1706 236.247 100.32 237.072ZM133.966 239.316C137.1 241.332 140.131 243.255 140.653 243.53C141.28 243.805 144.937 246.095 148.803 248.614L155.804 253.195V261.806C155.804 271.15 154.968 272.661 150.057 272.661C145.042 272.661 142.429 278.387 145.878 282.005C148.176 284.433 150.58 284.021 153.192 280.814C154.341 279.395 156.118 277.746 157.058 277.196L158.939 276.097L161.551 277.471C163.014 278.204 166.567 280.311 169.388 282.143L174.612 285.441L174.403 293.594C174.09 301.472 173.985 301.747 172 301.609C170.851 301.518 169.492 301.151 169.074 300.785C168.656 300.418 167.089 300.144 165.731 300.144C163.745 300.144 163.118 300.418 162.596 301.609C161.029 305.365 161.656 308.48 164.059 309.808C166.044 310.862 166.044 310.907 168.238 310.037C169.492 309.533 170.433 308.892 170.433 308.526C170.433 308.159 171.164 307.93 172.313 308.022C173.881 308.159 174.09 308.938 174.403 315.396L174.717 322.633L169.388 325.931C161.342 331.015 159.67 331.84 157.789 331.519C155.909 331.199 153.714 329.366 153.714 328.13C153.714 326.801 150.371 325.244 148.281 325.565C143.683 326.343 142.952 333.626 147.236 335.55C149.117 336.329 149.744 336.42 150.475 335.962C151.102 335.458 151.833 335.641 153.61 336.603C155.595 337.748 155.804 338.344 155.804 344.985V352.131L148.803 356.711C144.937 359.23 141.28 361.521 140.653 361.795C140.131 362.07 137.1 363.994 133.966 366.009C130.936 368.071 127.801 369.765 127.174 369.765C126.547 369.765 123.621 368.254 120.8 366.422L115.576 363.124V335.641C115.576 309.854 115.68 308.159 117.456 308.022C118.501 307.93 119.233 308.159 119.233 308.526C119.233 308.892 120.173 309.533 121.322 309.991C123.203 310.77 123.621 310.77 125.084 310.175C127.696 309.03 129.055 304.358 127.383 302.205C125.92 300.281 122.785 299.548 120.904 300.693C119.128 301.747 116.307 302.022 115.68 301.243C115.367 300.831 115.053 287.502 115.053 271.608V242.706L120.382 239.133C123.308 237.163 126.338 235.56 127.069 235.56C127.801 235.56 130.936 237.255 133.966 239.316Z" fill="black"/>
<path d="M85.378 255.898C81.0939 258.783 82.4523 265.516 87.4678 266.066C90.8115 266.432 91.3339 267.898 90.8115 276.647L90.498 283.929L85.796 287.319C76.6009 293.915 77.4368 292.174 77.4368 305.457V317.412L81.0939 319.152C83.1837 320.069 86.1094 321.58 87.6768 322.496L90.498 324.099V332.848C90.498 341.734 89.7666 343.657 86.4229 343.657C82.8702 343.657 81.4074 350.116 84.1241 353.047C84.96 353.918 86.2139 354.65 86.7364 354.65C88.8262 354.65 91.1249 352.452 92.0653 349.704C92.4833 348.192 93.6327 346.36 94.5731 345.581C95.9315 344.39 96.2449 342.238 96.2449 332.023C96.2449 322.908 95.9315 319.748 94.8866 319.29C94.1551 318.969 91.3339 317.549 88.6172 316.129L83.7062 313.564V304.999C83.7062 295.472 82.9747 296.663 92.4833 289.884L96.2449 287.136V275.96C96.2449 266.112 96.036 264.509 94.1551 261.989C93.0058 260.432 91.8564 258.6 91.5429 257.959C91.2294 257.272 90.1845 256.264 89.1396 255.714L87.2588 254.707L85.378 255.898Z" fill="black"/>
<path d="M133.966 256.355C132.712 257.18 131.771 258.371 131.771 258.966C131.771 259.562 130.831 261.165 129.682 262.493C127.801 264.646 127.592 265.974 127.592 275.593C127.592 287.181 127.801 287.822 133.861 291.67C140.862 296.159 141.175 296.708 141.175 304.953C141.175 312.602 140.758 313.747 137.1 315.305C136.16 315.717 133.757 316.862 131.771 317.824L128.114 319.61L127.801 331.015C127.487 341.459 127.696 342.695 129.682 345.535C130.831 347.23 131.771 349.199 131.771 349.932C131.771 351.352 134.906 354.284 136.787 354.558C138.354 354.787 141.071 352.314 141.907 349.841C142.534 347.551 139.922 343.657 137.623 343.657C134.697 343.657 133.861 341.275 133.861 332.527V323.687L137.414 321.9C139.399 320.893 142.22 319.427 143.683 318.694L146.4 317.32V305.182V293.044L142.22 290.158C139.922 288.601 138.041 287.181 138.041 287.044C138.041 286.906 137.1 286.173 135.951 285.486C133.966 284.25 133.861 283.563 134.07 275.089C134.279 268.264 134.697 266.02 135.742 265.974C136.369 265.928 137.414 265.882 137.832 265.837C139.295 265.745 141.175 262.814 141.175 260.569C141.175 258.554 138.877 255.531 136.996 255.027C136.473 254.89 135.115 255.485 133.966 256.355Z" fill="black"/>
<path d="M214.841 245.729C214.527 246.553 214.423 272.295 214.527 302.892L214.841 358.544L225.081 358.681L235.216 358.818V301.518V244.263H225.29H215.468L214.841 245.729Z" fill="black"/>
<path d="M288.506 244.813C288.506 245.637 283.803 259.241 273.772 287.777C271.996 292.678 269.279 300.602 267.608 305.411C265.936 310.175 263.219 318.145 261.443 323.046C259.771 327.947 256.95 336.145 255.173 341.23C253.397 346.314 251.307 352.177 250.471 354.284C249.635 356.391 249.217 358.223 249.531 358.406C249.74 358.635 254.442 358.772 259.771 358.772C269.175 358.772 269.697 358.727 270.115 357.719C270.324 357.169 271.056 355.566 271.683 354.192C272.31 352.818 273.981 347.871 275.444 343.245C276.907 338.619 278.37 334.634 278.683 334.405C278.997 334.222 289.655 334.038 302.507 334.038H325.704L328.212 341.001C329.466 344.848 331.346 350.39 332.287 353.276L333.959 358.543L343.258 358.681C348.378 358.772 353.185 358.727 353.812 358.589C355.17 358.36 354.648 356.757 340.228 315.717C338.138 309.808 335.108 301.014 333.436 296.25C331.764 291.441 329.048 283.517 327.271 278.616C325.599 273.715 322.778 265.562 321.002 260.523C319.226 255.485 317.24 249.805 316.509 247.927L315.15 244.492L301.88 244.355C291.536 244.263 288.506 244.355 288.506 244.813ZM303.552 269.593C304.283 271.287 307.941 282.189 313.061 297.395C314.419 301.564 316.3 306.877 317.24 309.213C318.181 311.503 318.599 313.656 318.285 313.885C317.867 314.16 311.18 314.343 301.985 314.343H286.416V312.602C286.52 310.816 287.983 306.236 294.252 288.235C296.342 282.326 298.746 275.043 299.79 272.112C301.567 266.753 302.194 266.295 303.552 269.593Z" fill="black"/>
<path d="M361.648 254.34V264.417H378.367H395.085L396.13 265.608C396.757 266.341 397.175 283.975 397.175 312.786V358.818L406.893 358.681L416.506 358.544L416.819 311.457L417.028 264.417H434.269H451.51V254.34V244.263H406.579H361.648V254.34Z" fill="black"/>
<path d="M466.87 244.584C466.452 244.721 466.139 261.485 466.139 281.776C466.139 319.839 466.661 325.702 470.841 336.329C475.438 348.238 487.455 357.856 500.934 360.559C510.024 362.391 521.205 361.292 530.609 357.673C542.207 353.139 551.716 341.321 554.955 327.214C555.582 324.374 556 306.968 556 283.38V244.263H546.073H536.147V280.402C536.147 317.916 535.729 323.183 531.758 329.687C528.728 334.68 522.772 339.535 519.637 339.535C519.115 339.535 518.07 339.856 517.339 340.222C515.144 341.367 508.039 341.046 503.233 339.627C498.113 338.069 492.784 333.58 490.694 329.092C487.455 322.313 487.037 317.228 487.037 281.731C487.037 261.943 486.723 245.408 486.41 244.996C485.887 244.401 484.006 244.263 476.692 244.263C471.677 244.263 467.184 244.401 466.87 244.584Z" fill="black"/>
</g>
<rect x="0.5" y="0.5" width="599" height="599" stroke="black"/>
<defs>
<clipPath id="clip0_99_1523">
<rect width="600" height="600" fill="white"/>
</clipPath>
</defs>
</svg>
