<?xml version="1.0" encoding="UTF-8"?>
<!DOCTYPE svg PUBLIC "-//W3C//DTD SVG 1.1//EN" "http://www.w3.org/Graphics/SVG/1.1/DTD/svg11.dtd">
<svg xmlns="http://www.w3.org/2000/svg" version="1.1" width="768px" height="768px" style="shape-rendering:geometricPrecision; text-rendering:geometricPrecision; image-rendering:optimizeQuality; fill-rule:evenodd; clip-rule:evenodd" xmlns:xlink="http://www.w3.org/1999/xlink">
<g><path style="opacity:0.963" fill="#0f3969" d="M 358.5,138.5 C 448.733,132.27 522.233,163.937 579,233.5C 626.191,298.457 640.191,370.124 621,448.5C 593.533,538.301 534.7,596.134 444.5,622C 352.061,642.108 272.228,619.275 205,553.5C 145.643,487.039 125.643,410.039 145,322.5C 170.155,235.34 225.655,177.173 311.5,148C 327.062,143.588 342.728,140.421 358.5,138.5 Z"/></g>
<g><path style="opacity:1" fill="#307efc" d="M 368.5,158.5 C 446.972,155.832 511.139,184.498 561,244.5C 613.072,316.129 622.405,393.129 589,475.5C 552.739,550.577 493.239,594.411 410.5,607C 325.263,614.389 256.097,584.889 203,518.5C 154.345,448.229 145.678,373.229 177,293.5C 210.254,222.262 265.421,178.428 342.5,162C 351.273,160.5 359.94,159.334 368.5,158.5 Z"/></g>
<g><path style="opacity:1" fill="#245194" d="M 373.5,171.5 C 457.953,171.294 522.453,206.628 567,277.5C 605.803,350.371 604.803,422.705 564,494.5C 521.726,558.988 461.726,592.655 384,595.5C 303.426,592.804 242.092,557.471 200,489.5C 161.172,416.58 162.172,344.246 203,272.5C 243.284,211.261 300.117,177.595 373.5,171.5 Z"/></g>
<g><path style="opacity:1" fill="#275497" d="M 484.5,525.5 C 483.928,522.915 483.761,520.249 484,517.5C 482.556,515.845 480.722,515.178 478.5,515.5C 528.973,477.184 551.14,426.184 545,362.5C 534.181,299.371 499.348,255.538 440.5,231C 380.182,211.051 325.516,221.051 276.5,261C 231.291,302.958 213.791,354.458 224,415.5C 231.391,449.126 247.224,477.959 271.5,502C 277.023,507.248 283.023,511.748 289.5,515.5C 289.5,520.167 289.5,524.833 289.5,529.5C 258.548,510.042 236.048,483.375 222,449.5C 200.482,394.17 205.148,341.17 236,290.5C 277.837,229.963 335.67,203.463 409.5,211C 470.246,222.27 514.412,255.437 542,310.5C 568.758,372.853 562.758,431.853 524,487.5C 512.588,502.08 499.421,514.747 484.5,525.5 Z"/></g>
<g><path style="opacity:1" fill="#2b599a" d="M 478.5,515.5 C 473.645,516.304 468.978,516.304 464.5,515.5C 468.951,512.889 473.284,510.056 477.5,507C 476.584,506.722 475.918,506.222 475.5,505.5C 479.127,504.642 482.794,504.476 486.5,505C 487.395,501.905 487.395,498.738 486.5,495.5C 496.411,495.918 502.078,491.251 503.5,481.5C 536.257,439.895 546.09,393.228 533,341.5C 514.312,283.572 475.479,247.072 416.5,232C 408.539,230.506 400.539,229.339 392.5,228.5C 387.533,222.852 381.866,222.185 375.5,226.5C 304.346,233.828 256.846,271.162 233,338.5C 218.017,396.564 230.351,447.898 270,492.5C 276.039,498.043 282.205,503.376 288.5,508.5C 288.674,510.861 289.007,513.194 289.5,515.5C 283.023,511.748 277.023,507.248 271.5,502C 247.224,477.959 231.391,449.126 224,415.5C 213.791,354.458 231.291,302.958 276.5,261C 325.516,221.051 380.182,211.051 440.5,231C 499.348,255.538 534.181,299.371 545,362.5C 551.14,426.184 528.973,477.184 478.5,515.5 Z"/></g>
<g><path style="opacity:1" fill="#0f3a6a" d="M 392.5,228.5 C 393.15,230.435 393.483,232.435 393.5,234.5C 393.371,236.216 393.038,237.883 392.5,239.5C 390.195,241.045 389.862,243.045 391.5,245.5C 391.676,248.727 392.343,251.727 393.5,254.5C 393.448,256.903 393.781,259.236 394.5,261.5C 395.844,269.897 397.511,278.23 399.5,286.5C 428.88,293.716 448.047,311.716 457,340.5C 458.497,348.779 458.831,357.112 458,365.5C 455.979,380.598 451.645,394.931 445,408.5C 440.2,413.467 434.7,417.467 428.5,420.5C 430.966,424.898 432.632,429.565 433.5,434.5C 431.5,434.5 429.5,434.5 427.5,434.5C 426.939,430.043 425.272,426.043 422.5,422.5C 419.461,423.278 416.794,424.612 414.5,426.5C 415.9,429.035 416.9,431.702 417.5,434.5C 416.325,434.719 415.325,434.386 414.5,433.5C 413.42,431.004 412.086,428.67 410.5,426.5C 403.688,428.728 396.688,430.061 389.5,430.5C 381.175,430.922 372.841,430.422 364.5,429C 361.736,428.468 359.07,427.634 356.5,426.5C 354.914,428.67 353.58,431.004 352.5,433.5C 351.675,434.386 350.675,434.719 349.5,434.5C 350.1,431.702 351.1,429.035 352.5,426.5C 350.206,424.612 347.539,423.278 344.5,422.5C 341.728,426.043 340.061,430.043 339.5,434.5C 337.5,434.5 335.5,434.5 333.5,434.5C 334.368,429.565 336.034,424.898 338.5,420.5C 323.27,413.413 314.77,401.413 313,384.5C 301.227,335.037 319.394,302.37 367.5,286.5C 369.489,278.23 371.156,269.897 372.5,261.5C 373.219,259.236 373.552,256.903 373.5,254.5C 374.657,251.727 375.324,248.727 375.5,245.5C 377.138,243.045 376.805,241.045 374.5,239.5C 373.962,237.883 373.629,236.216 373.5,234.5C 373.584,231.673 374.25,229.006 375.5,226.5C 381.866,222.185 387.533,222.852 392.5,228.5 Z"/></g>
<g><path style="opacity:1" fill="#307efa" d="M 380.5,227.5 C 386.966,226.475 390.132,229.142 390,235.5C 385.667,242.167 381.333,242.167 377,235.5C 376.796,232.24 377.963,229.573 380.5,227.5 Z"/></g>
<g><path style="opacity:1" fill="#305f9f" d="M 375.5,226.5 C 374.25,229.006 373.584,231.673 373.5,234.5C 314.872,240.988 272.705,270.655 247,323.5C 224.863,380.33 232.529,432.663 270,480.5C 271,481.5 272,482.5 273,483.5C 273.399,483.272 273.565,482.938 273.5,482.5C 274.455,484.283 275.122,486.283 275.5,488.5C 273.652,492.45 274.819,495.117 279,496.5C 281.669,494.189 284.169,494.189 286.5,496.5C 290.5,499.833 294.5,503.167 298.5,506.5C 295.482,506.335 292.482,506.502 289.5,507C 288.944,507.383 288.611,507.883 288.5,508.5C 282.205,503.376 276.039,498.043 270,492.5C 230.351,447.898 218.017,396.564 233,338.5C 256.846,271.162 304.346,233.828 375.5,226.5 Z"/></g>
<g><path style="opacity:1" fill="#3160a0" d="M 392.5,228.5 C 400.539,229.339 408.539,230.506 416.5,232C 475.479,247.072 514.312,283.572 533,341.5C 546.09,393.228 536.257,439.895 503.5,481.5C 503.747,478.061 503.414,474.728 502.5,471.5C 503.496,471.586 504.329,471.252 505,470.5C 536.727,422.278 541.06,371.611 518,318.5C 491.366,268.746 449.866,240.746 393.5,234.5C 393.483,232.435 393.15,230.435 392.5,228.5 Z"/></g>
<g><path style="opacity:1" fill="#3665a4" d="M 373.5,234.5 C 373.629,236.216 373.962,237.883 374.5,239.5C 308.12,246.717 264.62,282.05 244,345.5C 232.701,392.342 241.368,435.008 270,473.5C 270.464,472.906 270.631,472.239 270.5,471.5C 272.258,474.854 273.258,478.521 273.5,482.5C 273.565,482.938 273.399,483.272 273,483.5C 272,482.5 271,481.5 270,480.5C 232.529,432.663 224.863,380.33 247,323.5C 272.705,270.655 314.872,240.988 373.5,234.5 Z"/></g>
<g><path style="opacity:1" fill="#3665a4" d="M 393.5,234.5 C 449.866,240.746 491.366,268.746 518,318.5C 541.06,371.611 536.727,422.278 505,470.5C 504.329,471.252 503.496,471.586 502.5,471.5C 502.267,469.938 501.6,468.605 500.5,467.5C 510.522,455.126 517.689,441.126 522,425.5C 538.372,357.602 518.539,303.102 462.5,262C 441.139,248.38 417.806,240.88 392.5,239.5C 393.038,237.883 393.371,236.216 393.5,234.5 Z"/></g>
<g><path style="opacity:1" fill="#3b6ca9" d="M 374.5,239.5 C 376.805,241.045 377.138,243.045 375.5,245.5C 313.335,251.99 271.835,284.657 251,343.5C 239.798,383.58 244.965,421.247 266.5,456.5C 268.998,461.113 270.331,466.113 270.5,471.5C 270.631,472.239 270.464,472.906 270,473.5C 241.368,435.008 232.701,392.342 244,345.5C 264.62,282.05 308.12,246.717 374.5,239.5 Z"/></g>
<g><path style="opacity:1" fill="#3b6ca9" d="M 392.5,239.5 C 417.806,240.88 441.139,248.38 462.5,262C 518.539,303.102 538.372,357.602 522,425.5C 517.689,441.126 510.522,455.126 500.5,467.5C 499.473,465.806 498.139,464.473 496.5,463.5C 524.385,421.468 529.219,376.802 511,329.5C 487.299,278.719 447.465,250.719 391.5,245.5C 389.862,243.045 390.195,241.045 392.5,239.5 Z"/></g>
<g><path style="opacity:1" fill="#307ffd" d="M 379.5,243.5 C 382.448,243.223 385.281,243.556 388,244.5C 390.826,258.455 393.326,272.455 395.5,286.5C 387.507,285.205 379.507,285.205 371.5,286.5C 373.632,272.037 376.299,257.703 379.5,243.5 Z"/></g>
<g><path style="opacity:1" fill="#4273af" d="M 375.5,245.5 C 375.324,248.727 374.657,251.727 373.5,254.5C 328.062,257.818 293.562,279.151 270,318.5C 253.061,349.471 248.728,382.138 257,416.5C 260.266,429.36 265.433,441.36 272.5,452.5C 269.122,451.891 267.122,453.224 266.5,456.5C 244.965,421.247 239.798,383.58 251,343.5C 271.835,284.657 313.335,251.99 375.5,245.5 Z"/></g>
<g><path style="opacity:1" fill="#4273af" d="M 391.5,245.5 C 447.465,250.719 487.299,278.719 511,329.5C 529.219,376.802 524.385,421.468 496.5,463.5C 493.545,462.841 490.545,462.508 487.5,462.5C 509.212,433.824 517.712,401.491 513,365.5C 503.819,312.651 473.985,277.151 423.5,259C 413.593,255.441 403.593,253.941 393.5,254.5C 392.343,251.727 391.676,248.727 391.5,245.5 Z"/></g>
<g><path style="opacity:1" fill="#4679b3" d="M 373.5,254.5 C 373.552,256.903 373.219,259.236 372.5,261.5C 317.885,268.402 282.051,298.068 265,350.5C 257.991,376.932 259.324,402.932 269,428.5C 272.588,436.674 276.421,444.674 280.5,452.5C 277.691,452.957 275.024,452.957 272.5,452.5C 265.433,441.36 260.266,429.36 257,416.5C 248.728,382.138 253.061,349.471 270,318.5C 293.562,279.151 328.062,257.818 373.5,254.5 Z"/></g>
<g><path style="opacity:1" fill="#4779b3" d="M 487.5,462.5 C 484.035,461.92 480.701,461.587 477.5,461.5C 480.755,459.074 483.588,456.074 486,452.5C 515.762,402.54 513.762,353.873 480,306.5C 457.775,279.802 429.275,264.802 394.5,261.5C 393.781,259.236 393.448,256.903 393.5,254.5C 403.593,253.941 413.593,255.441 423.5,259C 473.985,277.151 503.819,312.651 513,365.5C 517.712,401.491 509.212,433.824 487.5,462.5 Z"/></g>
<g><path style="opacity:1" fill="#4c7eb8" d="M 372.5,261.5 C 371.156,269.897 369.489,278.23 367.5,286.5C 319.394,302.37 301.227,335.037 313,384.5C 314.77,401.413 323.27,413.413 338.5,420.5C 336.034,424.898 334.368,429.565 333.5,434.5C 335.5,434.5 337.5,434.5 339.5,434.5C 342.833,434.5 346.167,434.5 349.5,434.5C 350.675,434.719 351.675,434.386 352.5,433.5C 353.58,431.004 354.914,428.67 356.5,426.5C 359.07,427.634 361.736,428.468 364.5,429C 372.841,430.422 381.175,430.922 389.5,430.5C 396.688,430.061 403.688,428.728 410.5,426.5C 412.086,428.67 413.42,431.004 414.5,433.5C 415.325,434.386 416.325,434.719 417.5,434.5C 420.833,434.5 424.167,434.5 427.5,434.5C 429.5,434.5 431.5,434.5 433.5,434.5C 432.632,429.565 430.966,424.898 428.5,420.5C 434.7,417.467 440.2,413.467 445,408.5C 451.645,394.931 455.979,380.598 458,365.5C 458.831,357.112 458.497,348.779 457,340.5C 448.047,311.716 428.88,293.716 399.5,286.5C 397.511,278.23 395.844,269.897 394.5,261.5C 429.275,264.802 457.775,279.802 480,306.5C 513.762,353.873 515.762,402.54 486,452.5C 483.588,456.074 480.755,459.074 477.5,461.5C 473.686,461.651 472.019,463.651 472.5,467.5C 470.906,470.764 468.573,473.431 465.5,475.5C 465.247,469.127 465.581,462.794 466.5,456.5C 466.471,454.971 465.804,453.804 464.5,453C 461.261,453.129 458.094,452.962 455,452.5C 453.289,452.439 451.956,453.106 451,454.5C 451.547,463.46 451.547,472.46 451,481.5C 448.978,482.991 447.312,482.658 446,480.5C 445.488,471.469 445.488,462.469 446,453.5C 441.507,453.163 437.007,452.996 432.5,453C 431.196,453.804 430.529,454.971 430.5,456.5C 431.277,465.139 431.777,473.805 432,482.5C 433.083,485.267 434.25,487.933 435.5,490.5C 406.814,503.881 377.147,506.047 346.5,497C 347.737,496.768 348.737,496.268 349.5,495.5C 352.69,493.74 353.19,491.407 351,488.5C 354.599,465.423 345.433,457.59 323.5,465C 322.751,468.651 323.085,472.318 324.5,476C 323.68,477.8 323.014,479.634 322.5,481.5C 321.71,482.609 321.21,483.942 321,485.5C 318.333,483.5 315.667,481.5 313,479.5C 312.51,478.207 312.343,476.873 312.5,475.5C 313.074,469.868 314.574,464.535 317,459.5C 317.758,457.231 317.591,455.064 316.5,453C 312.127,453.373 307.793,453.373 303.5,453C 301.912,463.631 300.746,463.798 300,453.5C 297.393,450.975 294.727,450.975 292,453.5C 288.97,450.617 286.303,450.95 284,454.5C 283.504,456.035 283.67,457.535 284.5,459C 284.37,460.059 283.87,460.892 283,461.5C 282.667,458.833 282.333,456.167 282,453.5C 281.617,452.944 281.117,452.611 280.5,452.5C 276.421,444.674 272.588,436.674 269,428.5C 259.324,402.932 257.991,376.932 265,350.5C 282.051,298.068 317.885,268.402 372.5,261.5 Z"/></g>
<g><path style="opacity:1" fill="#307ffe" d="M 373.5,291.5 C 403.178,288.987 426.678,299.653 444,323.5C 452.679,338.258 455.013,353.924 451,370.5C 449.526,382.398 446.193,393.731 441,404.5C 436.726,408.774 431.893,412.274 426.5,415C 393.39,429.405 361.39,427.405 330.5,409C 324.195,402.442 320.362,394.609 319,385.5C 308.268,354.255 315.101,327.755 339.5,306C 349.882,298.713 361.215,293.88 373.5,291.5 Z"/></g>
<g><path style="opacity:1" fill="#123b6b" d="M 377.5,311.5 C 396.333,309.835 410.833,316.835 421,332.5C 431.121,354.906 426.621,373.739 407.5,389C 384.489,400.87 364.989,396.704 349,376.5C 337.126,353.503 341.293,334.003 361.5,318C 366.744,315.315 372.077,313.148 377.5,311.5 Z"/></g>
<g><path style="opacity:1" fill="#fdfdfd" d="M 376.5,316.5 C 399.61,314.471 414.443,324.471 421,346.5C 423.145,368.679 413.645,383.179 392.5,390C 369.764,392.721 354.931,383.221 348,361.5C 345.558,338.802 355.058,323.802 376.5,316.5 Z"/></g>
<g><path style="opacity:1" fill="#1c504f" d="M 391.5,336.5 C 380.893,331.049 373.727,334.049 370,345.5C 369.503,347.81 369.337,350.143 369.5,352.5C 371.396,363.595 377.73,368.095 388.5,366C 393.939,362.721 396.605,357.887 396.5,351.5C 397.354,350.368 397.354,349.035 396.5,347.5C 397.504,346.317 398.338,344.984 399,343.5C 402.382,355.562 398.548,364.395 387.5,370C 378.236,371.618 371.736,368.118 368,359.5C 363.456,346.778 366.956,337.278 378.5,331C 384.619,329.47 389.952,330.803 394.5,335C 393.473,335.513 392.473,336.013 391.5,336.5 Z"/></g>
<g><path style="opacity:1" fill="#1ba33f" d="M 391.5,336.5 C 388.689,340.689 389.022,344.522 392.5,348C 393.928,348.579 395.262,348.412 396.5,347.5C 397.354,349.035 397.354,350.368 396.5,351.5C 393.644,349.907 390.644,348.573 387.5,347.5C 384.833,342.167 382.167,342.167 379.5,347.5C 375.888,348.639 372.554,350.306 369.5,352.5C 369.337,350.143 369.503,347.81 370,345.5C 373.727,334.049 380.893,331.049 391.5,336.5 Z"/></g>
<g><path style="opacity:1" fill="#184d4c" d="M 387.5,347.5 C 387.663,349.857 387.497,352.19 387,354.5C 384.667,358.5 382.333,358.5 380,354.5C 379.503,352.19 379.337,349.857 379.5,347.5C 382.167,342.167 384.833,342.167 387.5,347.5 Z"/></g>
<g><path style="opacity:1" fill="#27cc50" d="M 379.5,347.5 C 379.337,349.857 379.503,352.19 380,354.5C 382.333,358.5 384.667,358.5 387,354.5C 387.497,352.19 387.663,349.857 387.5,347.5C 390.644,348.573 393.644,349.907 396.5,351.5C 396.605,357.887 393.939,362.721 388.5,366C 377.73,368.095 371.396,363.595 369.5,352.5C 372.554,350.306 375.888,348.639 379.5,347.5 Z"/></g>
<g><path style="opacity:1" fill="#fefefe" d="M 374.5,356.5 C 377.744,358.071 380.411,360.405 382.5,363.5C 376.862,364.874 374.196,362.541 374.5,356.5 Z"/></g>
<g><path style="opacity:1" fill="#307efb" d="M 349.5,434.5 C 346.167,434.5 342.833,434.5 339.5,434.5C 340.061,430.043 341.728,426.043 344.5,422.5C 347.539,423.278 350.206,424.612 352.5,426.5C 351.1,429.035 350.1,431.702 349.5,434.5 Z"/></g>
<g><path style="opacity:1" fill="#307efb" d="M 427.5,434.5 C 424.167,434.5 420.833,434.5 417.5,434.5C 416.9,431.702 415.9,429.035 414.5,426.5C 416.794,424.612 419.461,423.278 422.5,422.5C 425.272,426.043 426.939,430.043 427.5,434.5 Z"/></g>
<g><path style="opacity:1" fill="#163d6d" d="M 360.5,451.5 C 363.535,452.412 366.535,452.412 369.5,451.5C 371.029,451.529 372.196,452.196 373,453.5C 372.637,457.801 372.637,462.134 373,466.5C 373.833,465 375,463.833 376.5,463C 379.682,462.593 382.849,462.093 386,461.5C 390.082,462.159 391.416,464.492 390,468.5C 386.167,471.667 382.333,474.833 378.5,478C 382.367,482.202 386.533,486.035 391,489.5C 391.825,491.701 391.325,493.534 389.5,495C 385.167,495.667 380.833,495.667 376.5,495C 375.107,492.317 373.774,492.15 372.5,494.5C 367.95,495.8 363.45,495.8 359,494.5C 359.77,481.506 359.603,468.506 358.5,455.5C 358.752,453.927 359.418,452.594 360.5,451.5 Z"/></g>
<g><path style="opacity:1" fill="#153d6c" d="M 312.5,475.5 C 310.453,481.193 309.287,487.193 309,493.5C 308.082,495.376 306.582,496.376 304.5,496.5C 301.175,495.904 297.842,495.57 294.5,495.5C 292.368,493.605 292.034,491.438 293.5,489C 293.138,487.775 292.638,486.609 292,485.5C 291.667,488.5 291.333,491.5 291,494.5C 289.89,496.037 288.39,496.703 286.5,496.5C 284.169,494.189 281.669,494.189 279,496.5C 274.819,495.117 273.652,492.45 275.5,488.5C 275.122,486.283 274.455,484.283 273.5,482.5C 273.258,478.521 272.258,474.854 270.5,471.5C 270.331,466.113 268.998,461.113 266.5,456.5C 267.122,453.224 269.122,451.891 272.5,452.5C 275.024,452.957 277.691,452.957 280.5,452.5C 281.117,452.611 281.617,452.944 282,453.5C 282.333,456.167 282.667,458.833 283,461.5C 283.87,460.892 284.37,460.059 284.5,459C 283.67,457.535 283.504,456.035 284,454.5C 286.303,450.95 288.97,450.617 292,453.5C 294.727,450.975 297.393,450.975 300,453.5C 300.746,463.798 301.912,463.631 303.5,453C 307.793,453.373 312.127,453.373 316.5,453C 317.591,455.064 317.758,457.231 317,459.5C 314.574,464.535 313.074,469.868 312.5,475.5 Z"/></g>
<g><path style="opacity:1" fill="#183f6e" d="M 465.5,475.5 C 465.482,490.355 458.148,496.855 443.5,495C 440.644,493.741 437.977,492.241 435.5,490.5C 434.25,487.933 433.083,485.267 432,482.5C 431.777,473.805 431.277,465.139 430.5,456.5C 430.529,454.971 431.196,453.804 432.5,453C 437.007,452.996 441.507,453.163 446,453.5C 445.488,462.469 445.488,471.469 446,480.5C 447.312,482.658 448.978,482.991 451,481.5C 451.547,472.46 451.547,463.46 451,454.5C 451.956,453.106 453.289,452.439 455,452.5C 458.094,452.962 461.261,453.129 464.5,453C 465.804,453.804 466.471,454.971 466.5,456.5C 465.581,462.794 465.247,469.127 465.5,475.5 Z"/></g>
<g><path style="opacity:1" fill="#e9edf1" d="M 271.5,456.5 C 273.468,457.819 275.468,457.819 277.5,456.5C 279.524,465.12 281.357,473.787 283,482.5C 285.254,473.896 287.254,465.23 289,456.5C 291.132,457.78 293.298,457.78 295.5,456.5C 297.524,465.12 299.357,473.787 301,482.5C 303.254,473.896 305.254,465.23 307,456.5C 308.734,457.249 310.567,457.749 312.5,458C 309.512,469.068 306.678,480.235 304,491.5C 302,490.167 300,490.167 298,491.5C 296.128,482.471 294.128,473.471 292,464.5C 289.916,473.418 288.416,482.418 287.5,491.5C 284.932,490.55 282.432,490.55 280,491.5C 277.635,479.707 274.802,468.04 271.5,456.5 Z"/></g>
<g><path style="opacity:1" fill="#eceff3" d="M 363.5,456.5 C 365.167,456.5 366.833,456.5 368.5,456.5C 368.334,462.842 368.5,469.175 369,475.5C 372.312,473.355 375.146,470.688 377.5,467.5C 380.106,466.348 382.773,466.182 385.5,467C 380.61,469.954 376.277,473.621 372.5,478C 376.5,482 380.5,486 384.5,490C 382.098,490.814 379.765,490.647 377.5,489.5C 374.85,486.349 372.016,483.349 369,480.5C 368.502,483.817 368.335,487.15 368.5,490.5C 366.833,490.5 365.167,490.5 363.5,490.5C 363.5,479.167 363.5,467.833 363.5,456.5 Z"/></g>
<g><path style="opacity:1" fill="#ebeef2" d="M 435.5,456.5 C 437.379,457.341 439.379,457.675 441.5,457.5C 441.334,465.507 441.5,473.507 442,481.5C 442.712,484.95 444.878,486.616 448.5,486.5C 451.574,486.55 453.741,485.217 455,482.5C 455.333,473.833 455.667,465.167 456,456.5C 457.699,457.406 459.533,457.739 461.5,457.5C 461.666,465.507 461.5,473.507 461,481.5C 459.459,488.214 455.293,491.214 448.5,490.5C 442.684,491.345 438.851,489.012 437,483.5C 436.749,474.467 436.249,465.467 435.5,456.5 Z"/></g>
<g><path style="opacity:1" fill="#163c6c" d="M 477.5,461.5 C 480.701,461.587 484.035,461.92 487.5,462.5C 490.545,462.508 493.545,462.841 496.5,463.5C 498.139,464.473 499.473,465.806 500.5,467.5C 501.6,468.605 502.267,469.938 502.5,471.5C 503.414,474.728 503.747,478.061 503.5,481.5C 502.078,491.251 496.411,495.918 486.5,495.5C 487.395,498.738 487.395,501.905 486.5,505C 482.794,504.476 479.127,504.642 475.5,505.5C 473.754,504.751 472.754,503.417 472.5,501.5C 473.362,497.547 473.695,493.547 473.5,489.5C 473.825,481.981 473.492,474.648 472.5,467.5C 472.019,463.651 473.686,461.651 477.5,461.5 Z"/></g>
<g><path style="opacity:1" fill="#163d6c" d="M 349.5,495.5 C 343.621,494.991 337.788,494.991 332,495.5C 324.701,493.692 321.534,489.025 322.5,481.5C 323.014,479.634 323.68,477.8 324.5,476C 323.085,472.318 322.751,468.651 323.5,465C 345.433,457.59 354.599,465.423 351,488.5C 353.19,491.407 352.69,493.74 349.5,495.5 Z"/></g>
<g><path style="opacity:1" fill="#1b406f" d="M 403.5,462.5 C 416.708,460.41 423.708,465.91 424.5,479C 424.625,481.609 423.958,483.942 422.5,486C 424.102,488.971 423.769,491.638 421.5,494C 399.581,498.418 391.415,489.918 397,468.5C 399.063,466.266 401.229,464.266 403.5,462.5 Z"/></g>
<g><path style="opacity:1" fill="#ebeef2" d="M 331.5,466.5 C 334.85,466.335 338.183,466.502 341.5,467C 343.667,467.833 345.167,469.333 346,471.5C 346.227,477.704 346.727,483.871 347.5,490C 347.167,490.5 346.833,491 346.5,491.5C 345.264,490.754 343.93,490.421 342.5,490.5C 342.649,489.448 342.483,488.448 342,487.5C 338.319,490.36 334.152,491.193 329.5,490C 324.77,483.768 326.104,479.101 333.5,476C 336.146,475.503 338.813,475.336 341.5,475.5C 341.703,473.61 341.037,472.11 339.5,471C 335.756,470.071 332.256,470.571 329,472.5C 328.598,471.128 328.098,469.795 327.5,468.5C 328.949,467.828 330.282,467.161 331.5,466.5 Z"/></g>
<g><path style="opacity:1" fill="#edf0f4" d="M 405.5,466.5 C 415.678,465.68 420.678,470.346 420.5,480.5C 414.833,480.5 409.167,480.5 403.5,480.5C 405.741,487.724 410.241,489.391 417,485.5C 419.485,488.007 418.985,489.507 415.5,490C 401.378,491.535 396.211,485.369 400,471.5C 401.73,469.598 403.563,467.931 405.5,466.5 Z"/></g>
<g><path style="opacity:1" fill="#f3f5f8" d="M 481.5,466.5 C 482.268,467.263 482.768,468.263 483,469.5C 488.628,465.159 493.628,465.826 498,471.5C 500.82,478.489 499.654,484.656 494.5,490C 490.428,490.956 486.595,490.456 483,488.5C 482.501,492.486 482.334,496.486 482.5,500.5C 480.585,500.784 478.919,500.451 477.5,499.5C 478.494,489.013 478.828,478.346 478.5,467.5C 479.791,467.737 480.791,467.404 481.5,466.5 Z"/></g>
<g><path style="opacity:1" fill="#163d6c" d="M 406.5,470.5 C 411.709,469.396 414.709,471.396 415.5,476.5C 411.5,476.5 407.5,476.5 403.5,476.5C 403.615,474.053 404.615,472.053 406.5,470.5 Z"/></g>
<g><path style="opacity:1" fill="#1d416f" d="M 486.5,470.5 C 492.109,470.109 494.776,472.776 494.5,478.5C 494.727,483.06 492.727,486.06 488.5,487.5C 482.937,484.912 481.104,480.579 483,474.5C 483.69,472.65 484.856,471.316 486.5,470.5 Z"/></g>
<g><path style="opacity:1" fill="#34639f" d="M 487.5,474.5 C 489.89,474.685 490.89,476.018 490.5,478.5C 490.658,480.319 489.991,481.652 488.5,482.5C 487.054,481.829 486.388,480.662 486.5,479C 486.773,477.467 487.106,475.967 487.5,474.5 Z"/></g>
<g><path style="opacity:1" fill="#a9b9cc" d="M 481.5,466.5 C 480.791,467.404 479.791,467.737 478.5,467.5C 478.828,478.346 478.494,489.013 477.5,499.5C 477.5,488.5 477.5,477.5 477.5,466.5C 478.833,466.5 480.167,466.5 481.5,466.5 Z"/></g>
<g><path style="opacity:1" fill="#4577b1" d="M 472.5,467.5 C 473.492,474.648 473.825,481.981 473.5,489.5C 457.048,503.059 438.382,512.393 417.5,517.5C 416.626,516.475 415.459,515.808 414,515.5C 410.86,516.255 407.693,516.422 404.5,516C 402.966,518.966 401.8,522.133 401,525.5C 400.667,522.833 400.333,520.167 400,517.5C 399.5,517 399,516.5 398.5,516C 394.46,516.354 390.46,516.354 386.5,516C 384.393,517.264 383.393,519.097 383.5,521.5C 382.472,521.926 381.139,521.926 379.5,521.5C 379.784,519.585 379.451,517.919 378.5,516.5C 377.179,514.186 377.179,511.853 378.5,509.5C 378.471,507.971 377.804,506.804 376.5,506C 372.5,506.667 368.5,506.667 364.5,506C 363.196,506.804 362.529,507.971 362.5,509.5C 362.294,515.142 362.628,520.809 363.5,526.5C 360.579,526.717 357.913,526.051 355.5,524.5C 357.159,518.174 354.826,515.174 348.5,515.5C 331.869,513.411 317.202,507.078 304.5,496.5C 306.582,496.376 308.082,495.376 309,493.5C 309.287,487.193 310.453,481.193 312.5,475.5C 312.343,476.873 312.51,478.207 313,479.5C 315.667,481.5 318.333,483.5 321,485.5C 321.21,483.942 321.71,482.609 322.5,481.5C 321.534,489.025 324.701,493.692 332,495.5C 337.788,494.991 343.621,494.991 349.5,495.5C 348.737,496.268 347.737,496.768 346.5,497C 377.147,506.047 406.814,503.881 435.5,490.5C 437.977,492.241 440.644,493.741 443.5,495C 458.148,496.855 465.482,490.355 465.5,475.5C 468.573,473.431 470.906,470.764 472.5,467.5 Z"/></g>
<g><path style="opacity:1" fill="#193e6d" d="M 333.5,479.5 C 336.167,479.5 338.833,479.5 341.5,479.5C 340.961,485.551 337.794,487.885 332,486.5C 331.167,483.829 331.667,481.496 333.5,479.5 Z"/></g>
<g><path style="opacity:1" fill="#3767a5" d="M 473.5,489.5 C 473.695,493.547 473.362,497.547 472.5,501.5C 472.754,503.417 473.754,504.751 475.5,505.5C 475.918,506.222 476.584,506.722 477.5,507C 473.284,510.056 468.951,512.889 464.5,515.5C 461.687,515.025 459.687,516.025 458.5,518.5C 456.206,520.653 453.54,522.32 450.5,523.5C 444.151,516.12 436.484,514.62 427.5,519C 423.124,523.251 421.124,528.417 421.5,534.5C 418.518,534.963 415.518,535.296 412.5,535.5C 413.421,529.903 415.421,524.736 418.5,520C 418.257,519.098 417.923,518.265 417.5,517.5C 438.382,512.393 457.048,503.059 473.5,489.5 Z"/></g>
<g><path style="opacity:1" fill="#396aa7" d="M 304.5,496.5 C 317.202,507.078 331.869,513.411 348.5,515.5C 343.762,515.797 338.928,515.797 334,515.5C 330.805,516.221 329.305,518.221 329.5,521.5C 329.565,521.938 329.399,522.272 329,522.5C 327.275,521.536 325.441,520.869 323.5,520.5C 318.625,509.891 310.291,505.224 298.5,506.5C 294.5,503.167 290.5,499.833 286.5,496.5C 288.39,496.703 289.89,496.037 291,494.5C 291.333,491.5 291.667,488.5 292,485.5C 292.638,486.609 293.138,487.775 293.5,489C 292.034,491.438 292.368,493.605 294.5,495.5C 297.842,495.57 301.175,495.904 304.5,496.5 Z"/></g>
<g><path style="opacity:1" fill="#123b6c" d="M 378.5,516.5 C 377.293,526.175 377.293,535.842 378.5,545.5C 378.24,547.187 377.573,548.687 376.5,550C 373.307,549.578 370.14,549.745 367,550.5C 365.395,549.899 364.062,548.899 363,547.5C 363.339,540.546 363.506,533.546 363.5,526.5C 362.628,520.809 362.294,515.142 362.5,509.5C 362.529,507.971 363.196,506.804 364.5,506C 368.5,506.667 372.5,506.667 376.5,506C 377.804,506.804 378.471,507.971 378.5,509.5C 377.179,511.853 377.179,514.186 378.5,516.5 Z"/></g>
<g><path style="opacity:1" fill="#193f6e" d="M 298.5,506.5 C 310.291,505.224 318.625,509.891 323.5,520.5C 325.517,530.61 322.85,539.11 315.5,546C 306.908,549.542 298.075,550.375 289,548.5C 289.258,542.202 289.425,535.869 289.5,529.5C 289.5,524.833 289.5,520.167 289.5,515.5C 289.007,513.194 288.674,510.861 288.5,508.5C 288.611,507.883 288.944,507.383 289.5,507C 292.482,506.502 295.482,506.335 298.5,506.5 Z"/></g>
<g><path style="opacity:1" fill="#f4f5f8" d="M 368.5,510.5 C 370.167,510.5 371.833,510.5 373.5,510.5C 373.795,512.735 373.461,514.735 372.5,516.5C 371.432,515.566 370.099,515.232 368.5,515.5C 368.5,513.833 368.5,512.167 368.5,510.5 Z"/></g>
<g><path style="opacity:1" fill="#edf0f4" d="M 293.5,511.5 C 313.832,508.329 321.998,516.662 318,536.5C 316.01,540.49 312.843,542.99 308.5,544C 303.511,544.499 298.511,544.666 293.5,544.5C 293.5,533.5 293.5,522.5 293.5,511.5 Z"/></g>
<g><path style="opacity:1" fill="#8b9fb7" d="M 368.5,510.5 C 368.5,512.167 368.5,513.833 368.5,515.5C 370.099,515.232 371.432,515.566 372.5,516.5C 370.833,516.5 369.167,516.5 367.5,516.5C 367.153,513.659 367.487,511.659 368.5,510.5 Z"/></g>
<g><path style="opacity:1" fill="#143c6b" d="M 299.5,515.5 C 309.357,514.072 314.357,518.238 314.5,528C 314.257,537.796 309.257,541.963 299.5,540.5C 299.5,532.167 299.5,523.833 299.5,515.5 Z"/></g>
<g><path style="opacity:1" fill="#143c6d" d="M 348.5,515.5 C 354.826,515.174 357.159,518.174 355.5,524.5C 355.703,526.39 355.037,527.89 353.5,529C 350.341,529.011 347.507,529.845 345,531.5C 344.562,536.87 344.562,542.203 345,547.5C 342.781,550.739 339.948,551.406 336.5,549.5C 332.826,550.868 330.493,549.535 329.5,545.5C 330.786,537.352 330.786,529.352 329.5,521.5C 329.305,518.221 330.805,516.221 334,515.5C 338.928,515.797 343.762,515.797 348.5,515.5 Z"/></g>
<g><path style="opacity:1" fill="#173e6d" d="M 417.5,517.5 C 417.923,518.265 418.257,519.098 418.5,520C 415.421,524.736 413.421,529.903 412.5,535.5C 410.624,540.049 408.957,544.715 407.5,549.5C 403.528,549.481 399.528,549.648 395.5,550C 394.667,549.167 393.833,548.333 393,547.5C 391.82,539.958 389.82,532.625 387,525.5C 386.051,523.907 384.885,522.574 383.5,521.5C 383.393,519.097 384.393,517.264 386.5,516C 390.46,516.354 394.46,516.354 398.5,516C 399,516.5 399.5,517 400,517.5C 400.333,520.167 400.667,522.833 401,525.5C 401.8,522.133 402.966,518.966 404.5,516C 407.693,516.422 410.86,516.255 414,515.5C 415.459,515.808 416.626,516.475 417.5,517.5 Z"/></g>
<g><path style="opacity:1" fill="#153c6c" d="M 464.5,515.5 C 468.978,516.304 473.645,516.304 478.5,515.5C 480.722,515.178 482.556,515.845 484,517.5C 483.761,520.249 483.928,522.915 484.5,525.5C 483.972,526.721 483.305,527.887 482.5,529C 479.574,529.218 476.74,529.718 474,530.5C 472.719,536.654 472.219,542.821 472.5,549C 468.167,549.667 463.833,549.667 459.5,549C 459.775,538.904 459.442,528.738 458.5,518.5C 459.687,516.025 461.687,515.025 464.5,515.5 Z"/></g>
<g><path style="opacity:1" fill="#1b406f" d="M 450.5,523.5 C 452.279,528.015 452.779,532.682 452,537.5C 449.699,538.676 449.366,540.01 451,541.5C 451.667,543.167 451.667,544.833 451,546.5C 446.073,548.468 440.906,549.468 435.5,549.5C 427.416,547.748 422.75,542.748 421.5,534.5C 421.124,528.417 423.124,523.251 427.5,519C 436.484,514.62 444.151,516.12 450.5,523.5 Z"/></g>
<g><path style="opacity:1" fill="#f8f9fa" d="M 340.5,531.5 C 339.515,535.634 339.182,539.968 339.5,544.5C 338.167,544.5 336.833,544.5 335.5,544.5C 335.5,536.833 335.5,529.167 335.5,521.5C 336.833,521.5 338.167,521.5 339.5,521.5C 339.343,522.873 339.51,524.207 340,525.5C 340.717,524.956 341.217,524.289 341.5,523.5C 343.997,521.129 346.997,520.129 350.5,520.5C 350.5,521.833 350.5,523.167 350.5,524.5C 345.495,524.512 342.162,526.845 340.5,531.5 Z"/></g>
<g><path style="opacity:1" fill="#ebeef2" d="M 389.5,520.5 C 391.5,520.5 393.5,520.5 395.5,520.5C 396.859,526.932 398.693,533.265 401,539.5C 403.737,533.453 405.57,527.119 406.5,520.5C 408.857,520.337 411.19,520.503 413.5,521C 409.126,528.621 406.46,536.787 405.5,545.5C 402.932,544.55 400.432,544.55 398,545.5C 395.656,536.968 392.823,528.635 389.5,520.5 Z"/></g>
<g><path style="opacity:1" fill="#f0f3f6" d="M 463.5,520.5 C 465.167,520.5 466.833,520.5 468.5,520.5C 468.343,521.873 468.51,523.207 469,524.5C 471.913,521.627 475.413,520.294 479.5,520.5C 479.5,521.833 479.5,523.167 479.5,524.5C 475.574,524.047 472.408,525.38 470,528.5C 468.603,533.708 468.103,539.041 468.5,544.5C 466.833,544.5 465.167,544.5 463.5,544.5C 463.5,536.5 463.5,528.5 463.5,520.5 Z"/></g>
<g><path style="opacity:1" fill="#f0f2f6" d="M 367.5,521.5 C 369.265,520.539 371.265,520.205 373.5,520.5C 373.5,528.5 373.5,536.5 373.5,544.5C 371.833,544.5 370.167,544.5 368.5,544.5C 368.825,536.648 368.492,528.982 367.5,521.5 Z"/></g>
<g><path style="opacity:1" fill="#f3f5f8" d="M 433.5,520.5 C 443.885,519.552 448.552,524.219 447.5,534.5C 442.167,534.5 436.833,534.5 431.5,534.5C 431.372,538.874 433.538,541.208 438,541.5C 440.261,541.135 442.427,540.469 444.5,539.5C 445.262,540.628 445.929,541.795 446.5,543C 428.741,547.241 422.908,540.741 429,523.5C 430.652,522.601 432.152,521.601 433.5,520.5 Z"/></g>
<g><path style="opacity:1" fill="#173d6c" d="M 442.5,527.5 C 442.5,528.5 442.5,529.5 442.5,530.5C 438.351,531.08 434.684,530.414 431.5,528.5C 433.392,524.832 436.392,523.665 440.5,525C 441.381,525.708 442.047,526.542 442.5,527.5 Z"/></g>
<g><path style="opacity:1" fill="#275596" d="M 303.5,520.5 C 308.399,520.567 310.732,523.067 310.5,528C 310.526,532.805 308.192,535.639 303.5,536.5C 303.5,531.167 303.5,525.833 303.5,520.5 Z"/></g>
<g><path style="opacity:1" fill="#6580a2" d="M 367.5,521.5 C 368.492,528.982 368.825,536.648 368.5,544.5C 370.167,544.5 371.833,544.5 373.5,544.5C 372.341,545.513 370.341,545.847 367.5,545.5C 367.5,537.5 367.5,529.5 367.5,521.5 Z"/></g>
<g><path style="opacity:1" fill="#90a3b9" d="M 442.5,527.5 C 443.434,528.568 443.768,529.901 443.5,531.5C 439.167,531.5 434.833,531.5 430.5,531.5C 430.263,530.209 430.596,529.209 431.5,528.5C 434.684,530.414 438.351,531.08 442.5,530.5C 442.5,529.5 442.5,528.5 442.5,527.5 Z"/></g>
<g><path style="opacity:1" fill="#7990ab" d="M 341.5,523.5 C 341.217,524.289 340.717,524.956 340,525.5C 339.51,524.207 339.343,522.873 339.5,521.5C 338.167,521.5 336.833,521.5 335.5,521.5C 335.5,529.167 335.5,536.833 335.5,544.5C 336.833,544.5 338.167,544.5 339.5,544.5C 339.182,539.968 339.515,535.634 340.5,531.5C 340.5,536.167 340.5,540.833 340.5,545.5C 338.5,545.5 336.5,545.5 334.5,545.5C 334.5,537.167 334.5,528.833 334.5,520.5C 336.5,520.5 338.5,520.5 340.5,520.5C 340.263,521.791 340.596,522.791 341.5,523.5 Z"/></g>
<g><path style="opacity:1" fill="#295798" d="M 378.5,516.5 C 379.451,517.919 379.784,519.585 379.5,521.5C 381.139,521.926 382.472,521.926 383.5,521.5C 384.885,522.574 386.051,523.907 387,525.5C 389.82,532.625 391.82,539.958 393,547.5C 393.833,548.333 394.667,549.167 395.5,550C 399.528,549.648 403.528,549.481 407.5,549.5C 408.957,544.715 410.624,540.049 412.5,535.5C 415.518,535.296 418.518,534.963 421.5,534.5C 422.75,542.748 427.416,547.748 435.5,549.5C 403.236,560.318 370.57,561.151 337.5,552C 336.748,551.329 336.414,550.496 336.5,549.5C 339.948,551.406 342.781,550.739 345,547.5C 344.562,542.203 344.562,536.87 345,531.5C 347.507,529.845 350.341,529.011 353.5,529C 355.037,527.89 355.703,526.39 355.5,524.5C 357.913,526.051 360.579,526.717 363.5,526.5C 363.506,533.546 363.339,540.546 363,547.5C 364.062,548.899 365.395,549.899 367,550.5C 370.14,549.745 373.307,549.578 376.5,550C 377.573,548.687 378.24,547.187 378.5,545.5C 377.293,535.842 377.293,526.175 378.5,516.5 Z"/></g>
</svg>
