<svg width="511" height="511" viewBox="0 0 511 511" fill="none" xmlns="http://www.w3.org/2000/svg">
<path d="M0 0H511V511H0V0Z" fill="#006D77"/>
<path d="M27.74 249.66C27.74 248.047 29.0473 246.74 30.66 246.74H32.12C33.7327 246.74 35.04 248.047 35.04 249.66V261.34C35.04 262.953 33.7327 264.26 32.12 264.26H30.66C29.0473 264.26 27.74 262.953 27.74 261.34V249.66Z" fill="#EDF6F9"/>
<path d="M40.88 233.6C40.88 231.987 42.1873 230.68 43.8 230.68H45.26C46.8727 230.68 48.18 231.987 48.18 233.6V277.4C48.18 279.013 46.8727 280.32 45.26 280.32H43.8C42.1873 280.32 40.88 279.013 40.88 277.4V233.6Z" fill="#EDF6F9"/>
<path d="M54.02 233.6C54.02 231.987 55.3273 230.68 56.94 230.68H58.4C60.0127 230.68 61.32 231.987 61.32 233.6V275.94C61.32 277.553 60.0127 278.86 58.4 278.86H56.94C55.3273 278.86 54.02 277.553 54.02 275.94V233.6Z" fill="#EDF6F9"/>
<path d="M67.16 229.22C67.16 227.607 68.4673 226.3 70.08 226.3H71.54C73.1527 226.3 74.46 227.607 74.46 229.22V281.78C74.46 283.393 73.1527 284.7 71.54 284.7H70.08C68.4673 284.7 67.16 283.393 67.16 281.78V229.22Z" fill="#EDF6F9"/>
<path d="M80.3 208.78C80.3 207.167 81.6073 205.86 83.22 205.86H84.68C86.2927 205.86 87.6 207.167 87.6 208.78V300.76C87.6 302.373 86.2927 303.68 84.68 303.68H83.22C81.6073 303.68 80.3 302.373 80.3 300.76V208.78Z" fill="#EDF6F9"/>
<path d="M93.44 216.08C93.44 214.467 94.7473 213.16 96.36 213.16H97.82C99.4327 213.16 100.74 214.467 100.74 216.08V293.46C100.74 295.073 99.4327 296.38 97.82 296.38H96.36C94.7473 296.38 93.44 295.073 93.44 293.46V216.08Z" fill="#EDF6F9"/>
<path d="M106.58 220.46C106.58 218.847 107.887 217.54 109.5 217.54H110.96C112.573 217.54 113.88 218.847 113.88 220.46V290.54C113.88 292.153 112.573 293.46 110.96 293.46H109.5C107.887 293.46 106.58 292.153 106.58 290.54V220.46Z" fill="#EDF6F9"/>
<path d="M119.72 233.6C119.72 231.987 121.027 230.68 122.64 230.68H124.1C125.713 230.68 127.02 231.987 127.02 233.6V277.4C127.02 279.013 125.713 280.32 124.1 280.32H122.64C121.027 280.32 119.72 279.013 119.72 277.4V233.6Z" fill="#EDF6F9"/>
<path d="M132.86 243.82C132.86 242.207 134.167 240.9 135.78 240.9H137.24C138.853 240.9 140.16 242.207 140.16 243.82V267.18C140.16 268.793 138.853 270.1 137.24 270.1H135.78C134.167 270.1 132.86 268.793 132.86 267.18V243.82Z" fill="#EDF6F9"/>
<path d="M146 248.2C146 246.587 147.307 245.28 148.92 245.28H150.38C151.993 245.28 153.3 246.587 153.3 248.2V262.8C153.3 264.413 151.993 265.72 150.38 265.72H148.92C147.307 265.72 146 264.413 146 262.8V248.2Z" fill="#EDF6F9"/>
<path d="M159.14 248.2C159.14 246.587 160.447 245.28 162.06 245.28H163.52C165.133 245.28 166.44 246.587 166.44 248.2V261.34C166.44 262.953 165.133 264.26 163.52 264.26H162.06C160.447 264.26 159.14 262.953 159.14 261.34V248.2Z" fill="#EDF6F9"/>
<path d="M172.28 221.92C172.28 220.307 173.587 219 175.2 219H176.66C178.273 219 179.58 220.307 179.58 221.92V287.62C179.58 289.233 178.273 290.54 176.66 290.54H175.2C173.587 290.54 172.28 289.233 172.28 287.62V221.92Z" fill="#EDF6F9"/>
<path d="M185.42 211.7C185.42 210.087 186.727 208.78 188.34 208.78H189.8C191.413 208.78 192.72 210.087 192.72 211.7V297.84C192.72 299.453 191.413 300.76 189.8 300.76H188.34C186.727 300.76 185.42 299.453 185.42 297.84V211.7Z" fill="#EDF6F9"/>
<path d="M198.56 219C198.56 217.387 199.867 216.08 201.48 216.08H202.94C204.553 216.08 205.86 217.387 205.86 219V290.54C205.86 292.153 204.553 293.46 202.94 293.46H201.48C199.867 293.46 198.56 292.153 198.56 290.54V219Z" fill="#EDF6F9"/>
<path d="M211.7 227.76C211.7 226.147 213.007 224.84 214.62 224.84H216.08C217.693 224.84 219 226.147 219 227.76V283.24C219 284.853 217.693 286.16 216.08 286.16H214.62C213.007 286.16 211.7 284.853 211.7 283.24V227.76Z" fill="#EDF6F9"/>
<path d="M224.84 211.7C224.84 210.087 226.147 208.78 227.76 208.78H229.22C230.833 208.78 232.14 210.087 232.14 211.7V299.3C232.14 300.913 230.833 302.22 229.22 302.22H227.76C226.147 302.22 224.84 300.913 224.84 299.3V211.7Z" fill="#EDF6F9"/>
<path d="M237.98 233.6C237.98 231.987 239.287 230.68 240.9 230.68H242.36C243.973 230.68 245.28 231.987 245.28 233.6V277.4C245.28 279.013 243.973 280.32 242.36 280.32H240.9C239.287 280.32 237.98 279.013 237.98 277.4V233.6Z" fill="#EDF6F9"/>
<path d="M321.2 138.7H408.8V370.84H321.2V138.7Z" fill="#EDF6F9"/>
<path d="M481.07 210.97V298.57H248.93V210.97H481.07Z" fill="#EDF6F9"/>
</svg>
