<svg width="600" height="600" viewBox="0 0 600 600" fill="none" xmlns="http://www.w3.org/2000/svg">
<g clip-path="url(#clip0_99_1017)">
<rect width="600" height="600" rx="50" fill="white"/>
<circle cx="297.693" cy="303.463" r="259.615" fill="white"/>
<mask id="mask0_99_1017" style="mask-type:luminance" maskUnits="userSpaceOnUse" x="185" y="146" width="224" height="203">
<path d="M185.081 146.691H408.168V348.972H185.081V146.691Z" fill="white"/>
</mask>
<g mask="url(#mask0_99_1017)">
<path d="M378.06 282.405C390.32 282.405 399.064 279.571 404.094 273.945C407.425 270.214 408.693 265.454 407.653 260.532C406.074 253.094 399.094 245.343 386.295 236.846C382.964 234.626 379.418 232.493 375.949 230.549C390.111 203.565 392.551 176.693 376.278 161.203C339.771 126.449 296.914 168.71 296.914 168.71C296.914 168.71 254.062 126.449 217.555 161.203C201.276 176.693 203.716 203.565 217.878 230.549C214.416 232.493 210.869 234.626 207.532 236.846C194.739 245.343 187.754 253.094 186.181 260.532C185.14 265.454 186.402 270.214 189.739 273.945C194.769 279.571 203.507 282.405 215.767 282.405C218.076 282.405 220.504 282.305 223.064 282.104C229.511 281.596 236.413 280.442 243.314 278.762C239.277 281.841 235.312 285.265 231.712 288.833C222.86 297.606 212.526 310.838 213.542 324.07C214.105 331.389 217.986 336.914 223.333 340.77L219.003 345.543C223.943 347.443 228.925 347.205 233.614 345.781C237.926 347.111 242.417 347.725 246.538 347.65C263.164 347.343 279.898 342.884 296.005 338.92C296.304 338.845 296.609 338.77 296.914 338.688C297.219 338.77 297.524 338.845 297.829 338.92C298.798 339.159 299.772 339.397 300.747 339.642C301.519 339.83 302.29 340.024 303.062 340.212C303.397 340.3 303.732 340.382 304.072 340.463C304.988 340.689 305.915 340.921 306.836 341.147C306.985 341.178 307.129 341.216 307.278 341.253C308.038 341.435 308.803 341.623 309.575 341.805C309.856 341.874 310.143 341.943 310.43 342.012C311.136 342.181 311.841 342.344 312.547 342.514C312.786 342.57 313.02 342.627 313.259 342.677C314.168 342.89 315.077 343.097 315.986 343.304C316.201 343.348 316.417 343.398 316.632 343.442C317.35 343.605 318.067 343.762 318.785 343.912C319.072 343.975 319.365 344.038 319.658 344.1C320.412 344.257 321.171 344.414 321.931 344.564C322.11 344.602 322.29 344.64 322.469 344.677C323.378 344.859 324.293 345.035 325.208 345.204C325.466 345.248 325.717 345.292 325.974 345.342C326.674 345.468 327.367 345.587 328.067 345.706C328.348 345.756 328.635 345.8 328.916 345.85C329.802 345.994 330.687 346.132 331.572 346.264C331.62 346.276 331.668 346.283 331.715 346.289C332.481 346.402 333.252 346.509 334.018 346.609V346.603C338.444 347.186 342.869 347.568 347.295 347.65C351.416 347.725 355.907 347.111 360.219 345.781C364.902 347.205 369.884 347.443 374.83 345.543L370.5 340.77C375.847 336.914 379.729 331.395 380.291 324.07C381.307 310.838 370.973 297.606 362.121 288.833C358.521 285.265 354.556 281.841 350.519 278.762C357.415 280.442 364.316 281.596 370.769 282.104C373.323 282.305 375.757 282.405 378.06 282.405ZM378.712 250.341C388.897 257.17 392.264 261.767 392.946 263.498C390.613 265.693 384.447 266.897 376.086 266.684V266.677C369.454 266.508 361.44 265.442 352.857 263.285C358.491 257.032 363.581 250.498 368.018 243.857C371.589 245.838 375.297 248.052 378.712 250.341ZM215.115 250.341C218.53 248.052 222.238 245.838 225.815 243.857C230.253 250.498 235.336 257.032 240.97 263.285C232.394 265.442 224.379 266.508 217.747 266.677V266.684C209.38 266.897 203.22 265.693 200.887 263.498C201.569 261.767 204.93 257.17 215.115 250.341ZM261.424 328.329C259.935 328.617 258.428 328.906 256.915 329.175C258.129 327.808 258.798 326.943 258.798 326.943C259.839 327.244 261.113 327.639 262.572 328.109C262.19 328.184 261.807 328.26 261.424 328.329ZM333.019 328.448C332.816 328.41 332.612 328.372 332.409 328.329C332.026 328.26 331.644 328.184 331.261 328.109C332.714 327.639 333.994 327.244 335.035 326.943C335.035 326.943 335.705 327.808 336.919 329.175C336.093 329.031 335.274 328.88 334.455 328.724C333.976 328.63 333.498 328.542 333.019 328.448ZM358.796 327.89L340.16 307.364L335.346 308.8C326.745 311.359 318.121 313.849 309.491 316.294C305.311 317.48 301.118 318.665 296.914 319.819C292.715 318.665 288.523 317.48 284.342 316.294C275.706 313.849 267.088 311.359 258.487 308.8C258.481 308.8 253.667 307.364 253.667 307.364L235.031 327.89C223.195 320.828 236.466 308.06 243.105 301.476C249.642 295.004 257.943 288.814 264.695 285.259C274.671 292.934 285.526 299.557 296.914 304.574C308.307 299.557 319.156 292.934 329.138 285.259C335.89 288.814 344.191 295.004 350.728 301.476C357.367 308.06 370.638 320.828 358.796 327.89Z" fill="#F66C72"/>
</g>
<mask id="mask1_99_1017" style="mask-type:luminance" maskUnits="userSpaceOnUse" x="185" y="146" width="224" height="203">
<path d="M185.081 146.691H408.999V348.972H185.081V146.691Z" fill="white"/>
</mask>
<g mask="url(#mask1_99_1017)">
<path d="M288.063 207.673C288.339 207.29 288.859 207.215 289.224 207.504C291.454 209.285 294.11 210.225 296.915 210.225C299.72 210.225 302.381 209.285 304.606 207.504C304.971 207.215 305.491 207.29 305.772 207.673C306.047 208.049 305.976 208.595 305.617 208.89C303.093 210.903 300.091 211.969 296.915 211.969C293.745 211.969 290.737 210.903 288.219 208.89C287.854 208.595 287.782 208.049 288.063 207.673ZM256.988 196.598C260.552 198.561 264.804 199.602 269.278 199.602C273.752 199.602 278.004 198.561 281.568 196.598C281.975 196.379 282.131 195.852 281.915 195.425C281.706 194.999 281.204 194.836 280.797 195.062C277.466 196.893 273.482 197.859 269.278 197.859C265.068 197.859 261.084 196.893 257.759 195.062C257.352 194.836 256.85 194.999 256.635 195.425C256.425 195.852 256.581 196.379 256.988 196.598ZM312.267 196.598C315.832 198.561 320.084 199.602 324.558 199.602C329.031 199.602 333.284 198.561 336.848 196.598C337.255 196.379 337.41 195.852 337.195 195.425C336.986 194.999 336.483 194.836 336.077 195.062C332.745 196.893 328.762 197.859 324.558 197.859C320.347 197.859 316.364 196.893 313.039 195.062C312.632 194.836 312.13 194.999 311.914 195.425C311.705 195.852 311.861 196.379 312.267 196.598ZM408.013 267.951H408.019C408.001 268.02 407.977 268.083 407.959 268.152C407.893 268.365 407.833 268.578 407.761 268.791C407.726 268.892 407.684 268.998 407.648 269.099C407.582 269.28 407.522 269.456 407.45 269.632C407.391 269.782 407.325 269.926 407.259 270.077C407.199 270.202 407.151 270.334 407.092 270.459C406.996 270.647 406.9 270.842 406.799 271.03C406.757 271.112 406.721 271.187 406.679 271.268C406.553 271.488 406.428 271.707 406.296 271.921C406.266 271.971 406.242 272.021 406.212 272.065C406.063 272.297 405.913 272.523 405.752 272.748C405.734 272.78 405.71 272.817 405.692 272.842C405.525 273.074 405.351 273.306 405.178 273.532C405.154 273.557 405.136 273.582 405.118 273.607C404.921 273.852 404.711 274.103 404.496 274.341C404.179 274.699 403.844 275.044 403.491 275.382C399.64 279.082 394.024 281.44 386.709 282.437C385.382 282.619 383.994 282.757 382.553 282.845C381.111 282.939 379.616 282.983 378.061 282.983C375.753 282.983 373.289 282.882 370.729 282.682C365.041 282.23 359.007 281.283 352.93 279.922C356.262 282.575 359.503 285.447 362.499 288.414C371.441 297.275 381.877 310.657 380.842 324.121C380.298 331.201 376.596 336.808 371.315 340.827L375.812 345.782L375.023 346.083C372.607 347.017 370.053 347.487 367.433 347.487C364.975 347.487 362.559 347.08 360.221 346.39C356.25 347.607 352.063 348.234 347.99 348.234C347.751 348.234 347.518 348.234 347.284 348.227C342.841 348.146 338.391 347.763 333.953 347.18L333.947 347.186C333.732 347.155 333.511 347.124 333.296 347.092C332.979 347.048 332.668 347.011 332.351 346.961C331.711 346.873 331.071 346.779 330.431 346.678C330.132 346.628 329.833 346.584 329.534 346.534C328.834 346.421 328.134 346.308 327.434 346.189C327.07 346.127 326.705 346.058 326.34 345.995C325.856 345.907 325.365 345.819 324.875 345.725C324.504 345.656 324.133 345.587 323.762 345.518C323.027 345.374 322.291 345.23 321.561 345.086C321.143 344.998 320.724 344.91 320.305 344.822C319.899 344.741 319.486 344.653 319.079 344.565C318.637 344.471 318.188 344.377 317.746 344.283C317.363 344.195 316.974 344.114 316.585 344.026C315.796 343.85 315.007 343.675 314.223 343.493C313.888 343.417 313.553 343.342 313.224 343.261C312.728 343.148 312.231 343.035 311.735 342.916C311.43 342.847 311.131 342.772 310.826 342.703C309.008 342.27 307.202 341.831 305.396 341.386C305.348 341.373 305.294 341.361 305.246 341.348C303.93 341.022 302.614 340.702 301.305 340.376L297.698 339.485C297.441 339.423 297.178 339.354 296.921 339.285C296.658 339.354 296.395 339.423 296.131 339.485L292.525 340.376C277.519 344.095 261.999 347.945 246.545 348.227C246.312 348.234 246.079 348.234 245.846 348.234C241.773 348.234 237.586 347.607 233.615 346.39C231.276 347.08 228.86 347.487 226.408 347.487C226.402 347.487 226.402 347.487 226.402 347.487C224.464 347.487 222.563 347.23 220.726 346.716C220.715 346.716 220.703 346.71 220.691 346.71C220.057 346.528 219.429 346.321 218.813 346.083L218.023 345.782L222.521 340.827C217.24 336.808 213.538 331.201 212.993 324.121C211.959 310.657 222.395 297.275 231.336 288.414C234.333 285.447 237.574 282.575 240.905 279.922C234.829 281.283 228.794 282.23 223.107 282.682C223.041 282.688 222.975 282.688 222.909 282.694C221.779 282.782 220.673 282.845 219.584 282.895C218.274 282.951 217.001 282.983 215.768 282.983C203.358 282.983 194.465 280.079 189.34 274.341C189.124 274.103 188.915 273.858 188.718 273.607C188.676 273.557 188.64 273.501 188.598 273.451C188.443 273.25 188.293 273.056 188.15 272.849C188.108 272.792 188.066 272.729 188.03 272.667C187.892 272.472 187.755 272.272 187.629 272.071C187.581 271.996 187.539 271.921 187.492 271.839C187.384 271.657 187.27 271.469 187.163 271.275C187.103 271.168 187.049 271.055 186.995 270.948C186.912 270.785 186.828 270.629 186.75 270.466C186.678 270.315 186.612 270.158 186.547 270.008C186.493 269.882 186.439 269.763 186.391 269.638C186.307 269.443 186.242 269.249 186.17 269.055C186.14 268.967 186.104 268.879 186.074 268.791C186.002 268.572 185.937 268.352 185.871 268.126C185.859 268.07 185.835 268.007 185.817 267.951H185.823C185.165 265.555 185.093 263.003 185.644 260.407C187.252 252.812 194.316 244.942 207.24 236.357C210.422 234.237 213.801 232.199 217.114 230.33C211.767 220.033 208.167 209.83 206.6 200.242C203.885 183.598 207.545 169.952 217.186 160.771C226.845 151.572 237.843 146.906 249.865 146.906C273.476 146.906 293.907 165.117 296.915 167.927C299.923 165.117 320.353 146.906 343.965 146.906C355.992 146.906 366.985 151.572 376.65 160.771C386.291 169.952 389.951 183.598 387.236 200.242C385.669 209.83 382.068 220.033 376.722 230.33C380.035 232.199 383.414 234.244 386.596 236.357C399.52 244.942 406.583 252.812 408.192 260.407C408.742 263.003 408.671 265.555 408.013 267.951ZM241.216 262.652C246.761 261.228 252.574 259.334 258.441 256.901C273.046 250.843 280.163 244.397 281.999 240.327C281.915 239.286 281.873 238.163 281.879 236.984C281.927 230.393 284.487 223.42 288.111 220.027C289.762 218.484 291.544 217.776 293.261 217.964C294.929 218.152 296.131 218.635 296.915 219.438C297.704 218.635 298.906 218.152 300.569 217.964C302.292 217.769 304.074 218.484 305.718 220.027C309.349 223.42 311.909 230.393 311.95 236.984C311.962 238.163 311.92 239.286 311.837 240.327C313.667 244.397 320.79 250.843 335.395 256.901C341.262 259.334 347.069 261.228 352.619 262.652C370.197 243.18 382.774 220.679 386.141 200.047C388.797 183.818 385.256 170.529 375.908 161.63C366.453 152.631 355.705 148.066 343.965 148.066C318.954 148.066 297.507 168.917 297.298 169.131C297.082 169.344 296.753 169.344 296.538 169.131C296.323 168.917 274.876 148.066 249.865 148.066C238.124 148.066 227.383 152.631 217.928 161.63C208.58 170.529 205.039 183.818 207.689 200.047C211.062 220.679 223.639 243.18 241.216 262.652ZM357.308 259.04C356.202 260.357 355.071 261.655 353.929 262.94C362.338 264.991 370.675 266.126 377.96 266.126C384.395 266.126 389.329 265.242 391.787 263.668C391.799 263.661 391.811 263.655 391.823 263.649C391.966 263.555 392.092 263.467 392.212 263.373C392.23 263.36 392.241 263.348 392.259 263.335C391.572 262.031 388.713 257.729 378.414 250.831C375.155 248.642 371.626 246.523 368.199 244.616C364.928 249.476 361.285 254.305 357.308 259.04ZM236.528 259.04C232.55 254.305 228.908 249.476 225.631 244.616C222.21 246.523 218.681 248.642 215.416 250.831C205.123 257.729 202.264 262.031 201.576 263.335C201.594 263.348 201.612 263.36 201.624 263.379C201.744 263.467 201.869 263.555 202.001 263.643C202.013 263.649 202.031 263.661 202.049 263.674C204.513 265.242 209.441 266.132 215.876 266.132C223.286 266.132 231.552 265.016 239.931 262.965C238.776 261.667 237.64 260.363 236.528 259.04ZM263.931 271.456C278.979 265.217 289.499 257.491 294.349 249.119L294.427 248.981L294.564 248.906C295.234 248.542 295.784 248.065 296.233 247.513C293.661 243.331 295.025 236.577 295.396 235.002C295.647 233.918 295.641 232.481 295.635 231.096C295.623 229.321 295.611 227.646 296.084 226.386C296.066 226.21 296.048 226.041 296.03 225.865C295.898 225.784 295.761 225.721 295.605 225.677C294.684 225.445 293.936 225.546 293.32 225.985C291.622 227.189 291.137 230.694 290.749 233.516C290.671 234.087 290.593 234.632 290.515 235.122C290.468 235.404 290.234 235.604 289.971 235.604C289.941 235.604 289.905 235.604 289.876 235.598C289.577 235.542 289.373 235.241 289.427 234.927C289.505 234.444 289.577 233.911 289.654 233.347C290.073 230.305 290.599 226.511 292.698 225.025C293.578 224.398 294.636 224.241 295.862 224.549C295.868 224.555 295.88 224.555 295.886 224.561C295.731 223.075 295.659 221.595 296.245 220.385C295.659 219.707 294.642 219.287 293.147 219.118C291.742 218.961 290.258 219.576 288.847 220.892C285.438 224.084 283.028 230.707 282.986 236.997C282.98 238.194 283.022 239.33 283.111 240.377L283.123 240.527L283.069 240.665C281.245 244.936 273.925 251.728 258.848 257.98C246.886 262.94 233.788 266.157 221.97 267.048C211.989 267.8 204.262 266.784 201.002 264.332C200.984 264.32 200.966 264.307 200.948 264.289C200.793 264.176 200.649 264.05 200.512 263.925C200.338 263.762 200.284 263.498 200.374 263.273C200.709 262.426 202.982 257.785 214.818 249.852C216.713 248.579 218.699 247.338 220.697 246.14C217.425 242.747 214.943 238.583 212.342 234.463C210.81 235.398 209.297 236.357 207.826 237.335C195.165 245.745 188.263 253.377 186.72 260.658C186.158 263.317 186.296 265.925 187.097 268.34C187.097 268.34 187.097 268.34 187.097 268.346C187.719 270.221 188.742 271.977 190.141 273.545C194.866 278.825 203.024 281.597 214.387 281.804C214.847 281.81 215.302 281.823 215.768 281.823C218.053 281.823 220.493 281.722 223.017 281.522C236.067 280.499 250.977 276.831 263.931 271.456ZM339.133 276.103C335.843 275.018 332.614 273.827 329.498 272.535C314.307 266.233 303.631 258.394 298.619 249.859C297.95 249.476 297.387 248.993 296.915 248.454C296.448 248.993 295.886 249.476 295.216 249.859C290.199 258.394 279.529 266.233 264.338 272.535C261.222 273.827 257.986 275.018 254.697 276.103C267.478 287.592 281.933 297.312 296.915 303.947C311.903 297.312 326.358 287.586 339.133 276.103ZM297.13 305.114C297.064 305.139 296.987 305.157 296.915 305.157C296.843 305.157 296.771 305.139 296.7 305.114C285.707 300.266 274.858 293.744 264.655 285.93C258.004 289.48 249.894 295.55 243.489 301.896L243.094 302.285C238.172 307.164 229.925 315.323 230.93 321.751C231.259 323.852 232.604 325.664 234.937 327.156L253.501 306.713L253.818 306.807C253.818 306.807 258.584 308.224 258.638 308.243C266.634 310.626 275.091 313.072 284.487 315.737C288.721 316.935 292.854 318.101 296.921 319.217C300.982 318.101 305.114 316.935 309.349 315.737C318.744 313.078 327.195 310.626 335.197 308.243C335.251 308.224 340.012 306.807 340.012 306.807L340.335 306.713L358.899 327.156C361.231 325.664 362.571 323.852 362.9 321.744C363.905 315.323 355.663 307.164 350.735 302.285L350.347 301.896C343.941 295.55 335.825 289.48 329.181 285.93C318.978 293.744 308.129 300.266 297.13 305.114ZM223.28 339.987L234.159 328.009C231.665 326.366 230.212 324.328 229.841 321.933C228.741 314.903 237.251 306.474 242.341 301.445L242.73 301.056C246.473 297.344 250.798 293.731 255.086 290.64C253.824 289.85 252.562 289.034 251.318 288.188C247.951 285.893 244.667 283.459 241.444 280.945C238.19 283.547 235.02 286.357 232.096 289.254C223.334 297.939 213.095 311.021 214.094 324.027C214.614 330.794 218.185 336.143 223.28 339.987ZM294.564 338.683C285.546 336.293 275.821 333.076 268.518 330.662C266.323 329.941 264.308 329.27 262.538 328.705C262.203 328.768 261.862 328.837 261.527 328.9L260.696 329.063C259.535 329.282 258.357 329.508 257.173 329.721C253.489 333.835 245.206 342.107 235.445 345.719C238.854 346.616 242.389 347.074 245.846 347.074C246.073 347.074 246.3 347.074 246.527 347.067C261.862 346.785 277.322 342.953 292.274 339.247L294.564 338.683ZM260.223 327.972C259.793 327.84 259.374 327.715 258.997 327.602C258.86 327.777 258.656 328.022 258.411 328.317C259.021 328.204 259.619 328.091 260.223 327.972ZM358.277 345.744C348.475 342.138 340.269 333.848 336.621 329.715C335.933 329.59 335.245 329.458 334.563 329.333L334.581 328.749L334.48 329.314L332.309 328.9C316.484 325.883 301.155 321.663 284.194 316.853C274.798 314.194 266.335 311.742 258.333 309.359C258.333 309.359 258.19 309.315 253.836 308.017L219.997 345.286C238.746 351.601 258.172 326.83 258.369 326.58L258.596 326.285L258.943 326.385C261.276 327.056 264.786 328.216 268.847 329.558C276.993 332.249 288.147 335.942 297.955 338.357L301.562 339.247C312.154 341.875 323.11 344.59 334.037 346.026V346.02C338.463 346.603 342.889 346.986 347.308 347.067C347.53 347.074 347.757 347.074 347.99 347.074C351.405 347.074 354.904 346.622 358.277 345.744ZM334.097 328.066C334.54 328.147 334.976 328.235 335.419 328.317C335.174 328.022 334.976 327.777 334.839 327.602C334.462 327.715 334.049 327.84 333.613 327.972L334.097 328.066ZM339.994 308.017C335.49 309.359 335.49 309.359 335.479 309.365C327.494 311.742 319.038 314.194 309.636 316.853C306.059 317.869 302.555 318.854 299.098 319.813C310.054 322.798 320.545 325.426 331.232 327.508C332.638 327.056 333.876 326.674 334.892 326.385L335.239 326.285L335.467 326.58C335.616 326.774 350.927 346.327 367.428 346.327C369.628 346.327 371.781 345.976 373.839 345.286L339.994 308.017ZM352.751 281.233C348.217 284.557 343.409 287.467 338.732 290.634C343.026 293.725 347.356 297.344 351.106 301.056L351.495 301.445C356.584 306.481 365.095 314.903 363.995 321.933C363.624 324.328 362.17 326.366 359.676 328.016L370.549 339.987C375.645 336.149 379.221 330.794 379.742 324.027C380.741 311.021 370.502 297.939 361.74 289.26C358.917 286.463 355.879 283.754 352.751 281.233ZM407.11 260.658C405.573 253.377 398.665 245.745 386.004 237.335C384.203 236.138 382.343 234.971 380.471 233.842C379.024 238.47 376.339 242.421 373.63 246.435C375.46 247.545 377.278 248.686 379.012 249.852C390.848 257.785 393.127 262.426 393.462 263.273C393.551 263.498 393.491 263.762 393.318 263.925C393.186 264.05 393.037 264.176 392.881 264.295C392.863 264.307 392.852 264.32 392.834 264.332C389.58 266.784 381.847 267.8 371.865 267.048C360.041 266.157 346.95 262.94 334.988 257.98C319.911 251.728 312.59 244.936 310.766 240.665L310.706 240.527L310.724 240.377C310.814 239.33 310.856 238.194 310.85 236.997C310.808 230.707 308.398 224.084 304.983 220.892C303.577 219.576 302.088 218.967 300.689 219.118C299.104 219.3 298.057 219.751 297.483 220.504C296.676 221.563 296.849 223.225 297.046 224.994C297.316 224.787 297.621 224.636 297.967 224.549C299.194 224.241 300.258 224.398 301.137 225.025C303.236 226.511 303.757 230.305 304.181 233.347C304.259 233.911 304.331 234.444 304.409 234.927C304.463 235.241 304.259 235.542 303.96 235.592C303.924 235.604 303.894 235.604 303.864 235.604C303.601 235.604 303.368 235.404 303.32 235.122C303.236 234.632 303.165 234.087 303.087 233.516C302.692 230.694 302.214 227.189 300.515 225.985C299.899 225.546 299.152 225.445 298.231 225.677C297.746 225.803 297.417 226.11 297.184 226.637L297.154 226.7C296.717 227.747 296.729 229.446 296.741 231.089C296.747 232.544 296.759 234.056 296.472 235.285C296.048 237.078 294.206 246.165 299.265 248.906L299.409 248.981L299.487 249.119C304.337 257.491 314.857 265.217 329.904 271.456C342.853 276.831 357.763 280.499 370.813 281.522C373.342 281.722 375.783 281.823 378.067 281.823C378.534 281.823 378.988 281.81 379.449 281.804C390.812 281.597 398.97 278.825 403.689 273.551C406.894 269.964 408.114 265.386 407.11 260.658Z" fill="black"/>
</g>
<path d="M252.5 202.204C252.638 204.681 250.174 206.827 246.995 206.99C243.821 207.153 241.137 205.28 241.005 202.797C240.868 200.319 243.332 198.173 246.505 198.011C249.679 197.848 252.363 199.72 252.5 202.204ZM345.999 198.011C342.826 198.173 340.362 200.314 340.5 202.797C340.631 205.274 343.315 207.153 346.495 206.984C349.668 206.821 352.132 204.681 351.995 202.198C351.857 199.72 349.179 197.842 345.999 198.011Z" fill="#BC1823"/>
<mask id="mask2_99_1017" style="mask-type:luminance" maskUnits="userSpaceOnUse" x="46" y="25" width="309" height="240">
<path d="M46 25H354.581V264.607H46V25Z" fill="white"/>
</mask>
<g mask="url(#mask2_99_1017)">
<path d="M130.472 183.634C132.96 180.687 134.916 178.078 137.153 175.764C144.605 168.082 151.812 160.08 159.796 153.025C168.402 145.418 180.776 147.469 188.713 156.286C190.692 158.475 194.185 159.158 197.319 160.682C198.677 164.213 195.465 165.762 193.479 167.737C175.483 185.66 161.5 206.825 149.378 229.275C144.731 237.854 141.621 247.38 138.104 256.592C135.347 263.829 134.994 264.858 127.464 264.224C114.031 263.096 102.339 258.304 93.8765 246.195C79.1459 225.168 63.2552 205.006 52.2088 181.396C50.4265 177.551 49.0988 173.475 46.6348 167.16C57.6572 169.236 66.718 169.161 72.5432 178.341C76.1077 183.979 79.744 189.529 84.6662 197.218C85.9221 189.134 86.6996 183.553 87.6505 178.028C94.8573 136.363 110.844 98.7799 140.843 70.1397C168.127 44.0582 200.184 26.0287 238.61 25.527C270.894 25.1319 298.602 38.4016 322.824 59.7171C332.513 68.2709 340.725 78.7249 349.331 88.5642C351.568 91.1166 352.8 94.5908 354.48 97.6699C353.828 98.3284 353.176 98.9868 352.519 99.6453C348.553 97.0679 344.439 94.6974 340.701 91.8064C338.362 89.9878 336.556 87.4104 334.6 85.09C309.499 55.3211 277.795 47.3756 241.875 55.4841C214.442 61.6674 191.775 77.1696 172.72 98.4099C152.589 120.81 138.935 147.18 130.754 176.711C130.377 178.028 130.072 179.37 129.874 180.712C129.821 181.32 130.126 181.979 130.472 183.634Z" fill="#206E95"/>
</g>
<mask id="mask3_99_1017" style="mask-type:luminance" maskUnits="userSpaceOnUse" x="235" y="218" width="319" height="234">
<path d="M235.158 218.934H553.619V451.718H235.158V218.934Z" fill="white"/>
</mask>
<g mask="url(#mask3_99_1017)">
<mask id="mask4_99_1017" style="mask-type:luminance" maskUnits="userSpaceOnUse" x="229" y="197" width="334" height="273">
<path d="M542.022 469.189L229.763 440.11L250.283 197.844L562.542 226.923L542.022 469.189Z" fill="white"/>
</mask>
<g mask="url(#mask4_99_1017)">
<mask id="mask5_99_1017" style="mask-type:luminance" maskUnits="userSpaceOnUse" x="229" y="197" width="334" height="273">
<path d="M542.022 469.189L229.763 440.11L250.283 197.844L562.542 226.924L542.022 469.189Z" fill="white"/>
</mask>
<g mask="url(#mask5_99_1017)">
<path d="M470.211 300.872C467.447 303.618 465.241 306.07 462.788 308.202C454.589 315.27 446.623 322.676 437.951 329.06C428.597 335.933 416.258 332.697 408.998 323.034C407.18 320.638 403.711 319.622 400.667 317.785C399.602 314.091 402.981 312.824 405.158 311.012C424.883 294.588 440.833 274.508 455.008 252.954C460.438 244.72 464.403 235.376 468.745 226.396C472.154 219.341 472.597 218.337 480.156 219.686C493.637 222.094 505.048 228.033 512.566 241.07C525.658 263.715 539.994 285.595 549.138 310.504C550.609 314.555 551.608 318.801 553.552 325.423C542.589 322.281 533.427 321.51 528.325 311.677C525.203 305.644 521.998 299.686 517.685 291.452C515.724 299.504 514.456 305.073 513.02 310.573C502.171 352.012 482.788 388.504 450.014 414.63C420.194 438.428 386.247 453.636 347.355 450.525C314.688 447.885 287.811 431.869 265.144 408.032C256.083 398.475 248.679 387.137 240.82 376.376C238.781 373.585 237.836 369.96 236.4 366.687C237.112 366.085 237.83 365.477 238.547 364.875C242.333 367.853 246.292 370.638 249.827 373.917C252.028 375.974 253.637 378.752 255.419 381.273C278.247 413.733 309.616 424.751 346.619 419.941C374.884 416.266 399.13 402.733 420.206 383.048C442.472 362.303 458.536 336.93 469.337 307.845C469.834 306.547 470.252 305.217 470.569 303.882C470.671 303.273 470.426 302.584 470.211 300.872Z" fill="#206E95"/>
</g>
</g>
</g>
<mask id="mask6_99_1017" style="mask-type:luminance" maskUnits="userSpaceOnUse" x="96" y="469" width="83" height="80">
<path d="M96.7002 469.376H178.51V548.041H96.7002V469.376Z" fill="white"/>
</mask>
<g mask="url(#mask6_99_1017)">
<path d="M172.392 547.709L161.693 547.992L164.408 507.455C164.551 505.323 164.701 503.335 164.856 501.491C165.018 499.616 165.215 497.453 165.449 494.994H165.239C155.861 507.286 137.973 531.204 137.973 531.204H133.727C133.47 531.204 118.602 507.029 111.491 494.932H111.281C111.263 496.23 111.203 497.929 111.096 500.024C110.994 502.081 110.845 504.577 110.647 507.499L107.944 547.929L96.7002 547.709L101.897 470.035H113.392L136.466 509.7C136.466 509.7 163.445 474.776 166.716 470.035H177.589L172.392 547.709Z" fill="#000080"/>
</g>
<path d="M228.485 521.569H189.912C189.448 528.422 190.672 533.44 193.59 536.609C196.545 539.748 200.199 541.32 204.547 541.32C207.821 541.32 210.746 540.543 213.32 538.99C215.931 537.405 218.162 535.062 220.007 531.961L226.749 535.639C224.602 539.604 221.551 542.836 217.589 545.323C213.664 547.778 208.955 549 203.455 549C196.358 549 190.69 546.569 186.463 541.696C182.266 536.829 180.488 529.669 181.127 520.216C181.694 511.816 184.461 504.85 189.43 499.331C194.398 493.775 200.465 491 207.634 491C214.906 491 220.393 493.293 224.084 497.872C227.78 502.42 229.348 508.765 228.799 516.915L228.485 521.569ZM220.218 514.159C220.538 509.36 219.525 505.589 217.167 502.852C214.816 500.071 211.415 498.686 206.959 498.686C202.641 498.686 199.011 500.164 196.063 503.121C193.15 506.078 191.281 509.755 190.461 514.159H220.218ZM262.741 500.634C261.933 500.233 261.047 499.908 260.088 499.657C259.165 499.407 258.116 499.281 256.934 499.281C253.105 499.281 249.861 501.173 247.202 504.963C244.579 508.746 243.072 513.582 242.674 519.458L240.768 547.703H232.206L235.95 492.297H244.513L243.825 502.42H244.036C245.49 498.956 247.534 496.249 250.169 494.301C252.81 492.315 255.674 491.326 258.774 491.326C260.203 491.326 261.481 491.451 262.609 491.702C263.742 491.921 265.02 492.391 266.431 493.111L262.741 500.634ZM302.418 547.703H293.861L294.356 540.343H294.145C292.149 543.124 289.707 545.267 286.825 546.782C283.972 548.261 280.879 549 277.539 549C272.214 549 268.138 547.522 265.31 544.565C262.518 541.608 261.27 537.912 261.571 533.471C261.921 528.278 263.76 524.257 267.083 521.406C270.411 518.525 274.916 516.739 280.602 516.05L296.123 514.215L296.358 510.695C296.629 506.692 295.821 503.697 293.94 501.712C292.095 499.695 289.429 498.686 285.95 498.686C282.64 498.686 279.86 499.457 277.599 501.01C275.338 502.526 273.541 504.656 272.208 507.393L264.954 504.205C266.98 500.02 269.881 496.769 273.655 494.464C277.466 492.153 281.892 491 286.939 491C293.168 491 297.817 492.729 300.886 496.193C303.998 499.62 305.342 504.437 304.926 510.638L302.418 547.703ZM295.381 525.196L295.634 521.406L280.692 523.141C277.364 523.536 274.861 524.526 273.185 526.117C271.515 527.664 270.592 529.738 270.417 532.337C270.224 535.187 270.972 537.48 272.666 539.209C274.361 540.907 276.67 541.752 279.595 541.752C283.978 541.752 287.614 540.199 290.503 537.098C293.427 533.96 295.055 529.994 295.381 525.196Z" fill="#000080"/>
<mask id="mask7_99_1017" style="mask-type:luminance" maskUnits="userSpaceOnUse" x="304" y="490" width="194" height="86">
<path d="M304.057 490.248H497.455V575.146H304.057V490.248Z" fill="white"/>
</mask>
<g mask="url(#mask7_99_1017)">
<path d="M308.011 537.306L305.577 538.404L308.119 527.649L317.808 532.697L315.481 534.001C316.468 536.748 317.957 538.736 319.949 539.965C321.97 541.188 324.5 541.803 327.538 541.803C330.439 541.803 332.885 541.044 334.889 539.526C336.922 538.015 338.034 535.826 338.226 532.973C338.369 530.809 337.652 528.947 336.061 527.398C334.512 525.805 331.97 524.595 328.435 523.767C321.845 522.212 317.431 520.086 315.194 517.377C312.993 514.668 312.018 511.469 312.264 507.788C312.61 502.589 314.608 498.563 318.25 495.71C321.928 492.857 326.181 491.427 331.013 491.427C334.913 491.427 338.375 492.28 341.408 493.973C344.47 495.672 346.659 498.287 347.974 501.831L350.044 501.047L347.071 509.996L339.069 506.126L340.81 505.186C339.912 503.129 338.633 501.611 336.97 500.639C335.313 499.629 333.088 499.122 330.289 499.122C327.598 499.122 325.296 499.805 323.37 501.178C321.45 502.552 320.409 504.446 320.248 506.866C320.092 509.143 320.72 510.892 322.12 512.122C323.525 513.313 326.402 514.429 330.75 515.477C336.426 516.812 340.516 518.876 343.022 521.654C345.528 524.4 346.635 527.994 346.336 532.434C345.977 537.852 343.902 542.06 340.11 545.051C336.354 548.017 331.994 549.497 327.024 549.497C321.881 549.497 317.742 548.394 314.614 546.192C311.516 543.954 309.315 540.994 308.011 537.306ZM399.845 492.731L369.194 561.576C367.244 565.909 364.84 569.101 361.975 571.164C359.111 573.259 355.845 574.306 352.185 574.306C350.361 574.306 348.728 574.124 347.305 573.76C345.875 573.434 344.446 572.876 343.016 572.086L346.808 564.987C347.807 565.526 348.782 565.928 349.727 566.179C350.708 566.467 351.736 566.611 352.807 566.611C354.529 566.611 356.048 566.141 357.352 565.207C358.692 564.303 360.026 562.441 361.353 559.625L366.784 548.086L349.781 492.731H359.2L370.45 532.76C370.725 533.769 370.928 534.597 371.06 535.249C371.192 535.864 371.359 536.729 371.556 537.852H371.867C372.149 536.729 372.418 535.845 372.669 535.193C372.95 534.547 373.297 533.769 373.703 532.866L391.042 492.731H399.845ZM442.679 548.193H434.192L436.393 515.263C436.758 509.808 436.029 505.763 434.204 503.129C432.38 500.457 429.486 499.122 425.514 499.122C421.029 499.122 417.273 500.783 414.259 504.107C411.274 507.393 409.618 511.545 409.283 516.561L407.166 548.193H398.673L402.387 492.731H410.88L410.347 500.639H410.557C412.764 497.566 415.365 495.277 418.367 493.76C421.37 492.204 424.773 491.427 428.565 491.427C434.366 491.427 438.666 493.396 441.477 497.334C444.288 501.235 445.448 506.885 444.952 514.285L442.679 548.193ZM494.915 539.852C492.343 543.176 489.317 545.616 485.83 547.165C482.349 548.682 478.671 549.441 474.808 549.441C466.213 549.441 459.688 546.857 455.239 541.696C450.819 536.535 448.893 529.687 449.467 521.164C450.083 511.959 453.038 504.703 458.325 499.391C463.618 494.086 470.196 491.427 478.067 491.427C482.176 491.427 485.902 492.242 489.245 493.866C492.588 495.453 495.327 497.874 497.456 501.128L490.812 506.001C488.844 503.398 486.775 501.611 484.598 500.639C482.457 499.629 480.005 499.122 477.242 499.122C472.098 499.122 467.738 501.109 464.162 505.079C460.615 509.017 458.636 514.16 458.205 520.519C457.774 526.946 459.09 532.089 462.146 535.952C465.232 539.815 469.694 541.753 475.525 541.753C477.804 541.753 480.118 541.263 482.463 540.285C484.843 539.275 486.996 537.507 488.922 534.98L494.915 539.852Z" fill="#0A0A0D" fill-opacity="0.812"/>
</g>
</g>
<rect x="0.5" y="0.5" width="599" height="599" stroke="black"/>
<defs>
<clipPath id="clip0_99_1017">
<rect width="600" height="600" fill="white"/>
</clipPath>
</defs>
</svg>
