<svg width="600" height="600" viewBox="0 0 600 600" fill="none" xmlns="http://www.w3.org/2000/svg">
<path opacity="0.999" fill-rule="evenodd" clip-rule="evenodd" d="M52.1998 0.599902C217.001 0.399903 381.8 0.599903 546.6 1.1999C573.6 7.39991 590.199 23.9999 596.4 50.9999C597.2 216.6 597.2 382.2 596.4 547.8C590.199 574.8 573.6 591.4 546.6 597.6C381.8 598.4 216.999 598.4 52.1998 597.6C25.1998 591.4 8.59981 574.8 2.39981 547.8C1.5998 382.2 1.5998 216.6 2.39981 50.9999C8.81718 23.9832 25.4171 7.18323 52.1998 0.599902Z" fill="#5271FF"/>
<path fill-rule="evenodd" clip-rule="evenodd" d="M501 215.4C485.799 215.4 470.6 215.4 455.4 215.4C455.4 221.4 455.4 227.4 455.4 233.4C471.399 233.4 487.4 233.4 503.4 233.4C505.335 233.933 506.736 235.133 507.6 237C508.4 282.6 508.4 328.2 507.6 373.8C506.143 375.659 504.343 377.058 502.2 378C490.607 378.6 479.006 378.799 467.4 378.6C457.874 417.484 433.075 434.484 393 429.6C367.446 421.912 352.245 404.911 347.4 378.6C324.2 378.6 300.999 378.6 277.8 378.6C272.815 408.584 255.215 425.984 225 430.8C199.021 432.511 179.221 422.311 165.6 400.2C152.137 372.782 155.937 348.182 177 326.4C167.447 308.695 158.047 290.894 148.8 273C130.62 266.406 112.42 259.806 94.1998 253.2C88.9286 246.676 90.1286 241.476 97.7998 237.6C115.331 226.068 132.531 214.068 149.4 201.6C210.999 201.2 272.6 200.8 334.2 200.4C343.037 191.162 352.236 182.363 361.8 174C408.999 173.2 456.2 173.2 503.4 174C505.599 174.6 507 176 507.6 178.2C508.4 189.4 508.4 200.6 507.6 211.8C505.814 213.792 503.615 214.992 501 215.4Z" fill="#FCFCFF"/>
<path fill-rule="evenodd" clip-rule="evenodd" d="M366.6 189C408.6 189 450.6 189 492.6 189C492.6 192.6 492.6 196.2 492.6 199.8C466.392 199.403 440.392 199.804 414.6 201C400.406 205.38 388.606 213.38 379.2 225C361.591 255.414 344.59 286.214 328.2 317.4C326.732 318.737 325.132 318.937 323.4 318C253.89 293.363 184.29 268.963 114.6 244.8C128.199 235.2 141.8 225.6 155.4 216C216.6 215.6 277.8 215.2 339 214.8C348.405 206.394 357.604 197.794 366.6 189Z" fill="#5371FF"/>
<path fill-rule="evenodd" clip-rule="evenodd" d="M366.6 189C408.795 187.802 451.195 187.402 493.8 187.8C493.8 192.2 493.8 196.6 493.8 201C467.4 201 441 201 414.6 201C440.392 199.804 466.392 199.403 492.6 199.8C492.6 196.2 492.6 192.6 492.6 189C450.6 189 408.6 189 366.6 189Z" fill="#8FA2FF"/>
<path fill-rule="evenodd" clip-rule="evenodd" d="M501 215.4C486.414 216.594 471.614 216.995 456.6 216.6C456.6 221.8 456.6 227 456.6 232.2C472.413 231.805 488.013 232.206 503.4 233.4C487.401 233.4 471.4 233.4 455.4 233.4C455.4 227.4 455.4 221.4 455.4 215.4C470.601 215.4 485.8 215.4 501 215.4Z" fill="#8DA0FF"/>
<path fill-rule="evenodd" clip-rule="evenodd" d="M441 232.2C425.188 232.595 409.588 232.194 394.2 231C400.318 224.533 407.518 219.533 415.8 216C424.191 215.4 432.591 215.201 441 215.4C441 221 441 226.6 441 232.2Z" fill="#5573FF"/>
<path fill-rule="evenodd" clip-rule="evenodd" d="M394.2 231C409.588 232.194 425.188 232.595 441 232.2C425.192 233.79 409.193 233.79 393 232.2C393.149 231.472 393.548 231.072 394.2 231Z" fill="#A9B8FF"/>
<path fill-rule="evenodd" clip-rule="evenodd" d="M441 262.2C419.191 262.596 397.591 262.196 376.2 261C378.168 257.064 380.169 253.063 382.2 249C401.784 247.801 421.384 247.4 441 247.8C441 252.6 441 257.4 441 262.2Z" fill="#5271FF"/>
<path fill-rule="evenodd" clip-rule="evenodd" d="M376.2 261C397.591 262.196 419.191 262.596 441 262.2C419.195 263.792 397.195 263.792 375 262.2C375.149 261.472 375.548 261.072 376.2 261Z" fill="#A8B7FF"/>
<path fill-rule="evenodd" clip-rule="evenodd" d="M456.6 247.8C456.6 252.6 456.6 257.4 456.6 262.2C468.6 262.2 480.6 262.2 492.6 262.2C492.6 257.4 492.6 252.6 492.6 247.8C493.782 252.761 494.181 257.962 493.8 263.4C480.999 263.4 468.2 263.4 455.4 263.4C455.018 257.962 455.418 252.761 456.6 247.8Z" fill="#9FAFFF"/>
<path fill-rule="evenodd" clip-rule="evenodd" d="M456.6 247.8C468.6 247.8 480.6 247.8 492.6 247.8C492.6 252.6 492.6 257.4 492.6 262.2C480.6 262.2 468.6 262.2 456.6 262.2C456.6 257.4 456.6 252.6 456.6 247.8Z" fill="#5271FF"/>
<path fill-rule="evenodd" clip-rule="evenodd" d="M366.6 277.8C408.999 277.8 451.4 277.8 493.8 277.8C493.8 306.2 493.8 334.6 493.8 363C484.964 363.397 476.163 362.996 467.4 361.8C460.098 329.14 439.698 311.94 406.2 310.2C372.954 312.648 353.353 330.248 347.4 363C324.585 363.4 301.785 363 279 361.8C273.027 334.826 256.627 317.826 229.8 310.8C221.799 310 213.8 310 205.8 310.8C199.916 311.843 194.516 314.042 189.6 317.4C182.543 305.488 175.943 293.287 169.8 280.8C223.04 299.102 276.44 317.303 330 335.4C333.2 335.8 335.6 334.6 337.2 331.8C347.015 313.768 356.815 295.768 366.6 277.8Z" fill="#5372FF"/>
<path fill-rule="evenodd" clip-rule="evenodd" d="M208.2 325.8C244.586 323.195 263.186 339.995 264 376.2C256.811 405.31 238.211 418.309 208.2 415.2C181.402 406.225 170.002 387.625 174 359.4C178.964 341.435 190.364 330.235 208.2 325.8Z" fill="#5572FF"/>
<path fill-rule="evenodd" clip-rule="evenodd" d="M396.6 325.8C415.505 322.967 431.306 328.566 444 342.6C458.117 366.412 455.117 387.812 435 406.8C412.256 420.529 391.256 418.328 372 400.2C360.33 383.573 358.731 365.972 367.2 347.4C374.254 336.2 384.054 329 396.6 325.8Z" fill="#5572FF"/>
<path fill-rule="evenodd" clip-rule="evenodd" d="M210.6 343.8C234.421 341.827 245.821 352.627 244.8 376.2C239.581 392.118 228.58 399.118 211.8 397.2C193.185 388.555 187.785 374.755 195.6 355.8C199.786 350.594 204.787 346.595 210.6 343.8Z" fill="#FBFBFF"/>
<path fill-rule="evenodd" clip-rule="evenodd" d="M399 343.8C425.569 342.563 436.569 354.962 432 381C420.223 399.976 405.422 402.775 387.6 389.4C375.604 370.031 379.405 354.83 399 343.8Z" fill="#FCFCFF"/>
<path fill-rule="evenodd" clip-rule="evenodd" d="M214.2 358.2C227.011 357.994 232.011 363.994 229.2 376.2C225.723 381.786 220.724 383.586 214.2 381.6C207.57 378.097 205.37 372.697 207.6 365.4C209.232 362.372 211.431 359.972 214.2 358.2Z" fill="#5774FF"/>
<path fill-rule="evenodd" clip-rule="evenodd" d="M402.6 358.2C417.138 358.512 421.737 365.312 416.4 378.6C409.669 383.659 403.269 383.26 397.2 377.4C393.57 369.29 395.37 362.891 402.6 358.2Z" fill="#5774FF"/>
</svg>
