<svg width="600" height="600" viewBox="0 0 600 600" fill="none" xmlns="http://www.w3.org/2000/svg">
<g clip-path="url(#clip0_99_69)">
<rect width="600" height="600" rx="50" fill="white"/>
<circle cx="297.693" cy="303.463" r="259.615" fill="white"/>
<g clip-path="url(#clip1_99_69)">
<path fill-rule="evenodd" clip-rule="evenodd" d="M271.801 74.4377C270.316 74.7112 265.859 75.2151 261.898 75.5705C257.941 75.9182 253.078 76.719 251.102 77.3401C249.121 77.9612 245.105 78.9182 242.176 79.4573C239.25 80.0002 236.145 80.8127 235.277 81.258C234.41 81.7033 231.676 82.6643 229.199 83.3948C226.727 84.1291 224.426 84.9494 224.086 85.2229C223.75 85.4963 221.59 86.2424 219.285 86.883C215.543 87.9221 209.891 90.469 193.199 98.6369C188.707 100.832 175.992 108.766 169.684 113.305C164.297 117.184 159.137 121.164 155.176 124.5C152.824 126.481 149.82 128.899 148.5 129.871C143.25 133.75 131.086 146.969 123.098 157.485C121.336 159.805 119.012 162.645 117.934 163.801C116.855 164.953 114.133 168.735 111.879 172.199C109.629 175.664 106.73 180.121 105.438 182.102C103.422 185.192 100.328 191.11 91.7266 208.324C89.7695 212.242 89.1367 212.684 84.6016 213.258C82.7852 213.492 79.6797 214.184 77.6992 214.805C75.7187 215.422 73.0195 216.184 71.6992 216.496C68.6055 217.235 60.6406 220.805 57.75 222.754C56.5117 223.59 54.5547 224.571 53.3984 224.938C50.1484 225.969 39.2656 234.449 33.5 240.446C27.1797 247.02 17.9688 260.973 16.1719 266.699C15.7578 268.02 15.0781 269.641 14.6641 270.301C13.7773 271.715 11.6992 279.352 11.1523 283.199C10.9414 284.684 10.3828 286.981 9.91016 288.301C9.25781 290.129 9.04688 294.262 9.03125 305.699L9.01172 320.699L11.3711 330C12.6719 335.113 14.418 340.922 15.2539 342.899C16.0859 344.879 16.7773 346.863 16.7852 347.309C16.7969 348 19.6914 353.227 21.8516 356.469C33.1523 373.406 50.1602 387.938 63.8984 392.387C65.2187 392.817 67.875 393.953 69.7969 394.914C77.9961 399.02 105.199 399.102 108.664 395.031C111.363 391.863 111.285 394.242 111.602 308.102L111.898 226.5L113.25 224.102C113.996 222.781 115.574 219.137 116.762 216C117.949 212.863 119.805 208.817 120.883 207C121.965 205.184 123.41 202.754 124.098 201.602C124.785 200.446 126.125 198.008 127.078 196.18C128.645 193.18 135.371 183.004 138.758 178.52C146.063 168.844 149.629 164.77 158.102 156.403C171.168 143.5 185.766 132.074 195.898 126.824C198.211 125.629 201.855 123.516 204 122.133C208.066 119.516 216.969 115.266 221.102 113.973C222.422 113.559 224.441 112.723 225.59 112.114C226.742 111.5 228.137 111 228.691 111C229.246 111 231.68 109.957 234.098 108.68C236.52 107.406 239.852 106.172 241.5 105.938C243.148 105.703 246.66 104.879 249.301 104.11C253.977 102.742 256.953 102.11 271.199 99.4651C284.98 96.9065 325.668 97.7385 335.699 100.785C336.691 101.086 339.824 101.754 342.668 102.27C345.508 102.785 349.305 103.715 351.102 104.332C352.898 104.949 356.105 105.649 358.234 105.887C360.73 106.16 363.059 106.879 364.801 107.906C367.262 109.356 371.348 111.043 379.5 113.977C383.18 115.301 393.504 120.34 394.773 121.434C395.281 121.875 398.129 123.535 401.102 125.125C404.07 126.715 407.176 128.524 408 129.149C408.824 129.77 412.066 131.895 415.199 133.867C434.605 146.078 462.07 175.809 473.051 196.5C473.93 198.149 475.211 200.446 475.898 201.602C480.102 208.645 481.098 210.453 481.504 211.801C481.754 212.625 483.395 216.696 485.152 220.848L488.355 228.395L488.426 308.746C488.504 403.375 489.352 393.121 480.301 407.082C479.309 408.61 476.75 412.613 474.609 415.977C463.297 433.778 439.531 459.578 426.375 468.352C419.328 473.051 419.426 473.004 417.969 472.34C417.16 471.973 415.5 469.758 414.051 467.125C409.422 458.688 403.855 454.133 392.578 449.555L388.5 447.899H332.699L327.602 449.883C314.211 455.094 305.277 464.828 303.258 476.403C301.406 487.008 303.453 501.356 307.613 506.961C319.996 523.629 323.793 525.035 357.465 525.41C396.227 525.84 401.27 524.071 414.617 505.317C415.844 503.594 417.395 502.332 419.277 501.531C422.023 500.36 423.516 499.449 432.301 493.594C438.152 489.696 447.34 482.731 451.883 478.758C453.98 476.918 457.32 474.176 459.301 472.66C464.449 468.719 477.238 455.063 483.301 447.024C484.621 445.274 486.719 442.641 487.965 441.168C492.48 435.836 500.336 422.903 506.422 410.778C511.891 399.887 513.504 398.477 522.066 397.149C524.469 396.778 528.52 395.555 531.066 394.434C533.613 393.317 535.902 392.399 536.152 392.399C539.703 392.399 558.965 379.313 565.617 372.379C572.695 365.004 583.195 349.41 583.203 346.266C583.203 345.735 584.004 343.699 584.977 341.742C585.949 339.781 587.203 336.137 587.762 333.641C588.316 331.145 589.273 327.383 589.887 325.285C591.117 321.071 591.516 293.238 590.41 288.301C588.461 279.563 586.648 273.379 585.047 270C584.031 267.856 583.199 265.738 583.199 265.297C583.199 264.258 579.637 257.821 575.629 251.61C572.141 246.211 563.09 236.391 558.07 232.563C550.391 226.703 550.301 226.649 536.102 219.477C531.406 217.106 520.781 214.028 514.5 213.227C510.172 212.672 510.625 213.266 503.035 198.281C499.195 190.699 495.105 183.016 493.945 181.199C487.277 170.778 483.754 165.602 481.691 163.199C480.418 161.715 477.223 157.801 474.594 154.5C467.004 144.969 465.672 143.5 457.98 136.199C444.633 123.524 436.215 116.856 422.031 107.699C420.496 106.711 417.723 104.891 415.867 103.656C409.574 99.4651 385.578 88.0393 381.012 87.0588C379.324 86.6955 377.176 86.0041 376.238 85.5198C373.422 84.0666 358.816 79.3869 354 78.3987C351.523 77.8908 347.746 77.0588 345.602 76.551C343.453 76.0393 340.215 75.6135 338.398 75.6018C336.586 75.5901 332.672 75.1799 329.699 74.6916C323.719 73.7073 276.953 73.508 271.801 74.4377ZM205.801 220.196C177.414 223.848 150.109 248.84 139.426 280.934C125.754 322.016 166.371 356.227 207.316 338.117C229.664 328.235 251.762 298.461 255.047 273.809C259.363 241.438 236.246 216.274 205.801 220.196ZM376.797 221.106C338.055 231.809 332.902 279.926 366.457 317.699C377.773 330.438 390.969 339.137 402.449 341.426C404.348 341.805 406.98 342.348 408.301 342.633C417.16 344.535 432.523 341.219 441.387 335.488C450.094 329.86 456.113 322.586 460.617 312.25L463.473 305.699L463.461 297.602C463.395 256.293 412.391 211.274 376.797 221.106ZM219.973 249.496C229.004 254.16 231.891 265.41 226.023 273.098C217.223 284.637 197.852 278.281 197.785 263.832C197.734 252.262 209.988 244.344 219.973 249.496ZM393.039 249.641C397.953 252.102 401.965 258.485 401.988 263.871C402.047 277.942 384.406 284.27 374.824 273.613C363.836 261.387 378.355 242.281 393.039 249.641ZM292.145 307.821C267.012 310.758 252.871 320.926 257.758 332.535C268.191 357.324 294.488 370.18 314.734 360.391C328.09 353.934 343.715 336.336 343.793 327.664C343.887 316.711 314.078 305.258 292.145 307.821ZM384.379 472.496C392.574 475.918 397.359 486.387 393.883 493.281C389.523 501.946 387.699 502.469 361.262 502.676L338.824 502.856L335.688 501.321C322.598 494.914 323.199 478.383 336.742 472.5C339.699 471.215 381.305 471.211 384.379 472.496Z" fill="#080808"/>
<path fill-rule="evenodd" clip-rule="evenodd" d="M0 300V600H600V0H0V300ZM329.699 74.6914C332.672 75.1797 336.586 75.5898 338.398 75.6016C340.215 75.6133 343.453 76.0391 345.602 76.5508C347.746 77.0586 351.523 77.8906 354 78.3984C358.816 79.3867 373.422 84.0664 376.238 85.5195C377.176 86.0039 379.324 86.6953 381.012 87.0586C385.578 88.0391 409.574 99.4648 415.867 103.656C417.723 104.891 420.496 106.711 422.031 107.699C436.215 116.855 444.633 123.523 457.98 136.199C465.672 143.5 467.004 144.969 474.594 154.5C477.223 157.801 480.418 161.715 481.691 163.199C483.754 165.602 487.277 170.777 493.945 181.199C495.105 183.016 499.195 190.699 503.035 198.281C510.625 213.266 510.172 212.672 514.5 213.227C520.781 214.027 531.406 217.105 536.102 219.477C550.301 226.648 550.391 226.703 558.07 232.562C563.09 236.391 572.141 246.211 575.629 251.609C579.637 257.82 583.199 264.258 583.199 265.297C583.199 265.738 584.031 267.855 585.047 270C586.648 273.379 588.461 279.562 590.41 288.301C591.516 293.238 591.117 321.07 589.887 325.285C589.273 327.383 588.316 331.145 587.762 333.641C587.203 336.137 585.949 339.781 584.977 341.742C584.004 343.699 583.203 345.734 583.203 346.266C583.195 349.41 572.695 365.004 565.617 372.379C558.965 379.313 539.703 392.398 536.152 392.398C535.902 392.398 533.613 393.316 531.066 394.434C528.52 395.555 524.469 396.777 522.066 397.148C513.504 398.477 511.891 399.887 506.422 410.777C500.336 422.902 492.48 435.836 487.965 441.168C486.719 442.641 484.621 445.273 483.301 447.023C477.238 455.062 464.449 468.719 459.301 472.66C457.32 474.176 453.98 476.918 451.883 478.758C447.34 482.73 438.152 489.695 432.301 493.594C423.516 499.449 422.023 500.359 419.277 501.531C417.395 502.332 415.844 503.594 414.617 505.316C401.27 524.07 396.227 525.84 357.465 525.41C323.793 525.035 319.996 523.629 307.613 506.961C303.453 501.355 301.406 487.008 303.258 476.402C305.277 464.828 314.211 455.094 327.602 449.883L332.699 447.898H388.5L392.578 449.555C403.855 454.133 409.422 458.688 414.051 467.125C415.5 469.758 417.16 471.973 417.969 472.34C419.426 473.004 419.328 473.051 426.375 468.352C439.531 459.578 463.297 433.777 474.609 415.977C476.75 412.613 479.309 408.609 480.301 407.082C489.352 393.121 488.504 403.375 488.426 308.746L488.355 228.395L485.152 220.848C483.395 216.695 481.754 212.625 481.504 211.801C481.098 210.453 480.102 208.645 475.898 201.602C475.211 200.445 473.93 198.148 473.051 196.5C462.07 175.809 434.605 146.078 415.199 133.867C412.066 131.895 408.824 129.77 408 129.148C407.176 128.523 404.07 126.715 401.102 125.125C398.129 123.535 395.281 121.875 394.773 121.434C393.504 120.34 383.18 115.301 379.5 113.977C371.348 111.043 367.262 109.355 364.801 107.906C363.059 106.879 360.73 106.16 358.234 105.887C356.105 105.648 352.898 104.949 351.102 104.332C349.305 103.715 345.508 102.785 342.668 102.27C339.824 101.754 336.691 101.086 335.699 100.785C325.668 97.7383 284.98 96.9062 271.199 99.4648C256.953 102.109 253.977 102.742 249.301 104.109C246.66 104.879 243.148 105.703 241.5 105.938C239.852 106.172 236.52 107.406 234.098 108.68C231.68 109.957 229.246 111 228.691 111C228.137 111 226.742 111.5 225.59 112.113C224.441 112.723 222.422 113.559 221.102 113.973C216.969 115.266 208.066 119.516 204 122.133C201.855 123.516 198.211 125.629 195.898 126.824C185.766 132.074 171.168 143.5 158.102 156.402C149.629 164.77 146.063 168.844 138.758 178.52C135.371 183.004 128.645 193.18 127.078 196.18C126.125 198.008 124.785 200.445 124.098 201.602C123.41 202.754 121.965 205.184 120.883 207C119.805 208.816 117.949 212.863 116.762 216C115.574 219.137 113.996 222.781 113.25 224.102L111.898 226.5L111.602 308.102C111.285 394.242 111.363 391.863 108.664 395.031C105.199 399.102 77.9961 399.02 69.7969 394.914C67.875 393.953 65.2187 392.816 63.8984 392.387C50.1602 387.937 33.1523 373.406 21.8516 356.469C19.6914 353.227 16.7969 348 16.7852 347.309C16.7773 346.863 16.0859 344.879 15.2539 342.898C14.418 340.922 12.6719 335.113 11.3711 330L9.01172 320.699L9.03125 305.699C9.04688 294.262 9.25781 290.129 9.91016 288.301C10.3828 286.98 10.9414 284.684 11.1523 283.199C11.6992 279.352 13.7773 271.715 14.6641 270.301C15.0781 269.641 15.7578 268.02 16.1719 266.699C17.9688 260.973 27.1797 247.02 33.5 240.445C39.2656 234.449 50.1484 225.969 53.3984 224.938C54.5547 224.57 56.5117 223.59 57.75 222.754C60.6406 220.805 68.6055 217.234 71.6992 216.496C73.0195 216.184 75.7187 215.422 77.6992 214.805C79.6797 214.184 82.7852 213.492 84.6016 213.258C89.1367 212.684 89.7695 212.242 91.7266 208.324C100.328 191.109 103.422 185.191 105.438 182.102C106.73 180.121 109.629 175.664 111.879 172.199C114.133 168.734 116.855 164.953 117.934 163.801C119.012 162.645 121.336 159.805 123.098 157.484C131.086 146.969 143.25 133.75 148.5 129.871C149.82 128.898 152.824 126.48 155.176 124.5C159.137 121.164 164.297 117.184 169.684 113.305C175.992 108.766 188.707 100.832 193.199 98.6367C209.891 90.4688 215.543 87.9219 219.285 86.8828C221.59 86.2422 223.75 85.4961 224.086 85.2227C224.426 84.9492 226.727 84.1289 229.199 83.3945C231.676 82.6641 234.41 81.7031 235.277 81.2578C236.145 80.8125 239.25 80 242.176 79.457C245.105 78.918 249.121 77.9609 251.102 77.3398C253.078 76.7187 257.941 75.918 261.898 75.5703C265.859 75.2148 270.316 74.7109 271.801 74.4375C276.953 73.5078 323.719 73.707 329.699 74.6914ZM223.801 221.445C253.66 229.949 264.215 263.48 247.559 296.945C238.965 314.219 221.914 331.664 207.316 338.117C166.371 356.227 125.754 322.016 139.426 280.934C152.855 240.59 192.609 212.559 223.801 221.445ZM399 221.172C433.641 230.605 463.41 265.898 463.461 297.602L463.473 305.699L460.617 312.25C456.113 322.586 450.094 329.859 441.387 335.488C432.523 341.219 417.16 344.535 408.301 342.633C406.98 342.348 404.348 341.805 402.449 341.426C379.398 336.828 352.473 307.684 345.762 280.062C344.105 273.246 344.273 257.465 346.07 251.215C352.688 228.184 376.051 214.926 399 221.172ZM209.699 248.328C199.809 250.926 194.504 262.816 199.574 271.035C208.438 285.395 230.703 278.879 229.016 262.418C228.062 253.117 218.375 246.051 209.699 248.328ZM383.699 248.402C380.523 248.895 378.176 250.207 375.484 253C363.219 265.719 377.664 285.066 393.512 277.148C409.195 269.312 401.133 245.695 383.699 248.402ZM308.102 308.094C328.996 311.527 343.863 319.68 343.793 327.664C343.758 331.52 337.598 341.609 331.242 348.223C310.887 369.391 287.324 369.293 268.191 347.953C249.477 327.078 252.648 317.766 281.062 310.184C292.312 307.184 299.285 306.645 308.102 308.094ZM336.742 472.5C323.199 478.383 322.598 494.914 335.688 501.32L338.824 502.855L361.262 502.676C387.699 502.469 389.523 501.945 393.883 493.281C397.359 486.387 392.574 475.918 384.379 472.496C381.305 471.211 339.699 471.215 336.742 472.5Z" fill="#FBFBFB"/>
</g>
</g>
<rect x="0.5" y="0.5" width="599" height="599" stroke="black"/>
<defs>
<clipPath id="clip0_99_69">
<rect width="600" height="600" fill="white"/>
</clipPath>
<clipPath id="clip1_99_69">
<rect width="600" height="600" fill="white"/>
</clipPath>
</defs>
</svg>
