<svg width="600" height="600" viewBox="0 0 600 600" fill="none" xmlns="http://www.w3.org/2000/svg">
<path d="M526.331 2.49609H71.986C33.2424 2.49609 1.83447 33.904 1.83447 72.6476V528.427C1.83447 567.171 33.2424 598.578 71.986 598.578H526.331C565.074 598.578 596.482 567.171 596.482 528.427V72.6476C596.482 33.904 565.074 2.49609 526.331 2.49609Z" fill="#F9F9F9"/>
<path d="M194.509 445.071C169.104 441.222 146.325 418.605 138.608 389.567C135.912 379.419 135.508 375.709 135.562 361.542C135.65 338.696 138.471 320.307 144.667 302.201C149.116 289.2 154.176 279.139 166.623 258.549C176.933 241.494 179.929 233.828 180.493 223.059C181.143 210.668 177.141 198.393 169.484 189.291C161.859 180.226 150.588 178.443 140.828 176.027C137.715 175.256 135.136 172.439 135.127 166.934C134.917 161.046 138.468 158.168 140.933 158.048C157.051 157.263 169.839 164.288 180.086 176.506C195.217 194.548 199.788 220.975 191.748 243.932C189.466 250.446 185.552 258.018 177.943 270.637C163.441 294.684 158.875 305.001 154.682 323.183C151.807 335.655 150.755 345.61 150.693 360.943C150.646 372.651 150.763 374.701 151.736 379.224C157.542 406.197 176.68 425.587 199.457 427.573L203.9 427.96L200.285 423.822C182.472 403.431 175.918 370.88 184.308 344.459C188.57 331.036 192.621 324.273 206.564 307.302C223.529 286.653 228.517 276.623 238.418 258.63C244.86 246.923 248.385 238.386 253.566 225.682C262.523 203.72 259.108 172.839 260.5 165.884C262.049 158.15 262.907 158.042 279.629 158.045L299.374 158.048C328.92 157.732 332.827 158.366 340.259 161.331C351.733 165.91 362.031 175.345 368.667 187.358C370.363 190.429 371.751 193.181 371.751 193.475C371.751 193.783 353.826 194.009 329.395 194.009H287.038V203V211.991L288.425 212.001C291.353 212.023 297.027 213.864 300.653 215.969C305.8 218.957 311.379 225.606 313.95 231.816C317.302 239.912 317.274 239.407 317.284 291.744L317.293 338.83L313.385 339.609C305.925 341.097 296.499 345.589 290.139 350.687C288.655 351.877 287.35 352.85 287.239 352.85C287.128 352.85 287.038 345.432 287.038 336.366V319.883H279.474H271.911V345.387V370.891L268.652 376.285C265.432 381.615 258.296 394.946 258.296 395.63C258.296 395.979 270.16 405.598 270.59 405.598C270.712 405.598 272.248 402.833 274.004 399.454C288.248 372.047 305.539 356.508 321.851 356.457C334.516 356.424 344.524 367.118 346.883 383.221C348.524 394.42 346.738 401.351 340.454 408.168C336.403 412.564 330.853 416.644 318.049 424.642C306.181 432.056 296.366 438.603 291.18 442.565L287.003 445.757L242.521 445.675C218.055 445.625 196.45 445.366 194.509 445.071ZM325.956 440.132C330.859 437.034 336.834 433.091 339.232 431.369C346.996 425.794 354.186 418.207 357.35 412.249L358.732 409.646L362.664 409.916C371.79 410.544 377.516 417.419 377.54 427.775C377.548 431.497 377.308 432.856 376.143 435.676C374.549 439.534 372.106 442.35 368.752 444.195C366.53 445.416 365.666 445.463 341.749 445.61L317.041 445.759L325.956 440.132ZM332.305 261.377L332.114 238.665L330.727 233.3C329.131 227.123 326.254 220.273 323.347 215.725C322.236 213.988 321.327 212.437 321.327 212.279C321.327 212.12 333.78 211.991 349.002 211.991H376.676L376.985 213.34C377.154 214.082 377.441 216.527 377.623 218.773L377.953 222.858L380.814 225.167C386.146 229.471 390.334 235.194 392.276 240.829C392.894 242.622 393.178 244.987 393.17 248.255C393.153 254.994 391.251 259.736 386.194 265.651C376.539 276.942 361.6 282.979 341.409 283.749L332.496 284.089L332.305 261.377Z" fill="black"/>
<path d="M315.339 339.22C315.339 339.22 347.389 350.468 382.478 362.655C404.561 370.325 400.475 373.534 417.965 319.684C425.212 297.372 426.08 294.835 431.699 287.702C434.875 283.67 444.023 279.78 449.751 276.629C457.877 272.158 459.134 269.572 456.713 263.771C454.053 257.4 448.058 265.359 433.984 267.344C426.838 268.353 424.78 268.392 418.912 265.535C412.921 262.619 414.174 262.214 406.735 279.579C403.754 286.535 400.661 293.344 397.624 300.344C384.606 330.357 388.621 328.023 373.2 322.011C341.706 309.733 315.577 298.992 315.577 298.992L289.567 301.964L315.339 339.22Z" fill="black"/>
<path d="M435.064 207.722C435.064 211.496 437.637 214.555 440.812 214.555C443.986 214.555 446.56 211.496 446.56 207.722C446.56 203.949 443.986 200.89 440.812 200.89C437.637 200.89 435.064 203.949 435.064 207.722Z" fill="black"/>
<path d="M429.213 215.682C440.308 238.526 454.495 253.48 460.901 249.084C467.306 244.687 463.505 222.606 452.41 199.762C441.315 176.919 427.128 161.965 420.723 166.361C414.317 170.758 418.119 192.839 429.213 215.682Z" stroke="black" stroke-width="3.8044"/>
<path d="M431.342 196.465C415.652 215.116 407.172 235.276 412.402 241.493C417.633 247.71 434.592 237.631 450.282 218.979C465.973 200.328 474.453 180.168 469.222 173.951C463.992 167.734 447.033 177.814 431.342 196.465Z" stroke="black" stroke-width="3.8114"/>
<path d="M437.346 223.1C458.78 229.927 477.707 228.576 479.621 220.083C481.535 211.591 465.712 199.172 444.279 192.345C422.845 185.518 403.918 186.869 402.003 195.361C400.089 203.854 415.913 216.273 437.346 223.1Z" stroke="black" stroke-width="3.79029"/>
<path d="M447.826 176.572C447.826 179.513 449.832 181.898 452.307 181.898C454.782 181.898 456.788 179.513 456.788 176.572C456.788 173.63 454.782 171.245 452.307 171.245C449.832 171.245 447.826 173.63 447.826 176.572Z" fill="black"/>
<path d="M403.114 207.723C403.114 210.664 405.12 213.049 407.595 213.049C410.07 213.049 412.076 210.664 412.076 207.723C412.076 204.781 410.07 202.396 407.595 202.396C405.12 202.396 403.114 204.781 403.114 207.723Z" fill="black"/>
<path d="M456.788 248.328C456.788 251.269 458.794 253.654 461.269 253.654C463.744 253.654 465.75 251.269 465.75 248.328C465.75 245.386 463.744 243.001 461.269 243.001C458.794 243.001 456.788 245.386 456.788 248.328Z" fill="black"/>
</svg>
