<?xml version="1.0" encoding="utf-8"?>
<!-- Generator: Adobe Illustrator 27.8.0, SVG Export Plug-In . SVG Version: 6.00 Build 0)  -->
<svg version="1.1" id="AgroPred" xmlns="http://www.w3.org/2000/svg" xmlns:xlink="http://www.w3.org/1999/xlink" x="0px" y="0px"
	 viewBox="0 0 500 500" style="enable-background:new 0 0 500 500;" xml:space="preserve">
<style type="text/css">
	.st0{fill:#95C11F;}
	.st1{fill:#8A5D13;}
</style>
<g id="Logo_00000044896362565097384240000014941229553420242577_">
	<path class="st0" d="M245.04,275.43c-11.51-1.34-19.16-5.97-25.58-13.88c-11.27-13.88-12.09-29.03-5.02-45.06
		c3.09-7,7.13-13.5,10.42-20.39c3.09-6.47,5.35-13.21,6.8-20.22c0.13-0.65,0.29-1.3,0.47-1.94c1.08-3.88,3.11-7.51,6.31-10.03
		c3.55-2.8,8.2-4.19,12.68-3.96c4.49,0.24,8.87,2.16,12.01,5.39c2.94,3.02,4.56,7.02,5.38,11.1c1.92,9.63,5.69,18.59,10.54,27.14
		c4.13,7.28,7.96,14.73,9.98,22.94c4.36,17.64-4.84,36.81-20.98,44.94c-5.71,2.87-10.15,4.5-18.04,4.26
		C248.76,275.69,246.28,275.58,245.04,275.43z"/>
	<circle class="st1" cx="250" cy="232.5" r="19.74"/>
	<path d="M290.76,226.11c-2.1-8.49-6.12-16.26-10.16-23.39c-5.22-9.21-8.6-17.92-10.34-26.6c-1-4.99-2.97-9.03-5.85-12
		c-3.41-3.51-8.22-5.67-13.2-5.93c-4.99-0.26-10.06,1.32-13.89,4.34c-3.24,2.56-5.64,6.35-6.92,10.95c-0.18,0.66-0.35,1.35-0.5,2.06
		c-1.41,6.83-3.65,13.5-6.66,19.81c-1.43,3-3.04,5.99-4.6,8.88c-2.01,3.73-4.09,7.58-5.84,11.56c-3.73,8.46-5.25,16.62-4.51,24.23
		c0.78,8.01,4.07,15.65,9.78,22.68c1.13,1.39,2.35,2.7,3.65,3.91c0.58,0.61,1.22,1.17,1.9,1.66c2.21,1.6,4.93,2.54,7.86,2.54
		c0.88,0,1.73-0.08,2.57-0.25c6.19-1.2,10.89-6.66,10.89-13.2c0-1.38-0.21-2.72-0.6-3.98c-0.23-0.74-0.52-1.46-0.88-2.14
		c-0.52-1.02-1.17-1.96-1.92-2.8c-1.6-0.86-3.05-1.95-4.32-3.24c-3.19-3.24-5.16-7.68-5.16-12.58c0-9.29,7.1-16.96,16.16-17.86
		v20.97c-0.08,0.39-0.13,0.79-0.17,1.2c-0.02,0.17-0.03,0.34-0.03,0.51c0,0.06,0,0.12,0,0.18c0,0.07,0,0.13,0,0.19v0.04
		c0,0.08,0,0.15,0,0.23c0.06,3.18,1.45,6.03,3.64,8.04c1.66,1.52,3.79,2.55,6.13,2.85c0.06,0.01,0.11,0.01,0.16,0.02
		c0.42,0.05,0.85,0.07,1.28,0.07c0.82,0,1.62-0.09,2.38-0.26c0.08-0.02,0.16-0.03,0.24-0.05h0c2.35-0.57,4.42-1.88,5.94-3.67
		c0.89-1.05,1.58-2.25,2.04-3.58c0.18-0.51,0.32-1.03,0.42-1.57c0.83-2.29,1.28-4.75,1.28-7.32c0-11.27-8.7-20.54-19.74-21.45
		v-25.72h-3.58v25.72c-11.04,0.91-19.74,10.18-19.74,21.45c0,4.14,1.17,8.01,3.21,11.3c0.98,1.58,2.16,3.03,3.5,4.3
		c1.22,1.16,2.57,2.17,4.03,3.02c1.34,1.68,2.14,3.81,2.14,6.12c0,5.44-4.43,9.87-9.87,9.87c-2.14,0-4.13-0.69-5.75-1.85
		c-0.49-0.41-0.97-0.83-1.44-1.27c-1.23-1.13-2.37-2.36-3.43-3.67c-1.02-1.25-1.95-2.52-2.8-3.8c-7.81-11.79-8.45-24.72-1.97-39.41
		c1.7-3.85,3.74-7.64,5.72-11.3c1.58-2.93,3.21-5.96,4.68-9.04c3.14-6.57,5.47-13.51,6.94-20.63c0.13-0.62,0.28-1.24,0.44-1.82
		c1.08-3.87,3.05-7.02,5.69-9.11c3.16-2.49,7.34-3.79,11.48-3.57c4.09,0.22,8.04,1.99,10.82,4.85c2.4,2.47,4.05,5.9,4.91,10.21
		c1.81,9.07,5.32,18.12,10.73,27.67c3.91,6.91,7.81,14.41,9.8,22.48c4.11,16.64-4.51,35.09-20.05,42.92
		c-5.29,2.66-11.25,4.07-17.24,4.07l0,3.58c6.55,0,13.07-1.54,18.85-4.46c8.2-4.13,14.95-11.14,18.99-19.74
		C291.92,244.67,292.96,235,290.76,226.11z M267.88,231.06c0,0.03,0,0.06,0.01,0.09c0.04,0.48,0.06,0.97,0.06,1.47
		c0,2.39-0.47,4.68-1.32,6.77c-0.12,0.28-0.24,0.57-0.37,0.85c0,0,0,0,0,0c-0.4,0.85-0.87,1.67-1.39,2.44
		c-0.18,0.26-0.36,0.52-0.55,0.77c-1.34,1.23-3.13,1.98-5.09,1.98c-3.7,0-6.79-2.67-7.43-6.19v-2.73v-7.02v-14.71
		c8.43,0.84,15.15,7.53,16.06,15.93C267.86,230.81,267.87,230.94,267.88,231.06z M246.29,170.2h7.42v12.49h-7.42V170.2z
		 M220.34,131.48c-0.38-0.37-0.45-0.61-0.03-1.02c5.93-5.72,12.92-9.42,20.98-11.11c2.88-0.6,5.78-0.93,8.73-0.89
		c10.6,0.1,19.94,3.56,27.99,10.47c0.6,0.52,1.15,1.1,1.74,1.63c0.31,0.28,0.3,0.51,0,0.8c-0.94,0.92-1.88,1.85-2.79,2.8
		c-0.34,0.36-0.59,0.31-0.92-0.01c-2.07-1.98-4.32-3.73-6.78-5.2c-4.61-2.76-9.58-4.43-14.91-5.05c-6.59-0.77-12.93,0.16-19.03,2.71
		c-4.21,1.76-7.97,4.25-11.25,7.43c-0.48,0.46-0.76,0.46-1.2-0.02C222.06,133.14,221.2,132.3,220.34,131.48z M267.13,142.91
		c-3.74-3.57-8.19-5.78-13.3-6.51c-7.89-1.13-14.85,0.97-20.79,6.32c-0.76,0.69-0.75,0.71-1.46,0c-0.81-0.81-1.59-1.64-2.43-2.42
		c-0.45-0.42-0.39-0.68,0.02-1.07c3.68-3.48,7.96-5.9,12.84-7.25c1.22-0.34,2.46-0.6,3.72-0.77c1.45-0.2,2.91-0.3,4.75-0.32
		c7.44,0.18,14.28,2.79,20.05,8.11c0.81,0.75,0.8,0.76,0.04,1.52c-0.79,0.79-1.6,1.56-2.36,2.38
		C267.83,143.3,267.56,143.32,267.13,142.91z M262.11,148.07c0.14,0.13,0.32,0.24,0.33,0.51c-0.07,0.09-0.15,0.22-0.25,0.32
		c-0.94,0.95-1.91,1.89-2.84,2.85c-0.37,0.38-0.6,0.21-0.93-0.06c-4.14-3.47-8.72-4.14-13.69-2.09c-1.2,0.5-2.26,1.24-3.22,2.12
		c-0.35,0.32-0.59,0.33-0.93-0.01c-0.9-0.93-1.81-1.84-2.74-2.74c-0.4-0.38-0.32-0.6,0.05-0.95
		C244.67,141.7,255.42,141.71,262.11,148.07z"/>
	<path class="st0" d="M83.27,303.57l-23.39,61.24h10.75l6.09-15.78h24.63l6.09,15.78h10.65l-23.2-61.24H83.27z M78.32,341.03
		l10.65-28.05l10.65,28.05H78.32z M143.26,318.78c-6.97,0-12.17,1.32-15.59,3.95c-3.42,2.63-5.13,6.8-5.13,12.5
		c0,6.34,2.53,10.75,7.61,13.22c-2.22,0.76-3.9,1.92-5.04,3.47c-1.14,1.55-1.71,3.31-1.71,5.28c0,2.79,1.05,4.93,3.14,6.42
		c2.09,1.49,5.13,2.23,9.13,2.23h12.17c2.79,0,4.71,0.27,5.75,0.81c1.05,0.54,1.57,1.47,1.57,2.8c0,1.71-0.98,2.84-2.95,3.38
		c-1.97,0.54-5.36,0.81-10.17,0.81c-3.11,0-6.31-0.22-9.6-0.67c-3.3-0.44-6.15-1.08-8.56-1.9v7.99c2.28,0.76,5.09,1.36,8.42,1.81
		c3.33,0.44,6.74,0.67,10.22,0.67c7.42,0,12.98-0.98,16.69-2.95c3.71-1.97,5.56-5.13,5.56-9.51c0-3.68-1.22-6.48-3.66-8.42
		c-2.44-1.93-5.91-2.9-10.41-2.9h-12.65c-1.78,0-3.04-0.21-3.8-0.62c-0.76-0.41-1.14-1.09-1.14-2.04c0-1.33,0.73-2.42,2.19-3.28
		c1.46-0.86,3.2-1.38,5.23-1.57c2.22,0.32,4.09,0.48,5.61,0.48c5.83,0,10.22-1.35,13.17-4.04c2.95-2.69,4.42-6.51,4.42-11.46
		c0-3.74-1.17-6.66-3.52-8.75h7.61l0.29-6.75h-16.54C148.56,319.1,145.8,318.78,143.26,318.78z M154.29,334.95
		c0,3.42-0.81,5.82-2.42,7.18c-1.62,1.36-4.49,2.04-8.61,2.04c-4.06,0-6.93-0.71-8.61-2.14c-1.68-1.43-2.52-3.79-2.52-7.08
		c0-3.42,0.87-5.88,2.62-7.37c1.74-1.49,4.58-2.23,8.51-2.23c4.06,0,6.91,0.75,8.56,2.23C153.47,329.07,154.29,331.53,154.29,334.95
		z M189.48,321.16c2.98-1.14,5.93-1.93,8.84-2.38v7.89c-2.73,0.51-5.67,1.28-8.84,2.33c-3.17,1.05-5.64,2.14-7.42,3.28v32.52h-10.37
		v-45.07h9.51l0.57,5.23C183.93,323.57,186.49,322.3,189.48,321.16z M223.9,318.78c-15.66,0-23.49,7.83-23.49,23.49
		c0,15.66,7.83,23.49,23.49,23.49c15.72,0,23.58-7.83,23.58-23.49C247.48,326.62,239.62,318.78,223.9,318.78z M234.02,353.59
		c-2,2.28-5.37,3.42-10.13,3.42c-4.69,0-8.03-1.14-10.03-3.42s-3-6.05-3-11.32c0-5.2,1-8.94,3-11.22c2-2.28,5.34-3.42,10.03-3.42
		c4.75,0,8.13,1.14,10.13,3.42c2,2.28,3,6.02,3,11.22C237.02,347.53,236.02,351.3,234.02,353.59z"/>
	<path class="st1" d="M284.85,303.57h-27.29v61.24h10.37v-20.63h16.54c6.4,0,11.49-1.84,15.26-5.52c3.77-3.68,5.66-8.56,5.66-14.64
		c0-6.15-1.73-11.09-5.18-14.83C296.75,305.44,291.63,303.57,284.85,303.57z M291.79,332.81c-2.16,2.12-5.23,3.19-9.22,3.19h-14.64
		v-24.34h15.12c3.93,0,6.91,1.08,8.94,3.23c2.03,2.16,3.04,5.2,3.04,9.13C295.02,327.76,293.94,330.69,291.79,332.81z
		 M331.44,321.16c2.98-1.14,5.93-1.93,8.84-2.38v7.89c-2.73,0.51-5.67,1.28-8.84,2.33c-3.17,1.05-5.64,2.14-7.42,3.28v32.52h-10.37
		v-45.07h9.51l0.57,5.23C325.89,323.57,328.46,322.3,331.44,321.16z M366.05,318.78c-7.35,0-12.9,2.04-16.64,6.13
		c-3.74,4.09-5.61,9.84-5.61,17.26c0,7.86,2.12,13.76,6.37,17.69c4.25,3.93,10.36,5.9,18.35,5.9c6.28,0,11.41-0.89,15.4-2.66v-7.61
		c-1.84,0.7-3.95,1.27-6.32,1.71c-2.38,0.44-4.71,0.67-6.99,0.67c-5.58,0-9.67-0.84-12.27-2.52c-2.6-1.68-4.15-4.67-4.66-8.99h33
		v-8.37c0-5.83-1.78-10.49-5.33-13.98C377.81,320.53,372.71,318.78,366.05,318.78z M377.56,339.61h-23.87
		c0-4.63,0.93-7.96,2.81-9.98c1.87-2.03,5.15-3.04,9.84-3.04c3.93,0,6.78,0.84,8.56,2.52c1.77,1.68,2.66,4.14,2.66,7.37V339.61z
		 M429.76,300.72v21.97c-1.97-1.33-4.03-2.31-6.18-2.95c-2.16-0.63-4.56-0.95-7.23-0.95c-4.18,0-7.89,0.97-11.13,2.9
		c-3.23,1.93-5.77,4.77-7.61,8.51c-1.84,3.74-2.76,8.24-2.76,13.5c0,7.8,1.79,13.42,5.37,16.88c3.58,3.46,8.64,5.18,15.17,5.18
		c3.23,0,6.05-0.43,8.46-1.28c2.41-0.86,4.66-2.23,6.75-4.14l0.67,4.47h8.84v-64.09H429.76z M429.76,353.21
		c-3.11,3.17-6.97,4.75-11.6,4.75c-4.56,0-7.84-1.05-9.84-3.14s-3-5.77-3-11.03c0-5.58,1.11-9.83,3.33-12.74
		c2.22-2.92,5.51-4.37,9.89-4.37c4.5,0,8.24,1.33,11.22,3.99V353.21z"/>
</g>
</svg>
