<svg width="600" height="600" viewBox="0 0 600 600" fill="none" xmlns="http://www.w3.org/2000/svg">
<g clip-path="url(#clip0_99_1724)">
<rect width="600" height="600" rx="50" fill="#023056"/>
<circle cx="297.693" cy="303.463" r="259.615" fill="white"/>
<path d="M417.789 213.96C417.789 213.96 445.31 372.914 326.818 397.805C223.023 419.61 121.771 339.305 121.771 339.305C121.771 339.305 270.583 397.627 323.762 382.983C425.093 355.074 417.799 213.96 417.799 213.96H417.789Z" fill="#FBC53F"/>
<path d="M280.293 383.821C280.293 383.821 113.313 352.894 119.139 309.226C126.295 255.587 499.386 199 499.386 199C499.386 199 102.411 231.682 97.0491 307.766C93.5301 357.687 280.293 383.821 280.293 383.821V383.821Z" fill="#D22028"/>
<path d="M401.959 369.797V390.3C401.959 396.434 404.285 399.55 408.405 399.55C412.526 399.55 414.96 396.592 414.96 390.3V369.797H422.994V389.777C422.994 400.773 417.444 406 408.149 406C398.854 406 393.886 401.029 393.886 389.669V369.797H401.969H401.959Z" fill="#231F20"/>
<path d="M430.21 397.124C432.378 398.229 435.7 399.343 439.14 399.343C442.836 399.343 444.788 397.815 444.788 395.487C444.788 393.16 443.103 391.996 438.815 390.468C432.9 388.406 429.046 385.132 429.046 379.955C429.046 373.88 434.113 369.225 442.521 369.225C446.533 369.225 449.49 370.073 451.609 371.02L449.815 377.519C448.386 376.829 445.853 375.833 442.363 375.833C438.874 375.833 437.188 377.42 437.188 379.265C437.188 381.533 439.199 382.539 443.793 384.284C450.081 386.612 453.039 389.886 453.039 394.905C453.039 400.882 448.445 405.951 438.667 405.951C434.596 405.951 430.584 404.895 428.573 403.781L430.21 397.124V397.124Z" fill="#231F20"/>
<path d="M488.583 391.789C488.425 387.509 488.267 382.332 488.267 377.154H488.11C486.996 381.7 485.517 386.769 484.147 390.951L479.82 404.846H473.531L469.726 391.049C468.563 386.878 467.35 381.799 466.503 377.154H466.394C466.187 381.967 466.02 387.46 465.763 391.898L465.133 405.428H457.681L459.948 369.807H470.672L474.162 381.7C475.266 385.823 476.38 390.26 477.168 394.442H477.326C478.331 390.32 479.544 385.616 480.707 381.651L484.512 369.817H495.019L496.971 405.438H489.095L488.563 391.799L488.583 391.789Z" fill="#231F20"/>
<path d="M185.122 282.5H216.596V292.056H196.813V303.831H215.295V313.309H196.813V334.018H185.122V282.51V282.5Z" fill="#1D1D1B"/>
<path d="M256.004 312.233H237.059V324.462H258.222V334.018H225.378V282.51H257.157V292.066H237.068V302.766H256.014V312.243L256.004 312.233Z" fill="#1D1D1B"/>
<path d="M266.551 322.016C269.686 323.624 274.496 325.222 279.464 325.222C284.807 325.222 287.636 323.003 287.636 319.64C287.636 316.277 285.191 314.6 279.001 312.381C270.445 309.403 264.866 304.66 264.866 297.174C264.866 288.388 272.199 281.662 284.343 281.662C290.149 281.662 294.427 282.885 297.483 284.255L294.89 293.654C292.83 292.658 289.163 291.208 284.117 291.208C279.07 291.208 276.635 293.496 276.635 296.178C276.635 299.462 279.533 300.922 286.187 303.437C295.275 306.8 299.553 311.533 299.553 318.801C299.553 327.44 292.909 334.778 278.774 334.778C272.889 334.778 267.084 333.249 264.186 331.642L266.551 322.016V322.016Z" fill="#1D1D1B"/>
<path d="M315.738 334.018L303.516 282.51H315.965L319.859 303.752C321.002 309.867 322.077 316.514 322.914 321.711H323.062C323.9 316.129 325.122 309.946 326.424 303.595L330.78 282.5H343.151L347.271 304.206C348.415 310.242 349.262 315.744 350.021 321.474H350.179C350.948 315.744 352.091 309.709 353.156 303.595L357.355 282.5H369.193L355.906 334.009H343.299L338.942 311.849C337.946 306.652 337.109 301.839 336.497 295.952H336.34C335.423 301.76 334.585 306.652 333.363 311.849L328.474 334.009H315.719L315.738 334.018Z" fill="#1D1D1B"/>
<path d="M550 0H50C22.3858 0 0 22.3858 0 50V550C0 577.614 22.3858 600 50 600H550C577.614 600 600 577.614 600 550V50C600 22.3858 577.614 0 550 0Z" fill="#023056"/>
<path d="M248.207 356.846C248.497 447.614 324.329 477.698 361.136 474.69C357.015 433.43 384.282 411.844 421.188 419.921C430.802 406.694 434.134 386.316 427.677 366.182C407.491 380.123 396.883 381.985 374.479 388.389C357.925 405.271 333.012 420.181 306.815 420.703C282.074 404.736 269.182 384.251 269.14 354.289C269.122 341.456 271.457 332.748 259.997 331.342C250.443 330.17 247.268 342.795 248.207 356.846ZM406.822 423.527C385.922 423.528 368.979 442.039 368.979 464.874C368.98 487.707 385.922 506.218 406.822 506.219C427.722 506.219 444.665 487.708 444.666 464.874C444.666 442.039 427.723 423.527 406.822 423.527Z" fill="#76B0E0"/>
<path d="M216.221 191.511C194.165 191.941 171.779 199.171 152.092 214.742C171.102 233.31 181.031 271.624 134.602 296.587C132.1 313.869 148.168 338.114 159.849 345.311C167.552 325.04 175.214 312.499 190.469 295.135C199.942 257.325 204.612 249.028 227.404 226.467C263.971 222.67 287.636 243.442 297.476 259.85C308.276 277.858 314.327 270.297 317.535 268.289C320.742 266.281 319.951 256.993 317.843 252.687C299.23 214.655 258.328 190.69 216.221 191.511ZM120.673 210.164C115.512 210.164 110.402 211.171 105.634 213.127C100.866 215.084 96.5333 217.952 92.8839 221.567C89.2346 225.183 86.3398 229.475 84.3647 234.199C82.3897 238.923 81.3731 243.986 81.373 249.099C81.3729 254.213 82.3893 259.276 84.3642 264C86.3392 268.724 89.2339 273.017 92.8833 276.633C96.5327 280.248 100.865 283.117 105.633 285.073C110.401 287.03 115.512 288.037 120.673 288.037C125.834 288.037 130.944 287.03 135.712 285.073C140.48 283.116 144.812 280.248 148.461 276.632C152.111 273.016 155.005 268.724 156.98 264C158.955 259.276 159.971 254.213 159.971 249.099C159.971 238.773 155.831 228.87 148.461 221.568C141.091 214.266 131.095 210.164 120.673 210.164Z" fill="#7EA866"/>
<path d="M237.878 275.19C139.585 314.007 160.229 416.323 166.741 424.142C198.042 408.565 235.69 427.178 233.47 467.758C246.849 472.688 277.815 469.502 286.292 456.898C267.851 442.647 256.428 420.739 251.14 410.886C226.862 395.514 210.843 382.395 200.961 357.33C200.272 330.457 224.292 299.489 257.053 293.413C265.341 291.876 268.591 283.232 266.716 278.171C264.51 272.213 258.164 267.178 237.878 275.19ZM187.247 426.266C165.828 426.267 148.465 444.363 148.466 466.686C148.466 489.008 165.829 507.103 187.247 507.103C208.666 507.104 226.03 489.008 226.03 466.686C226.031 444.363 208.667 426.266 187.247 426.266Z" fill="#D57713"/>
<path d="M392.131 196.974C391.075 197.009 390.045 197.095 389.047 197.235C394.386 223.276 394.201 232.124 390.887 256.721C400.738 275.589 408.256 310.778 399.9 335.945C367.96 359.207 346.158 357.609 324.24 349.041C320.135 347.437 309.772 341.55 305.275 351.982C300.778 362.414 308.164 366.49 311.549 368.378C367.661 399.674 450.132 370.131 468.492 297.64C423.241 283.095 419.172 248.413 437.075 220.358C429.782 207.454 407.985 196.448 392.131 196.974ZM433.88 249.762C433.881 271.755 451.889 289.583 474.102 289.582C496.314 289.582 514.321 271.754 514.322 249.762C514.319 228.348 497.211 210.772 475.598 209.975C457.565 209.216 433.879 223.1 433.88 249.762Z" fill="#DDB92F"/>
<path d="M297.517 74.1544C292.695 74.1544 287.921 75.2016 283.467 77.2363C279.013 79.2711 274.965 82.2534 271.556 86.0131C268.147 89.7728 265.443 94.2362 263.598 99.1485C261.752 104.061 260.803 109.326 260.803 114.643C260.803 125.38 264.671 135.678 271.557 143.271C278.442 150.864 287.78 155.129 297.517 155.129C307.254 155.129 316.592 150.864 323.477 143.271C330.362 135.678 334.23 125.38 334.23 114.643C334.231 109.326 333.281 104.061 331.436 99.1485C329.591 94.2362 326.887 89.7728 323.477 86.0131C320.068 82.2534 316.021 79.2711 311.567 77.2363C307.112 75.2016 302.338 74.1544 297.517 74.1544ZM338.891 136.692C321.742 169.483 285.036 177.855 259.03 144.147C240.739 147.945 222.747 174.828 224.784 184.605C243.173 184.396 263.425 189.717 277.433 199.213C311.66 194.702 331.159 201.439 350.628 212.553C365.213 235.779 358.282 274.248 344.429 291.963C335.832 302.958 332.475 308.343 338.508 314.03C344.541 319.717 351.217 317.371 357.973 309.237C402.997 255.032 391.991 171.945 338.891 136.692Z" fill="#D85A70"/>
</g>
<rect x="0.5" y="0.5" width="599" height="599" stroke="black"/>
<defs>
<clipPath id="clip0_99_1724">
<rect width="600" height="600" fill="white"/>
</clipPath>
</defs>
</svg>
