<svg width="600" height="600" viewBox="0 0 600 600" fill="none" xmlns="http://www.w3.org/2000/svg">
<g clip-path="url(#clip0_99_92)">
<rect width="600" height="600" rx="50" fill="white"/>
<circle cx="297.693" cy="303.463" r="259.615" fill="white"/>
<g clip-path="url(#clip1_99_92)">
<mask id="mask0_99_92" style="mask-type:luminance" maskUnits="userSpaceOnUse" x="-2" y="0" width="600" height="600">
<path d="M598 0H-2V600H598V0Z" fill="white"/>
</mask>
<g mask="url(#mask0_99_92)">
<path d="M548 0H48C20.3858 0 -2 22.3858 -2 50V550C-2 577.614 20.3858 600 48 600H548C575.614 600 598 577.614 598 550V50C598 22.3858 575.614 0 548 0Z" fill="#073D6C"/>
<path d="M318 217H561V381H318V217Z" fill="white"/>
<path d="M561 375H566V381H561V375Z" fill="white"/>
<path d="M312.5 374.5H317.5L322 380.5H312.5V374.5Z" fill="white"/>
<path d="M315.204 370.006C313.312 370.103 311.179 370.029 309.734 371.5C306.684 374.602 307.832 382.323 311.812 384.059C316.991 386.319 325.295 384.794 330.861 384.794H375.225H510.055H549.199C554.262 384.794 561.785 386.176 566.509 384.17C570.515 382.469 571.611 374.576 568.587 371.5C567.142 370.03 565.009 370.103 563.117 370.006V255.183V226.477C563.117 223.393 564.035 218.204 561.624 215.793C558.839 213.008 551.915 214.299 548.329 214.299H512.665H370.006H329.991C326.312 214.299 318.623 212.859 316.204 216.397C314.198 219.33 315.204 224.844 315.204 228.217V257.792V370.006ZM557.898 218.648V370.006H320.423V218.648H557.898ZM329.991 229.087C339.015 229.087 347.927 228.217 356.957 228.217C363.258 228.217 369.859 229.158 376.095 228.769C379.787 228.539 383.683 228.919 387.314 228.562C388.552 228.441 390.165 227.932 390.165 226.403C390.165 222.357 378.603 223.867 376.095 223.867H340.43C336.967 223.867 330 222.561 327.136 224.867C324.181 227.248 325.642 235.281 325.642 238.655V270.84C325.642 273.369 324.483 280.241 327.05 281.831C329.286 283.215 330.322 279.147 330.559 277.786C331.418 272.868 330.178 267.933 330.536 263.012C330.855 258.646 330.847 254.339 330.766 249.963C330.638 242.987 330.086 236.042 329.991 229.087ZM548.329 229.086V275.19C548.329 278.526 547.876 282.253 548.516 285.539C548.785 286.917 549.655 288.894 551.444 288.296C555.069 287.085 553.549 277.216 553.549 274.32V236.915C553.549 232.944 554.931 225.716 549.981 224.226C546.838 223.28 542.88 223.867 539.631 223.867H519.624H454.383C446.846 223.867 439.303 223.772 431.767 223.871C430.34 223.89 425.26 223.64 425.79 226.306C426.258 228.66 430.934 228.284 432.636 228.481C439.73 229.301 447.254 229.571 454.383 228.915C485.473 226.056 517.265 228.909 548.329 229.086ZM442.205 277.799L428.287 280.409C430.718 288.325 432.54 292.563 441.335 292.587C439.563 296.989 437.65 305.123 443.163 307.74C445.53 308.864 448.386 308.391 450.904 308.245C450.93 312.116 450.836 317.235 455.317 318.754C459.245 320.085 461.974 315.625 465.691 316.552C469.247 317.438 472.289 321.635 475.26 323.681C480.761 327.471 487.565 329.28 492.63 333.703C497.838 338.25 501.296 351.353 509.185 349.999C507.013 341.444 500.867 332.447 493.526 327.508C488.842 324.356 483.395 322.539 478.739 319.332C472.366 314.941 466.897 308.832 461.839 303.025C458.518 299.213 450.403 292.734 449.984 287.414C449.563 282.077 455.945 285.432 457.863 286.942C464.555 292.214 470.952 301.972 480.479 301.095C487.313 300.467 490.483 295.52 496.307 293.202C500.033 291.719 505.243 292.585 509.185 292.587C512.218 292.589 516.596 291.916 518.675 294.685C521.454 298.385 521.605 305.552 522.854 309.984C525.642 319.877 529.177 329.554 533.921 338.69C536.67 343.988 539.391 350.515 545.72 351.738L534.693 327.382L523.973 292.587C530.807 292.587 541.469 294.552 541.307 284.758C541.284 283.343 541.121 281.833 540.37 280.597C536.778 274.679 527.588 280.075 522.659 276.799C519.482 274.687 518.515 269.695 515.707 266.979C508.197 259.713 495.635 255.751 486.568 250.586C483.292 248.72 479.269 245.579 475.269 246.169C468.284 247.199 460.574 256.34 455.253 260.573C449.066 265.494 442.395 269.202 442.205 277.799ZM516.144 277.799H463.952C467.295 274.907 473.125 269.242 477.87 269.904C480.362 270.252 482.36 272.065 484.716 272.811C485.858 273.173 488.24 273.45 488.03 271.521C487.763 269.069 484.088 267.401 482.218 266.393C473.161 261.515 465.78 272.107 457.863 275.751C455.854 276.675 447.975 279.537 447.913 274.94C447.887 273.054 449.697 271.522 450.95 270.369C454.234 267.349 457.88 264.624 461.342 261.808C465.143 258.716 470.986 251.972 476.13 251.676C479.983 251.453 484.189 254.975 487.438 256.695C497.5 262.025 511.982 266.35 516.144 277.799ZM339.56 258.662V267.361H346.519C346.519 282.742 348.083 299.046 346.431 314.331C345.869 319.524 337.879 321.299 339.208 326.337C339.893 328.934 342.552 329.042 344.789 329.109C349.704 329.257 354.65 329.146 359.567 329.122C361.524 329.112 364.262 329.444 365.902 328.122C371.7 323.453 362.996 320.48 359.567 320.424C359.567 304.983 358.203 288.843 359.646 273.475C360.121 268.412 370.741 265.593 366.395 260.157C364.753 258.103 360.997 258.667 358.697 258.663L339.56 258.662ZM391.753 258.663V267.362L398.712 268.232C393.116 281.037 388.722 294.383 383.573 307.376C381.215 313.329 379.472 319.679 372.615 321.294V329.123C379.546 329.123 389.318 330.918 395.914 328.764C398.794 327.823 399.574 323.399 397.229 321.424C395.978 320.37 394.136 320.502 392.622 320.424C392.869 317.401 393.357 313.634 395.781 311.479C399.343 308.314 408.175 309.985 412.63 309.985C416.148 309.985 421.412 309.046 423.959 312.084C429.088 318.203 422.452 319.056 419.722 322.76C418.167 324.87 419.04 327.955 421.516 328.764C426.695 330.455 434.175 329.125 439.596 329.123C441.876 329.122 444.966 329.587 447.066 328.499C449.427 327.274 449.715 323.205 447.671 321.542C446.007 320.187 443.331 320.457 441.335 320.424L436.193 305.636L424.682 276.06L417.217 259.663L409.15 258.663H391.753ZM410.02 270.84L418.311 292.587L418.932 300.286L412.63 301.285L398.712 301.286C399.77 292.182 404.066 277.881 410.02 270.84ZM443.945 281.279V287.368H434.376V283.018L442.205 281.279H443.945ZM536.151 283.018V287.368H483.089C475.828 287.368 467.237 289.211 462.212 283.018H536.151ZM340.43 364.786V360.437H330.861V333.471V316.074L330.797 296.076L327.604 291.166L325.645 296.939L325.642 314.334V350.868L327.136 363.786L340.43 364.786ZM487.438 292.587V293.457C482.027 296.384 478.052 296.361 472.65 293.457L487.438 292.587ZM446.554 293.457C447.581 294.54 448.913 295.688 449.702 296.99C453.351 303.011 443.062 305.526 445.042 297.023C445.357 295.671 445.885 294.649 446.554 293.457ZM456.993 305.636L461.342 309.985V310.855L456.123 314.335L456.993 305.636ZM548.329 360.438H509.185C507.318 360.438 496.408 359.301 497.12 362.877C497.756 366.072 506.902 364.787 509.185 364.787H540.501C543.575 364.787 549.396 365.874 551.944 363.787C554.172 361.963 553.545 357.745 553.549 355.219V333.472C553.548 330.907 554.229 326.694 552.444 324.563C551.029 322.874 549.225 324.149 548.685 325.834C547.704 328.901 548.329 332.898 548.329 336.081V345.65V360.438ZM462.212 364.787V360.438H395.232L379.587 360.474L375.338 362.877L380.447 364.774L396.102 364.787H462.212ZM565.727 375.226V379.575H312.594V375.226H565.727Z" fill="black"/>
<path d="M315.204 370.006C313.312 370.103 311.179 370.029 309.734 371.5C306.684 374.602 307.832 382.323 311.812 384.059C316.991 386.319 325.295 384.794 330.861 384.794H375.225H510.055H549.199C554.262 384.794 561.785 386.176 566.509 384.17C570.515 382.469 571.611 374.576 568.587 371.5C567.142 370.03 565.009 370.103 563.117 370.006V255.183V226.477C563.117 223.393 564.035 218.204 561.624 215.793C558.839 213.008 551.915 214.299 548.329 214.299H512.665H370.006H329.991C326.312 214.299 318.623 212.859 316.204 216.397C314.198 219.33 315.204 224.844 315.204 228.217V257.792V370.006ZM557.898 218.648V370.006H320.423V218.648H557.898ZM565.727 375.226V379.575H312.594V375.226H565.727Z" fill="black" fill-opacity="0.65"/>
<path d="M233.262 266.686C224.836 268.481 228.472 280.014 236.702 277.728C244.717 275.501 240.797 265.08 233.262 266.686ZM94.9392 266.882V272.971C101.362 273.639 101.883 277.732 101.898 283.41C96.7103 282.468 91.3562 282.021 86.2405 283.631C63.9438 290.651 69.0258 332.793 94.9392 325.305C97.9655 324.43 100.342 322.748 102.768 320.814V324.294H117.556V318.205C111.028 316.896 112.337 310.539 112.337 305.157V266.882H94.9392ZM275.873 266.882V272.971C282.13 273.853 281.958 277.961 281.962 283.409C276.973 282.503 272.124 282.2 267.174 283.567C243.71 290.052 249.53 333.288 275.873 325.17C279.052 324.19 281.312 322.157 283.702 319.944V324.293H298.49V318.204C291.162 317.431 292.4 311.022 292.4 305.156V266.882H275.873ZM21.8699 270.361V277.32H27.0891V306.026C27.0886 311.774 27.5145 316.648 21 318.204V324.293H64.4936V310.375C58.3884 309.847 55.0845 309.344 54.925 316.464H38.3975V300.807H59.2744V292.978H38.3975V279.06H54.0552V284.279H63.6238V270.361H21.8699ZM122.775 283.409V290.368C128.577 292.329 127.994 297.245 127.994 302.546C127.995 312.774 126.899 324.565 140.173 325.843C142.809 326.097 145.468 325.731 148.001 324.99C151.399 323.996 154.004 322.166 156.7 319.944V324.293H171.488V318.204H166.269V293.848L164.775 284.409L149.741 283.409V290.368C151.431 290.707 152.943 290.88 153.972 292.466C155.19 294.346 154.949 296.934 154.959 299.067C154.988 304.683 156.237 312.01 151.344 316.011C146.756 319.763 140.676 317.68 138.996 312.112C136.457 303.691 138.433 292.175 138.433 283.409H122.775ZM171.488 283.409V290.368C179.978 292.042 182.99 307.517 185.681 314.725C187.625 319.933 188.748 324.097 194.977 324.28C197.468 324.353 201.008 324.789 203.173 323.293C205.71 321.54 206.49 317.453 207.455 314.725C209.698 308.387 211.649 301.713 214.45 295.6C215.804 292.646 222.846 288.504 220.058 284.899C218.9 283.404 216.672 283.473 214.978 283.422C210.637 283.292 206.277 283.409 201.933 283.409V290.368H206.283L197.584 317.334H196.714L188.015 290.368H193.235V283.409H171.488ZM224.55 290.368C232.508 291.916 230.642 300.538 230.639 306.895C230.638 309.588 231.063 312.893 229.905 315.41C228.07 319.401 224.815 319.184 224.55 324.293H246.297V318.204H241.078V283.409C233.863 283.409 224.761 280.94 224.55 290.368ZM92.3303 289.854C102.904 287.635 101.901 296.886 101.898 304.286C101.896 309.627 102.371 316.431 95.7967 317.896C79.6788 321.488 78.9012 292.672 92.3303 289.854ZM281.962 290.368V303.416C281.962 306.245 282.27 309.317 281.702 312.105C280.471 318.158 272.242 320.154 267.566 316.481C259.997 310.538 262.714 292.162 272.396 289.902C275.54 289.168 278.828 289.959 281.962 290.368Z" fill="#E9E8E9"/>
</g>
<path d="M597.5 0.5H-1.5V599.5H597.5V0.5Z" stroke="black"/>
</g>
</g>
<rect x="0.5" y="0.5" width="599" height="599" stroke="black"/>
<defs>
<clipPath id="clip0_99_92">
<rect width="600" height="600" fill="white"/>
</clipPath>
<clipPath id="clip1_99_92">
<rect width="600" height="600" fill="white" transform="translate(-2)"/>
</clipPath>
</defs>
</svg>
