<svg width="600" height="600" viewBox="0 0 600 600" fill="none" xmlns="http://www.w3.org/2000/svg">
<g clip-path="url(#clip0_99_1647)">
<rect width="600" height="600" rx="50" fill="white"/>
<circle cx="297.693" cy="303.463" r="259.615" fill="white"/>
<path d="M300 600C465.685 600 600 465.685 600 300C600 134.315 465.685 0 300 0C134.315 0 0 134.315 0 300C0 465.685 134.315 600 300 600Z" fill="white"/>
<path d="M413.678 219.429C413.678 281.919 362.783 332.576 300 332.576C237.218 332.576 186.322 281.919 186.322 219.429C186.322 156.94 237.218 106.281 300 106.281C362.783 106.281 413.678 156.94 413.678 219.429Z" fill="#1084E9"/>
<path fill-rule="evenodd" clip-rule="evenodd" d="M300 114.277C241.66 114.277 194.359 161.351 194.359 219.429C194.359 277.506 241.66 324.581 300 324.581C358.341 324.581 405.642 277.506 405.642 219.429C405.642 161.351 358.341 114.277 300 114.277ZM178.286 219.429C178.286 152.527 232.775 98.2858 300 98.2858C367.226 98.2858 421.715 152.527 421.715 219.429C421.715 286.33 367.226 340.571 300 340.571C232.775 340.571 178.286 286.33 178.286 219.429Z" fill="white"/>
<path d="M281.975 119.028C289.724 104.596 310.52 104.596 318.269 119.028L394.2 260.441C401.521 274.075 391.591 290.553 376.053 290.553H224.192C208.653 290.553 198.723 274.075 206.044 260.441L281.975 119.028Z" fill="#FFBB00"/>
<path fill-rule="evenodd" clip-rule="evenodd" d="M274.887 115.261C285.663 95.1913 314.582 95.1913 325.358 115.261L401.289 256.674C411.47 275.634 397.661 298.548 376.053 298.548H224.192C202.584 298.548 188.775 275.634 198.955 256.674L274.887 115.261ZM311.181 122.796C306.458 114.002 293.786 114.002 289.064 122.796L213.134 264.208C208.672 272.517 214.723 282.558 224.192 282.558H376.053C385.521 282.558 391.573 272.517 387.112 264.208L311.181 122.796Z" fill="white"/>
<path d="M292.407 119.644C292.407 115.428 295.844 112.01 300.083 112.01C304.32 112.01 307.757 115.428 307.757 119.644V142.568C307.757 146.785 304.32 150.203 300.083 150.203C295.844 150.203 292.407 146.785 292.407 142.568V119.644Z" fill="white"/>
<path d="M292.407 260.005C292.407 255.789 295.844 252.37 300.083 252.37C304.32 252.37 307.757 255.789 307.757 260.005V282.928C307.757 287.145 304.32 290.564 300.083 290.564C295.844 290.564 292.407 287.145 292.407 282.928V260.005Z" fill="white"/>
<path d="M292.407 213.218C292.407 209.002 295.844 205.584 300.083 205.584C304.32 205.584 307.757 209.002 307.757 213.218V236.141C307.757 240.359 304.32 243.777 300.083 243.777C295.844 243.777 292.407 240.359 292.407 236.141V213.218Z" fill="white"/>
<path d="M292.407 166.432C292.407 162.215 295.844 158.797 300.083 158.797C304.32 158.797 307.757 162.215 307.757 166.432V189.356C307.757 193.572 304.32 196.99 300.083 196.99C295.844 196.99 292.407 193.572 292.407 189.356V166.432Z" fill="white"/>
<path d="M501.024 356.688H512.653L529.381 386.062L546.086 356.688H557.715L529.381 403.696L501.024 356.688Z" fill="black"/>
<path d="M524.281 389.013H534.457V425.748H524.281V389.013Z" fill="black"/>
<path d="M463.207 425.96V367.175H439.95V356.898H496.64V367.175H473.383V425.951L463.207 425.96Z" fill="black"/>
<path d="M423.96 425.96V356.898H434.136V425.96H423.96Z" fill="black"/>
<path d="M374.538 425.96V356.898H384.713V415.674H418.146V425.96H374.538Z" fill="black"/>
<path d="M337.471 356.898L370.177 425.96H304.765L337.471 356.898Z" fill="#FFBB00"/>
<path d="M370.177 425.96H358.207L337.471 380.922L316.641 425.96H304.765L337.471 356.898L370.177 425.96Z" fill="black"/>
<path d="M290.229 425.96V356.898H300.404V425.96H290.229Z" fill="black"/>
<path d="M220.456 356.898H232.426L253.162 401.381L273.992 356.898H285.869L253.162 425.96L220.456 356.898Z" fill="black"/>
<path d="M226.271 391.429C226.271 411.311 210.327 427.429 190.659 427.429C170.99 427.429 155.045 411.311 155.045 391.429C155.045 371.546 170.99 355.429 190.659 355.429C210.327 355.429 226.271 371.546 226.271 391.429Z" fill="#1084E9"/>
<path fill-rule="evenodd" clip-rule="evenodd" d="M190.659 417.143C204.707 417.143 216.096 405.63 216.096 391.429C216.096 377.227 204.707 365.714 190.659 365.714C176.609 365.714 165.22 377.227 165.22 391.429C165.22 405.63 176.609 417.143 190.659 417.143ZM190.659 427.429C210.327 427.429 226.271 411.311 226.271 391.429C226.271 371.546 210.327 355.429 190.659 355.429C170.99 355.429 155.045 371.546 155.045 391.429C155.045 411.311 170.99 427.429 190.659 427.429Z" fill="black"/>
<path d="M111.437 425.96V356.898H155.045V367.184H121.613V386.286H147.777V396.572H121.613V415.674H155.045V425.96H111.437Z" fill="black"/>
<path d="M79.8581 427.429C74.6924 427.429 69.9314 426.507 65.5751 424.666C61.281 422.825 57.5469 420.286 54.3731 417.048C51.2613 413.746 48.8343 409.873 47.0917 405.429C45.4114 400.921 44.5713 396.064 44.5713 390.857C44.5713 385.714 45.4426 380.984 47.1851 376.666C48.9276 372.35 51.3858 368.603 54.5597 365.429C57.7337 362.254 61.4988 359.809 65.8552 358.095C70.2115 356.318 74.9724 355.429 80.1381 355.429C84.1827 355.429 87.6684 355.809 90.593 356.571C93.5804 357.27 95.945 358.064 97.6879 358.952C99.4924 359.778 100.643 360.445 101.142 360.952L97.0341 369.905C96.5987 369.523 95.7267 368.952 94.4204 368.191C93.113 367.429 91.2776 366.73 88.913 366.095C86.6101 365.461 83.6227 365.143 79.9507 365.143C74.8479 365.143 70.4915 366.286 66.882 368.571C63.2724 370.793 60.5031 373.809 58.5738 377.619C56.6445 381.429 55.68 385.65 55.68 390.286C55.68 395.682 56.7379 400.477 58.8539 404.666C60.9698 408.793 63.8636 412.032 67.5354 414.381C71.2073 416.666 75.377 417.809 80.0444 417.809C82.721 417.809 85.4273 417.461 88.1656 416.762C90.9667 416.064 93.5176 415.12 95.4467 413.47V396.571H82.3644V386.286H105.623V417.334C103.569 420 100.332 422.35 95.9141 424.381C91.4959 426.413 86.1427 427.429 79.8581 427.429Z" fill="black"/>
</g>
<rect x="0.5" y="0.5" width="599" height="599" stroke="black"/>
<defs>
<clipPath id="clip0_99_1647">
<rect width="600" height="600" fill="white"/>
</clipPath>
</defs>
</svg>
