<?xml version="1.0" encoding="UTF-8"?>
<svg id="Capa_1" data-name="Capa 1" xmlns="http://www.w3.org/2000/svg" viewBox="0 0 687.13 529.41">
  <defs>
    <style>
      .cls-1 {
        fill: #96caee;
      }

      .cls-1, .cls-2 {
        stroke-width: 0px;
      }

      .cls-2 {
        fill: #29b8b1;
      }
    </style>
  </defs>
  <path class="cls-1" d="M639.48,384.11c-20.82,26.69-40.62,46.45-55.28,59.84,0,0-76.41,69.8-152.51,82.68-3.85.65-15.89,2.69-16.48.73-.6-2,11.08-6.94,16.5-9.58,36.18-17.58,54.33-59.04,58.28-68.04,4.18-9.54,13.52-33.54,12.75-65.62-.63-26.26-7.76-46.72-13-58.75h0c-22.41-44.75-42.98-62.24-58.04-69.76-3.94-1.97-17.39-8.18-16.6-10.72.72-2.29,12.63-.44,16.6.17,75.94,11.77,152.51,80.51,152.51,80.51,14.71,13.21,34.44,32.54,55.28,58.54h0Z"/>
  <path class="cls-1" d="M46.92,387.84c20.82-26.69,40.62-46.45,55.28-59.84,0,0,76.4-69.8,152.51-82.68,3.85-.65,15.89-2.69,16.48-.73.6,2-11.08,6.94-16.5,9.58-36.18,17.58-54.33,59.04-58.28,68.04-4.18,9.54-13.52,33.54-12.75,65.62.63,26.26,7.76,46.72,13,58.75h0c22.41,44.75,42.98,62.24,58.04,69.76,3.94,1.97,17.39,8.18,16.6,10.72-.72,2.29-12.63.44-16.6-.17-75.94-11.77-152.51-80.51-152.51-80.51-14.71-13.21-34.44-32.54-55.28-58.54h0Z"/>
  <path class="cls-2" d="M321.09,449.83h47.57v-38.47h119.96c11.39-91.58-58.84-171.08-142.6-173.02-78.97-1.83-151.61,65.7-149.36,149.49,2.21,82.34,75.71,142.33,149.36,141.57,80.69-.83,125.83-74.22,128.43-78.6h-56.85c-7.01,6.89-33.44,31.22-71.57,31.11-47.71-.15-98.19-38.52-101.23-94.09-3.16-57.6,46.17-106.07,101.23-105.19,44.9.72,85.7,34.13,96.83,81.65h-74.19v-38.37h-47.57v38.37h-38.38v47.07h38.38v38.47h0Z"/>
  <path class="cls-2" d="M263.01,181.02c0-27.66,3.17-59.76-34.95-74.04,1.4-3.44,3.09-9.02,2.43-15.7-1.45-14.63-14-32.64-33.83-32.68-18.45-.04-34.13,15.49-34,34.13.14,19.85,18.14,32.82,34,33.66,12.17.64,21.23-5.96,24.26-8.38,26.64,9.23,30.98,25.32,29.14,63.28l-203.39-.26c-7.53,0-13.47.64-13.47,12.38v36.06H0v78.26h76.34v-78.26h-29.68v-35.85l595.09-.21v36.06h-29.94v78.26h75.32v-78.26h-32.11v-36.06c0-9.7-3-12.38-13.28-12.38h-202.49c-2.91-35.89,2.86-56.26,31.11-61.93,2.94,2.47,11.5,8.98,23.06,8.59,16.3-.54,33.86-14.6,33.7-34.66-.15-18.91-15.97-34.18-34.3-34.13-19.45.05-33.51,17.35-34.04,32.68-.22,6.49,2.01,11.82,3.85,15.18-36.96,15.12-37,41.29-36.19,74.27h-74.68v-113.62c3.24-.85,10.55-3.24,16.89-9.96,1.27-1.34,9.63-10.46,9.56-22.91C378.14,18.57,364.22-.12,343.66,0c-18.73.11-34.25,15.78-34.15,34.18.09,16.39,12.56,30.92,29.62,33.67v113.17h-76.12"/>
  <path class="cls-1" d="M196.66,72.19c-10.98.05-20.36,9.02-20.43,20.17-.07,11.24,9.34,20.37,20.43,20.43,11.16.05,20.69-9.12,20.62-20.43-.07-11.22-9.56-20.22-20.62-20.17Z"/>
  <path class="cls-1" d="M344.04,13.34c-11.33-.09-20.49,9.31-20.81,20.3-.33,11.46,9.06,21.6,20.81,21.51,11.63-.09,20.81-10.16,20.49-21.51-.31-10.87-9.28-20.21-20.49-20.3Z"/>
  <path class="cls-1" d="M494.3,72.58c-11.22-.41-20.77,8.72-21.19,19.79-.45,11.69,9.43,21.82,21.19,21.38,11.2-.41,20.08-10.25,19.66-21.38-.4-10.52-9-19.39-19.66-19.79h0Z"/>
  <rect class="cls-2" x="611.81" y="229.47" width="75.32" height="78.26"/>
  <rect class="cls-2" y="229.47" width="76.34" height="78.26"/>
</svg>