<?xml version="1.0" encoding="UTF-8" standalone="no"?>
<!-- Created with Inkscape (http://www.inkscape.org/) -->

<svg
   width="512"
   height="512"
   viewBox="0 0 135.46666 135.46667"
   version="1.1"
   id="svg1"
   xml:space="preserve"
   sodipodi:docname="logo_sentialert_texto.svg"
   inkscape:version="1.3.2 (091e20e, 2023-11-25)"
   inkscape:export-filename="logo_sentialert_texto.svg"
   inkscape:export-xdpi="96"
   inkscape:export-ydpi="96"
   xmlns:inkscape="http://www.inkscape.org/namespaces/inkscape"
   xmlns:sodipodi="http://sodipodi.sourceforge.net/DTD/sodipodi-0.dtd"
   xmlns="http://www.w3.org/2000/svg"
   xmlns:svg="http://www.w3.org/2000/svg"><sodipodi:namedview
     id="namedview1"
     pagecolor="#ffffff"
     bordercolor="#000000"
     borderopacity="0.25"
     inkscape:showpageshadow="2"
     inkscape:pageopacity="0.0"
     inkscape:pagecheckerboard="0"
     inkscape:deskcolor="#d1d1d1"
     inkscape:zoom="1.1510338"
     inkscape:cx="246.30033"
     inkscape:cy="287.56758"
     inkscape:window-width="1632"
     inkscape:window-height="997"
     inkscape:window-x="54"
     inkscape:window-y="25"
     inkscape:window-maximized="0"
     inkscape:current-layer="layer6" /><defs
     id="defs1"><linearGradient
       id="swatch28"><stop
         style="stop-color:#ffffff;stop-opacity:1;"
         offset="0"
         id="stop28" /></linearGradient></defs><g
     id="layer7"
     style="display:inline"
     transform="matrix(1.003473,0,0,1.003473,2.6353134,-22.19609)"><g
       id="layer5"
       transform="translate(-16.474486,0.14976806)"
       style="display:inline"><path
         id="path17"
         style="display:inline;fill:#bbbbbb;fill-opacity:1;stroke-width:0.178459;stroke-dasharray:none;paint-order:stroke fill markers"
         d="M 32.595142,28.445276 A 65.916878,64.265022 0 0 0 15.430299,71.567708 65.916878,64.265022 0 0 0 32.003447,114.11343 64.195892,66.821281 0 0 1 17.284449,71.690698 64.195892,66.821281 0 0 1 32.595142,28.445276 Z m 99.225468,1.809192 a 64.195892,66.821281 0 0 1 13.85548,41.43623 64.195892,66.821281 0 0 1 -12.54858,39.404312 65.916878,64.265022 0 0 0 14.1366,-39.527302 65.916878,64.265022 0 0 0 -15.4435,-41.31324 z" /></g><g
       id="g19"
       transform="translate(-16.474486,0.14976806)"
       style="display:inline"><path
         id="ellipse18"
         style="display:inline;fill:#bbbbbb;fill-opacity:1;stroke-width:0.154162;stroke-dasharray:none;paint-order:stroke fill markers"
         d="M 40.865955,33.475977 A 54.299671,58.217361 0 0 0 26.7278,72.538708 54.299671,58.217361 0 0 0 40.380713,111.08106 52.881985,60.533062 0 0 1 28.254839,72.649813 52.881985,60.533062 0 0 1 40.865955,33.475977 Z m 81.860115,1.786971 a 52.881985,60.533062 0 0 1 11.29285,37.386865 52.881985,60.533062 0 0 1 -10.3358,35.694457 54.299671,58.217361 0 0 0 11.64373,-35.805562 54.299671,58.217361 0 0 0 -12.60078,-37.27576 z" /></g><g
       id="g24"
       transform="translate(-16.474486,0.14976806)"
       style="display:inline"><path
         id="ellipse23"
         style="fill:#bbbbbb;fill-opacity:1;stroke-width:0.131096;stroke-dasharray:none;paint-order:stroke fill markers"
         d="m 113.98707,37.713444 a 44.059219,52.53957 0 0 1 11.08408,34.829915 44.059219,52.53957 0 0 1 -10.17302,33.469791 45.240376,50.529663 0 0 0 11.4763,-33.566426 45.240376,50.529663 0 0 0 -12.38736,-34.73328 z M 46.960157,39.338151 A 45.240376,50.529663 0 0 0 35.893649,72.446724 45.240376,50.529663 0 0 0 45.108073,102.79784 44.059219,52.53957 0 0 1 36.953016,72.543359 44.059219,52.53957 0 0 1 46.960157,39.338151 Z" /></g><g
       id="g27"
       transform="translate(-16.474486,0.14976806)"
       style="display:inline"><path
         id="ellipse26"
         style="fill:#bbbbbb;fill-opacity:1;stroke-width:0.108657;stroke-dasharray:none;paint-order:stroke fill markers"
         d="m 107.02781,43.650033 a 35.44405,44.865822 0 0 1 8.91935,29.745987 35.44405,44.865822 0 0 1 -8.184,28.58017 36.394249,43.149475 0 0 0 9.232,-28.662852 36.394249,43.149475 0 0 0 -9.96735,-29.663305 z M 53.109652,45.040646 A 36.394249,43.149475 0 0 0 44.206836,73.313338 36.394249,43.149475 0 0 0 51.617753,99.228552 35.44405,44.865822 0 0 1 45.058981,73.39602 35.44405,44.865822 0 0 1 53.109652,45.040646 Z" /></g></g><g
     id="layer1"
     style="display:inline"
     transform="matrix(0.95370164,-0.31210762,0.31210762,0.95370164,36.83539,22.363824)"><rect
       style="fill:#053146;fill-opacity:1;stroke-width:0.381106"
       id="rect1"
       width="49.130596"
       height="85.140045"
       x="-11.458684"
       y="-6.8546205"
       rx="6.1413245"
       ry="5.3212528" /><rect
       style="fill:#384759;fill-opacity:1;stroke-width:0.357198"
       id="rect1-8"
       width="45.036377"
       height="81.592537"
       x="-9.4115801"
       y="-5.0808754"
       rx="5.6295471"
       ry="5.0995336" /><rect
       style="fill:#053146;fill-opacity:1;stroke-width:0.0998207;stroke-dasharray:none"
       id="rect2"
       width="18.423973"
       height="0.88687551"
       x="3.4852047"
       y="-3.3071187"
       rx="0"
       ry="0.70959401" /><circle
       style="fill:#053146;fill-opacity:1;stroke-width:0.285262;stroke-dasharray:none"
       id="path3"
       cx="13.106613"
       cy="71.918083"
       r="2.6612406" /></g><g
     id="layer2"
     style="display:inline"
     transform="matrix(1.003473,0,0,1.003473,23.157274,25.525052)"><rect
       style="fill:#df3e50;fill-opacity:1;stroke-width:0.244437;stroke-dasharray:none"
       id="rect4"
       width="49.715607"
       height="35.766201"
       x="34.815002"
       y="1.0469936"
       ry="5.9894061" /><path
       style="fill:#df3e50;fill-opacity:1;stroke-width:0.132424;stroke-dasharray:none;paint-order:stroke fill markers"
       id="path5"
       d="M 92.698077,88.364133 92.809283,66.871024 111.36726,77.713886 Z"
       transform="matrix(0.56613582,0,0,0.59627062,-9.2867138,-9.3727986)" /><path
       fill-rule="nonzero"
       fill="#000000"
       fill-opacity="1"
       d="m 59.67273,4.9279522 c -1.271393,0 -2.490793,0.4677929 -3.389727,1.3004784 -0.898849,0.8325971 -1.404209,1.9619293 -1.404209,3.1393627 0.0014,0.505804 0.09435,1.0074537 0.280845,1.4836397 l 2.53582,13.392983 c 0,1.011465 0.885195,1.831392 1.977271,1.831392 1.092293,0 1.977588,-0.819927 1.977588,-1.831392 l 2.536455,-13.397153 c 0.183415,-0.474826 0.278179,-0.9751867 0.28002,-1.4794697 0,-1.1774334 -0.505031,-2.3067656 -1.404113,-3.1393627 C 62.163629,5.3957451 60.944246,4.9279522 59.67273,4.9279522 Z m 0,22.6328388 c -0.769207,0 -1.506592,0.282936 -2.05054,0.786575 -0.543853,0.5037 -0.84965,1.186855 -0.84965,1.899194 0,1.483281 1.298614,2.685688 2.90019,2.685688 1.601596,0 2.900238,-1.202407 2.900238,-2.685688 0,-0.712339 -0.305725,-1.395494 -0.849565,-1.899194 -0.543856,-0.503639 -1.281295,-0.786575 -2.050673,-0.786575 z m 0,0"
       id="path2"
       style="fill:#f1f4f4;fill-opacity:1;stroke-width:0.0112858" /></g><g
     inkscape:groupmode="layer"
     id="layer6"
     inkscape:label="name"><path
       id="text2"
       style="font-style:normal;font-variant:normal;font-weight:normal;font-stretch:normal;font-size:23.101px;font-family:Poppins;-inkscape-font-specification:Poppins;fill:#384759;stroke-width:0.541419"
       inkscape:label="s"
       d="M 88.849356 107.66526 L 88.849356 124.75983 L 93.977725 124.75983 L 93.977725 107.66526 L 88.849356 107.66526 z M 14.508675 108.12828 C 11.020427 108.12828 8.2480753 109.8373 8.2480753 113.11764 C 8.1556713 118.70808 15.871536 117.89952 15.894637 120.11721 C 15.894637 120.69474 15.409637 120.92595 14.901416 120.92595 C 14.393194 120.92595 13.746351 120.71799 13.653947 119.51673 L 8.2020832 119.51673 C 8.433093 123.18979 11.366797 124.92261 15.109155 124.92261 C 19.059422 124.92261 21.3465 122.70486 21.3465 119.70174 C 21.3465 114.66572 13.746448 115.0124 13.746448 112.95641 C 13.746448 112.40199 14.069603 112.12442 14.485421 112.12442 C 15.039844 112.12442 15.571449 112.42506 15.617651 113.4184 L 21.138761 113.4184 C 21.000155 110.02256 18.458942 108.12828 14.508675 108.12828 z M 54.292293 108.58924 L 54.292293 111.73116 L 52.675337 111.73116 L 52.675337 116.0048 L 54.292293 116.0048 L 54.292293 119.42372 C 54.292293 123.46639 56.602326 124.75983 59.651655 124.75983 L 61.592105 124.75983 L 61.592105 120.39368 L 60.367891 120.39368 C 59.697962 120.39368 59.420662 120.11684 59.420662 119.51622 L 59.420662 116.0048 L 61.546113 116.0048 L 61.546113 111.73116 L 59.420662 111.73116 L 59.420662 108.58924 L 54.292293 108.58924 z M 122.11348 108.59027 L 122.11348 111.73168 L 120.496 111.73168 L 120.496 116.00532 L 122.11348 116.00532 L 122.11348 119.42423 C 122.11348 123.4669 124.42351 124.76086 127.47284 124.76086 L 129.41329 124.76086 L 129.41329 120.39472 L 128.18856 120.39472 C 127.51863 120.39472 127.24184 120.11736 127.24184 119.51673 L 127.24184 116.00532 L 129.36678 116.00532 L 129.36678 111.73168 L 127.24184 111.73168 L 127.24184 108.59027 L 122.11348 108.59027 z M 29.49639 111.47588 C 28.637203 111.47638 27.73578 111.64286 26.819551 111.97921 C 23.154634 113.32461 21.441599 116.63543 22.874572 120.53889 C 24.307546 124.44236 27.755904 125.85873 31.420821 124.51333 C 34.500218 123.38287 36.169107 120.55569 35.734252 117.76232 L 30.637923 119.63301 C 30.599772 120.06535 30.402267 120.53179 29.773376 120.76265 C 29.122799 121.00148 28.409636 120.86951 27.890804 119.65729 L 35.611263 116.82336 C 35.543181 116.50383 35.437462 116.14873 35.326009 115.84512 C 34.269191 112.96632 32.073953 111.47438 29.49639 111.47588 z M 102.64593 111.48157 C 101.78674 111.47969 100.8847 111.64384 99.96754 111.97766 C 96.298919 113.31293 94.57661 116.61908 95.99879 120.52649 C 97.42097 124.4339 100.86557 125.85997 104.53419 124.5247 C 107.6167 123.40276 109.29335 120.57962 108.86622 117.78506 L 103.76524 119.64179 C 103.7259 120.07403 103.5266 120.54024 102.89708 120.76937 C 102.24584 121.0064 101.53309 120.87197 101.01761 119.65833 L 108.74582 116.84558 C 108.67862 116.52587 108.57376 116.17074 108.46315 115.86683 C 107.41429 112.98512 105.22349 111.48719 102.64593 111.48157 z M 46.507238 111.63866 C 44.543655 111.63866 43.249814 112.58566 42.510583 113.71761 L 42.510583 111.73116 L 37.382214 111.73116 L 37.382214 124.75983 L 42.510583 124.75983 L 42.510583 117.85275 C 42.510583 116.6053 43.203847 115.84306 44.335795 115.84306 C 45.444641 115.84306 46.160489 116.6053 46.160489 117.85275 L 46.160489 124.75983 L 51.266121 124.75983 L 51.266121 117.20576 C 51.266121 113.83302 49.510365 111.63866 46.507238 111.63866 z M 119.91878 111.63918 C 118.23241 111.63918 116.66158 112.67876 115.64514 114.13412 L 115.64514 111.73168 L 110.51677 111.73168 L 110.51677 124.76086 L 115.64514 124.76086 L 115.64514 119.42423 C 115.64514 117.64546 116.61497 117.1143 118.46305 117.1143 L 119.91878 117.1143 L 119.91878 111.63918 z M 28.881441 115.63583 C 29.369351 115.65201 29.81107 115.90549 30.024524 116.48695 L 27.162166 117.53804 C 27.00349 116.63657 27.402101 116.04718 28.20448 115.75262 C 28.428115 115.67053 28.659664 115.62848 28.881441 115.63583 z M 102.01909 115.63997 C 102.50696 115.65749 102.94826 115.91214 103.16011 116.49418 L 100.29465 117.53701 C 100.13847 116.6351 100.53894 116.04703 101.34213 115.75469 C 101.566 115.67321 101.79734 115.632 102.01909 115.63997 z " /><path
       id="text8"
       style="font-style:normal;font-variant:normal;font-weight:normal;font-stretch:normal;font-size:23.101px;font-family:Poppins;-inkscape-font-specification:Poppins;display:inline;fill:#df3e50;stroke-width:0.541419;fill-opacity:1"
       inkscape:label="IA"
       d="M 63.556843 108.39648 L 63.556843 124.75207 L 68.685212 124.75207 L 68.685212 108.39648 L 63.556843 108.39648 z M 75.823278 108.39648 L 69.840181 124.75207 L 75.222798 124.75207 L 76.031534 122.28039 L 81.483397 122.28039 L 82.291617 124.75207 L 87.697488 124.75207 L 81.737129 108.39648 L 75.823278 108.39648 z M 78.757466 113.8716 L 80.235928 118.42223 L 77.279003 118.42223 L 78.757466 113.8716 z " /></g></svg>
