<?xml version="1.0" encoding="UTF-8" standalone="no"?>
<svg
   width="450"
   height="265.93118"
   viewBox="0 0 450 265.93118"
   version="1.1"
   xml:space="preserve"
   id="SVGRoot"
   sodipodi:docname="Logo - White.svg"
   inkscape:version="1.3.2 (091e20e, 2023-11-25, custom)"
   inkscape:export-filename="Logo.svg"
   inkscape:export-xdpi="96"
   inkscape:export-ydpi="96"
   xmlns:inkscape="http://www.inkscape.org/namespaces/inkscape"
   xmlns:sodipodi="http://sodipodi.sourceforge.net/DTD/sodipodi-0.dtd"
   xmlns:xlink="http://www.w3.org/1999/xlink"
   xmlns="http://www.w3.org/2000/svg"
   xmlns:svg="http://www.w3.org/2000/svg"><sodipodi:namedview
   id="namedview1"
   pagecolor="#ffffff"
   bordercolor="#000000"
   borderopacity="0.25"
   inkscape:showpageshadow="2"
   inkscape:pageopacity="0.0"
   inkscape:pagecheckerboard="0"
   inkscape:deskcolor="#d1d1d1"
   inkscape:zoom="0.70710678"
   inkscape:cx="62.932503"
   inkscape:cy="138.59293"
   inkscape:window-width="1280"
   inkscape:window-height="650"
   inkscape:window-x="-6"
   inkscape:window-y="-6"
   inkscape:window-maximized="1"
   inkscape:current-layer="SVGRoot"
   showguides="true"
   inkscape:export-bgcolor="#ffffff00" /><defs
   id="defs1"><linearGradient
     id="linearGradient1"
     inkscape:collect="always"><stop
       style="stop-color:#3484dc;stop-opacity:1;"
       offset="0.203125"
       id="stop1" /><stop
       style="stop-color:#ff5e57;stop-opacity:1;"
       offset="0.80208331"
       id="stop2" /></linearGradient><linearGradient
     inkscape:collect="always"
     xlink:href="#linearGradient1"
     id="linearGradient2"
     x1="177.23772"
     y1="132.96559"
     x2="270.22003"
     y2="132.96559"
     gradientUnits="userSpaceOnUse" /></defs>
  
 <style
   type="text/css"
   id="style1">
g.prefab path {
  vector-effect:non-scaling-stroke;
  -inkscape-stroke:hairline;
  fill: none;
  fill-opacity: 1;
  stroke-opacity: 1;
  stroke: #00349c;
}
 </style>
 
<path
   style="fill:none;fill-opacity:1;stroke:url(#linearGradient2);stroke-width:15;stroke-linecap:square;stroke-linejoin:miter;stroke-miterlimit:4.9;stroke-dasharray:none;stroke-opacity:1;paint-order:normal"
   d="M 261.14337,113.11657 242.18469,36.182231 207.8153,229.71933 186.3125,142.33155"
   id="path4-1" /><path
   id="path4"
   style="fill:#ff5e57;fill-opacity:1;fill-rule:nonzero;stroke:none;stroke-width:11.6358;stroke-linecap:square;stroke-opacity:1"
   d="M 263.32031,57.950781 236.67969,207.95078 H 375 v -29.42383 c -11.74456,-0.0425 -19.94717,-2.78374 -24.58594,-8.23633 -3.19883,-3.77297 -4.79883,-8.98128 -4.79883,-15.625 0,-2.95276 0.32821,-6.19183 0.98438,-9.71875 l 4.30664,-24.60742 C 353.74117,104.17438 361.78561,93.976301 375,89.698831 v -31.74805 z m 48.09375,29.41602 c 9.51447,0 16.73107,2.05128 21.65235,6.15234 4.92127,4.01904 7.38281,9.555549 7.38281,16.609369 0,2.87075 -0.41026,5.78161 -1.23047,8.73438 -0.73819,2.95276 -1.47665,5.16815 -2.21484,6.64453 l -1.23047,2.21484 h -21.77735 c 2.13256,-2.95276 3.19922,-6.35789 3.19922,-10.21289 0,-7.38191 -3.07497,-11.07226 -9.22656,-11.07226 -8.28415,0 -13.24629,4.79804 -14.88672,14.39453 l -4.18359,23.62305 c -0.41011,2.21457 -0.61524,4.38698 -0.61524,6.51953 0,5.65946 3.32113,8.49023 9.96485,8.49023 6.72574,0 11.03343,-3.3641 12.91992,-10.08984 h -10.08985 l 2.46094,-13.65625 h 32.60352 l -1.96875,10.58203 -0.61524,3.56641 c -3.44489,19.11095 -16.48518,28.66796 -39.12304,28.66796 -11.64702,0 -19.68609,-2.70769 -24.11524,-8.12109 -3.03478,-3.77298 -4.55273,-8.94025 -4.55273,-15.50195 0,-3.03479 0.3282,-6.35591 0.98437,-9.96485 l 4.30664,-24.60742 c 3.855,-21.981689 17.3075,-32.972649 40.35547,-32.972649 z M 375,114.23789 c -0.93385,1.86662 -1.62905,4.0565 -2.07031,6.59375 l -4.1836,23.62305 c -0.32808,2.05053 -0.49218,4.18191 -0.49218,6.39648 0,4.62523 2.2749,7.35467 6.74609,8.25391 z" /><path
   id="path5"
   style="fill:#ff5e57;fill-opacity:1;fill-rule:nonzero;stroke:none;stroke-width:56.9667;stroke-linecap:square;stroke-dasharray:none;stroke-opacity:1"
   d="m 375,57.950781 a 75,74.999977 0 0 0 -59.44336,29.57422 c 7.48482,0.52668 13.3332,2.51367 17.50977,5.99414 4.92127,4.01904 7.38281,9.555549 7.38281,16.609369 0,2.87075 -0.41026,5.78161 -1.23047,8.73438 -0.73819,2.95276 -1.47665,5.16815 -2.21484,6.64453 l -1.23047,2.21484 h -21.77735 c 2.13256,-2.95276 3.19922,-6.35789 3.19922,-10.21289 0,-7.38191 -3.07497,-11.07226 -9.22656,-11.07226 -1.05852,0 -2.06167,0.0797 -3.01172,0.23633 A 75,74.999977 0 0 0 300,132.95078 a 75,74.999977 0 0 0 1.50195,14.07031 l 2.03711,-11.30273 h 32.60352 l -1.96875,10.58203 -0.61524,3.56641 c -2.32821,12.91601 -9.05745,21.44991 -20.15234,25.63671 A 75,74.999977 0 0 0 375,207.95078 a 75,74.999977 0 0 0 75,-75 75,74.999977 0 0 0 -75,-74.999999 z m 16.26172,29.41602 c 19.76712,0 29.65039,8.08009 29.65039,24.238279 0,2.7067 -0.28718,5.61756 -0.86133,8.73437 l -4.30664,24.60742 c -1.96851,11.40096 -6.23322,19.84833 -12.79492,25.34375 -6.5617,5.49543 -15.78856,8.24414 -27.68164,8.24414 -11.89308,0 -20.17831,-2.74871 -24.85352,-8.24414 -3.19883,-3.77297 -4.79883,-8.98128 -4.79883,-15.625 0,-2.95276 0.32821,-6.19183 0.98438,-9.71875 l 4.30664,-24.60742 c 3.855,-21.981689 17.3075,-32.972649 40.35547,-32.972649 z m -3.19922,19.070309 c -8.44819,0.16404 -13.49239,4.96209 -15.13281,14.39453 l -4.1836,23.62305 c -0.32808,2.05053 -0.49218,4.18191 -0.49218,6.39648 0,5.74149 3.4442,8.61328 10.33398,8.61328 4.10106,0 7.38311,-1.06666 9.84375,-3.19922 2.46064,-2.13255 4.18371,-6.06906 5.16797,-11.81054 l 4.18164,-23.62305 c 0.24606,-1.64043 0.36914,-3.1154 0.36914,-4.42774 0,-6.64372 -3.36215,-9.96679 -10.08789,-9.96679 z m -86.04883,42.9375 a 75,74.999977 0 0 0 2.54297,8.77929 c 3.19519,-1.54828 5.40265,-4.47009 6.61133,-8.77929 z" /><path
   id="rect4"
   style="fill:#3484d9;fill-opacity:1;stroke:none;stroke-width:11.6358;stroke-linecap:square;stroke-opacity:1"
   d="m 75,57.95078 v 32.00781 c 5.44809,-1.72413 11.99727,-2.59179 19.66406,-2.59179 9.67851,0 16.97912,1.84615 21.90039,5.5371 5.0033,3.60894 7.50391,8.65314 7.50391,15.13282 0,2.37861 -0.32821,4.67605 -0.98438,6.89062 -0.57414,2.13255 -1.18758,3.64855 -1.84375,4.55078 l -0.98437,1.47657 H 98.47852 c 1.80446,-1.88649 2.70703,-4.26403 2.70703,-7.13477 0,-5.33138 -3.48718,-7.99805 -10.45899,-7.99805 -8.77627,0 -13.16406,2.78975 -13.16406,8.36719 0,2.78872 1.39487,5.00215 4.18359,6.64258 2.78873,1.64042 6.15087,2.95324 10.08789,3.9375 4.01905,0.90223 8.03956,2.05095 12.0586,3.44531 4.01904,1.39436 7.42221,3.73087 10.21094,7.01172 2.78872,3.19883 4.18359,7.38344 4.18359,12.55078 0,10.4167 -3.11795,18.16664 -9.35156,23.25195 -6.23362,5.0033 -15.82971,7.50586 -28.78907,7.50586 -1.80092,0 -3.50396,-0.0558 -5.14648,-0.14453 v 29.56055 h 111.67969 l 26.64062,-150 z m 67.89258,30.27734 h 22.14648 l -15.50195,88.58399 H 127.26758 Z M 75,139.5875 v 18.91601 c 1.99065,1.0482 4.72808,1.57618 8.22266,1.57618 8.20212,0 12.30273,-2.54359 12.30273,-7.62891 0,-2.7067 -1.39487,-4.92013 -4.18359,-6.64258 -2.78873,-1.72244 -6.1919,-3.15834 -10.21094,-4.30664 C 79.09822,140.90871 77.0545,140.2678 75,139.5875 Z" /><path
   id="path6"
   style="fill:#3484d9;fill-opacity:1;stroke:none;stroke-width:21.0954;stroke-linecap:square;stroke-dasharray:none;stroke-opacity:1"
   d="m 75,57.95078 a 75,75 0 0 0 -75,75 75,75 0 0 0 75,75 75,75 0 0 0 60.61523,-31.13867 h -8.34765 L 141.21484,97.73594 A 75,75 0 0 0 75,57.95078 Z M 94.66406,87.3668 c 9.67851,0 16.97912,1.84615 21.90039,5.5371 5.0033,3.60894 7.50391,8.65314 7.50391,15.13282 0,2.37861 -0.32821,4.67605 -0.98438,6.89062 -0.57414,2.13255 -1.18758,3.64855 -1.84375,4.55078 l -0.98437,1.47657 H 98.47852 c 1.80446,-1.88649 2.70703,-4.26403 2.70703,-7.13477 0,-5.33138 -3.48718,-7.99805 -10.45899,-7.99805 -8.77627,0 -13.16406,2.78975 -13.16406,8.36719 0,2.78872 1.39487,5.00215 4.18359,6.64258 2.78873,1.64042 6.15087,2.95324 10.08789,3.9375 4.01905,0.90223 8.03956,2.05095 12.0586,3.44531 4.01904,1.39436 7.42221,3.73087 10.21094,7.01172 2.78872,3.19883 4.18359,7.38344 4.18359,12.55078 0,10.4167 -3.11795,18.16664 -9.35156,23.25195 -6.23362,5.0033 -15.82971,7.50586 -28.78907,7.50586 -12.95935,0 -21.81698,-2.29743 -26.57421,-6.89062 -3.52692,-3.44489 -5.29102,-8.20191 -5.29102,-14.27148 0,-2.2966 0.24615,-4.79916 0.73828,-7.50586 L 49.38867,147.9 h 22.14649 l -0.2461,1.47461 c -0.16404,0.82021 -0.24609,1.55867 -0.24609,2.21484 0,5.65947 4.05958,8.49024 12.17969,8.49024 8.20212,0 12.30273,-2.54359 12.30273,-7.62891 0,-2.7067 -1.39487,-4.92013 -4.18359,-6.64258 -2.78873,-1.72244 -6.1919,-3.15834 -10.21094,-4.30664 -3.93702,-1.1483 -7.91455,-2.46112 -11.93359,-3.9375 -3.93702,-1.5584 -7.30113,-3.93594 -10.08985,-7.13476 -2.78872,-3.28085 -4.18164,-7.34239 -4.18164,-12.18164 0,-20.58734 13.24542,-30.88086 39.73828,-30.88086 z" /><text
   xml:space="preserve"
   style="font-style:normal;font-variant:normal;font-weight:normal;font-stretch:normal;font-size:17.7241px;font-family:'Fugaz One';-inkscape-font-specification:'Fugaz One';text-align:end;text-anchor:end;fill:none;fill-opacity:1;stroke:none;stroke-width:4.99999;stroke-linecap:square;stroke-miterlimit:4.9;stroke-dasharray:none;stroke-opacity:1"
   x="184.07494"
   y="232.16403"
   id="text1"><tspan
     sodipodi:role="line"
     id="tspan9"
     x="184.07494"
     y="232.16403"
     style="fill:none;stroke-width:4.99999"><tspan
       id="tspan1"
       x="184.07494"
       y="232.16403"
       style="fill:none;fill-opacity:1;stroke:none;stroke-width:4.99999;stroke-opacity:1">S<tspan
   style="font-size:17.7241px;fill:none;fill-opacity:0.5;stroke:none;stroke-width:4.99999;stroke-opacity:1"
   id="tspan25">ISTEMA D</tspan><tspan
   style="fill:none;fill-opacity:0.5"
   id="tspan26">E</tspan></tspan></tspan></text><text
   xml:space="preserve"
   style="font-style:normal;font-variant:normal;font-weight:normal;font-stretch:normal;font-size:17.7241px;font-family:'Fugaz One';-inkscape-font-specification:'Fugaz One';text-align:end;text-anchor:end;fill:none;fill-opacity:1;stroke:none;stroke-width:4.99999;stroke-linecap:square;stroke-miterlimit:4.9;stroke-dasharray:none;stroke-opacity:1"
   x="180.80792"
   y="252.82144"
   id="text14"><tspan
     sodipodi:role="line"
     id="tspan14"
     x="180.80792"
     y="252.82144"
     style="fill:none;stroke-width:4.99999">I<tspan
   style="fill:none;fill-opacity:0.496377"
   id="tspan27">NFORMACIÓN</tspan></tspan></text><text
   xml:space="preserve"
   style="font-style:normal;font-variant:normal;font-weight:normal;font-stretch:normal;font-size:17.7241px;font-family:'Fugaz One';-inkscape-font-specification:'Fugaz One';text-align:end;text-anchor:end;fill:none;fill-opacity:1;stroke:none;stroke-width:4.99999;stroke-linecap:square;stroke-miterlimit:4.9;stroke-dasharray:none;stroke-opacity:1"
   x="335.13062"
   y="232.16403"
   id="text23"><tspan
     sodipodi:role="line"
     id="tspan23"
     x="335.13062"
     y="232.16403"
     style="fill:none;fill-opacity:1;stroke-width:4.99999"><tspan
   style="fill:none;fill-opacity:0.503623"
   id="tspan28">DE </tspan>G<tspan
   style="fill:none;fill-opacity:0.5"
   id="tspan29">ESTIÓN</tspan></tspan></text><text
   xml:space="preserve"
   style="font-style:normal;font-variant:normal;font-weight:normal;font-stretch:normal;font-size:17.7241px;font-family:'Fugaz One';-inkscape-font-specification:'Fugaz One';text-align:end;text-anchor:end;fill:none;fill-opacity:1;stroke:none;stroke-width:4.99999;stroke-linecap:square;stroke-miterlimit:4.9;stroke-dasharray:none;stroke-opacity:1"
   x="337.74139"
   y="252.82144"
   id="text24"><tspan
     sodipodi:role="line"
     id="tspan24"
     x="337.74139"
     y="252.82144"
     style="fill:none;fill-opacity:1;stroke-width:4.99999">O<tspan
   style="fill:none;fill-opacity:0.5"
   id="tspan30">NCOLÓGICO</tspan></tspan></text></svg>
