<svg width="600" height="600" viewBox="0 0 600 600" fill="none" xmlns="http://www.w3.org/2000/svg">
<g clip-path="url(#clip0_99_1448)">
<rect width="600" height="600" rx="50" fill="white"/>
<circle cx="297.693" cy="303.463" r="259.615" fill="white"/>
<path d="M197.642 239.701C197.642 247.719 192.411 271.639 165.666 271.639C192.411 271.639 197.642 295.917 197.642 303.577C197.642 295.559 202.874 271.639 229.619 271.639C202.874 271.611 197.642 247.317 197.642 239.701Z" fill="#F9C513"/>
<path d="M442.875 233C442.875 241.018 437.644 264.938 410.904 264.938C437.627 264.938 442.875 289.227 442.875 296.876C442.875 288.858 448.106 264.938 474.852 264.938C448.09 264.938 442.875 240.632 442.875 233Z" fill="#F9C513"/>
<path d="M101.057 367.833V327.206L84.1525 355.107C84.0513 355.309 83.908 355.486 83.7321 355.626C83.5563 355.767 83.3522 355.868 83.1337 355.922C82.7377 356.047 82.3263 356.115 81.9113 356.126C81.4634 356.121 81.0184 356.052 80.5897 355.922C80.3713 355.868 80.1672 355.767 79.9913 355.626C79.8155 355.486 79.6722 355.309 79.571 355.107L62.6715 327.206V367.833H42V288.82H61.3444C61.6832 288.821 62.0168 288.903 62.3175 289.06C62.6182 289.216 62.8774 289.441 63.0735 289.717L81.7957 320.972L100.65 289.717C100.828 289.446 101.068 289.221 101.351 289.061C101.633 288.901 101.95 288.811 102.274 288.798H121.723V367.833H101.057Z" fill="#05264C"/>
<path d="M184.85 367.833L180.764 356.941H156.425L152.356 367.833H130.055L159.289 288.82H177.923L207.146 367.833H184.85ZM168.65 317.635L162.339 338.511H174.872L168.65 317.635Z" fill="#05264C"/>
<path d="M265.697 367.833L251.931 343.395H238.61L238.715 367.833H216.926V288.82H256.534C258.516 288.836 260.48 289.198 262.338 289.888C264.339 290.622 266.25 291.579 268.037 292.74C269.857 293.919 271.562 295.264 273.131 296.76C274.603 298.154 275.933 299.691 277.101 301.347C278.517 303.446 279.567 305.77 280.207 308.219C280.894 310.655 281.253 313.172 281.275 315.703C281.302 319.547 280.355 323.336 278.522 326.716C276.677 330.122 274.062 333.051 270.884 335.267L289.414 367.849L265.697 367.833ZM250.323 306.435H237.999V323.439H250.323C251.509 323.448 252.685 323.225 253.786 322.784C255.894 321.943 257.605 320.333 258.572 318.28C259.04 317.229 259.282 316.091 259.282 314.94C259.282 313.789 259.04 312.651 258.572 311.6C257.609 309.544 255.897 307.933 253.786 307.096C252.686 306.653 251.509 306.429 250.323 306.435Z" fill="#05264C"/>
<path d="M295.531 367.833V288.82H316.808V367.833H295.531Z" fill="#05264C"/>
<path d="M376.582 367.833L372.507 356.941H348.162L344.088 367.833H321.803L351.02 288.82H369.638L398.878 367.833H376.582ZM360.392 317.635L354.076 338.511H366.598L360.392 317.635Z" fill="#05264C"/>
<path d="M453.657 367.734L426.267 325.581V367.734H405.188V288.82H426.168L453.657 331.38V288.82H474.813V367.734H453.657Z" fill="#05264C"/>
<path d="M535.726 367.833L531.651 356.941H507.301L503.227 367.833H480.947L510.165 288.82H528.777L558 367.833H535.726ZM519.537 317.635L513.221 338.511H525.748L519.537 317.635Z" fill="#05264C"/>
<path d="M305.823 286.733C313.815 286.733 320.294 280.254 320.294 272.262C320.294 264.269 313.815 257.791 305.823 257.791C297.831 257.791 291.352 264.269 291.352 272.262C291.352 280.254 297.831 286.733 305.823 286.733Z" fill="#05264C"/>
<path d="M306.208 244.503C302.645 244.503 299.117 245.204 295.824 246.567C292.532 247.93 289.54 249.928 287.021 252.448C284.501 254.967 282.502 257.958 281.138 261.25C279.774 264.542 279.072 268.071 279.072 271.634C279.072 286.617 306.313 333.142 306.313 333.142C306.313 333.142 333.339 286.617 333.339 271.634C333.339 268.071 332.637 264.543 331.274 261.252C329.91 257.96 327.912 254.969 325.393 252.45C322.873 249.93 319.883 247.932 316.591 246.569C313.299 245.205 309.771 244.503 306.208 244.503ZM306.208 283.242C303.913 283.242 301.668 282.561 299.759 281.286C297.851 280.01 296.363 278.197 295.484 276.076C294.606 273.955 294.376 271.621 294.824 269.37C295.272 267.118 296.377 265.05 298 263.426C299.624 261.803 301.692 260.697 303.944 260.249C306.196 259.801 308.529 260.031 310.651 260.91C312.772 261.788 314.584 263.276 315.86 265.185C317.135 267.094 317.816 269.338 317.816 271.634C317.816 274.713 316.593 277.665 314.416 279.842C312.239 282.019 309.287 283.242 306.208 283.242Z" fill="#CB2431"/>
</g>
<rect x="0.5" y="0.5" width="599" height="599" stroke="black"/>
<defs>
<clipPath id="clip0_99_1448">
<rect width="600" height="600" fill="white"/>
</clipPath>
</defs>
</svg>
