<svg width="600" height="600" viewBox="0 0 600 600" fill="none" xmlns="http://www.w3.org/2000/svg">
<g clip-path="url(#clip0_99_1182)">
<rect width="600" height="600" rx="50" fill="white"/>
<circle cx="297.693" cy="303.463" r="259.615" fill="white"/>
<path d="M108.25 486.294C118.37 486.454 128.49 486.304 139.33 486.304C137.93 483.414 135.7 482.384 133.86 480.944C105.31 458.574 93.4599 429.234 96.4499 393.304C97.4299 381.594 102.07 370.984 104.47 359.734C110.6 342.864 121.41 329.884 136.94 320.814C149.34 313.134 162.63 309.944 177.12 312.904C193.94 316.344 205.61 326.074 212.4 341.744C214.01 346.924 215.01 352.214 214 357.614C213.17 362.044 211.23 365.914 206.64 367.614C201.99 369.344 198.15 367.804 194.87 364.364C191.26 360.574 187.21 358.704 182.13 361.534C177.83 363.924 176.34 368.234 177.46 374.524C178.8 382.034 183.76 387.044 189.56 391.144C202.11 400.004 222.7 398.754 234.34 388.824C235.98 387.424 236.91 385.624 237.62 383.664C241.4 373.164 245.08 362.634 249.95 352.564C251.52 349.314 250.68 347.154 247.78 345.254C244.48 343.094 241.05 341.204 237.58 339.354C231.49 334.634 224.15 332.204 217.34 328.904C203.04 321.964 190.04 312.824 176.01 305.474C165.16 297.544 154.3 289.454 146.44 278.434C135.53 263.144 129.52 246.284 133.79 227.214C134.87 222.384 134.38 218.474 131.53 214.424C128.84 210.604 125.87 206.714 126 201.604C122.12 188.284 120.55 174.854 125.51 161.514C132.38 143.044 144.05 129.064 163.49 122.804C166.31 121.894 168.56 120.674 170.07 117.764C182.53 93.8038 216.96 90.2638 233.39 113.894C236.17 117.894 238.3 118.764 242.88 117.124C266.4 108.734 290.56 107.414 314.96 112.314C319.22 113.164 321.96 112.024 325.16 109.954C342.8 98.5338 361.82 93.9938 382.97 96.8138C403.24 99.5138 418.77 118.504 422.08 135.164C424.1 145.304 423.49 155.254 420.74 165.444C426.51 166.004 432.11 164.824 437.58 166.014C460.66 171.024 473.14 191.194 467.74 214.714C467.33 216.514 467.02 218.334 466.66 220.144C462.12 228.154 466.77 234.174 470.47 240.864C473.26 245.914 476.44 249.984 481.5 252.634C489.78 257.584 497 263.504 500.81 272.784C506.48 286.584 504.99 299.444 495.62 311.064C493.42 313.794 492.96 316.374 493.23 319.574C496.73 360.104 487.95 397.574 463.53 430.454C458.5 437.234 455.01 443.604 454.58 451.774C454.29 457.174 448.98 461.314 449.27 465.844C449.56 470.434 455.01 474.434 455.3 479.714C455.62 485.604 463.66 486.304 463.66 486.304C463.66 486.304 478.03 486.584 484.66 486.574C493.02 486.574 493.82 502.524 484.29 502.934C481.81 503.044 469.39 503.144 465.56 503.144C381.18 503.204 296.79 503.194 212.41 503.184C182.35 503.184 152.28 503.214 122.22 503.144C120.62 503.144 113.31 503.444 107.39 503.084C97.6099 502.504 97.5199 486.094 108.28 486.264L108.25 486.294Z" fill="#0B2A29"/>
<path d="M398.24 181.754C399.95 184.634 403.84 185.804 404.41 189.584C401.78 190.574 400.16 188.274 397.92 187.474C399.67 189.634 401.17 191.744 402.99 193.604C407.41 197.544 425.25 220.414 428.18 226.104C428.65 227.014 428.33 227.364 428.33 227.364C428.33 227.364 422.66 238.134 419.62 241.694C418.19 243.374 414.67 248.064 409.67 253.134C398.41 264.564 381.42 279.894 376.12 280.544C375.95 280.564 370.93 283.874 370.78 283.864C370.63 283.854 375.37 279.204 375.37 279.204C375.37 279.204 376.78 267.974 374.16 266.624C371.27 265.124 368.98 267.074 366.86 268.704C343.46 286.684 316.69 295.294 287.54 297.964C272.1 299.374 257 298.334 241.96 295.034C231.42 290.844 220.73 286.984 209.98 283.364C195.03 278.334 181.13 271.374 167.71 262.604C171.6 269.394 177.04 274.404 182.63 279.304C184.39 280.844 187.11 281.814 186.79 284.944C186.08 285.614 185.21 285.834 184.26 285.804C176.1 282.074 170.63 275.404 165.36 268.504C159.25 259.494 153.16 250.484 153.83 238.854C153.97 236.444 153.61 233.874 155.9 232.114C157.52 231.324 159.16 231.634 160.73 232.194C180.48 239.184 194.38 229.814 206.11 215.534C216.85 202.454 225.81 187.894 238.69 176.594C252.4 164.584 266.13 152.604 283.97 146.854C286.07 146.174 288.24 144.874 290.29 147.024C290.41 148.664 289.32 149.654 288.31 150.704C269.09 170.934 265.85 194.594 275.59 219.664C281.3 234.354 292.8 245.304 307.99 250.504C329.97 258.034 351.22 255.884 369.29 240.284C381.83 229.464 388.32 215.034 389.28 198.304C389.69 191.264 388.4 184.314 388.48 177.304C389.59 174.244 391.45 175.294 393.32 176.434C395.46 177.734 397.32 179.314 398.24 181.744V181.754Z" fill="#4BAC34"/>
<path d="M363.54 328.324L388.94 315.424C391.14 314.074 394.9 311.754 398.76 309.374C398.76 309.374 432.27 279.304 447.17 262.044C448.85 260.534 450.29 258.864 450.95 256.634C452.14 254.104 453.52 251.824 456.84 252.004C465.13 263.034 468.17 276.364 473.04 288.894C473.48 290.024 473.71 291.234 474.03 292.404C471.1 298.294 465.93 302.254 461.37 306.664C442.86 324.594 421.46 338.554 399.1 351.144C398.6 351.424 390.58 356.324 385.53 355.824C372.75 354.564 357.59 330.484 357.59 330.484C357.55 330.224 362.62 328.944 363.53 328.324H363.54Z" fill="#4BAC34"/>
<path d="M156.59 232.324C152.63 244.074 157.8 253.774 163.58 263.334C164.63 265.064 165.74 266.754 166.83 268.464C169.46 273.694 173.22 277.864 178.13 281.124C179.8 282.234 182.37 283.574 180.29 286.454C161.79 273.244 146.81 257.984 149.28 232.744C150.07 224.644 152.88 217.064 156.22 209.754C168.21 183.544 186.23 162.674 210.95 147.444C237.19 131.274 265.22 122.444 296.3 124.444C303.55 124.914 310.7 125.994 317.69 127.864C320.75 128.684 322.97 128.004 325.72 126.404C339.12 118.604 352.65 110.974 368.81 110.384C380.32 109.964 390.49 112.994 398.76 121.304C398.66 125.454 395.21 125.484 392.55 125.894C387.84 126.634 383.03 126.584 378.31 125.834C366.78 124.014 355.64 125.764 344.65 129.184C340.82 130.664 336.77 131.494 332.99 133.124C325.68 133.754 318.54 135.664 311.18 135.994C295.85 132.994 281.11 136.924 266.31 139.864C260.82 140.954 255.61 143.154 250.18 144.494C245.62 145.214 240.97 145.674 237.26 148.884C226.35 154.384 215.71 160.234 205.91 167.664C184.99 183.524 168.91 202.994 159.15 227.464C158.47 229.164 158.21 231.114 156.6 232.334L156.59 232.324Z" fill="#C2D10F"/>
<path d="M393.439 352.034C404.419 347.134 414.279 340.294 424.469 334.044C443.069 322.644 458.329 307.244 474.039 292.404C477.779 306.164 480.369 320.064 479.289 334.414C468.039 344.484 456.059 353.414 442.389 360.114C433.679 364.374 425.139 368.994 416.189 372.724C412.139 374.414 408.269 377.374 403.389 375.734C401.359 375.604 400.349 374.114 400.089 372.514C398.919 365.334 395.979 358.754 393.449 352.034H393.439Z" fill="#C2D10F"/>
<path d="M161.07 380.124C165.42 387.444 168.64 395.454 174.49 401.854C175.51 405.754 172.52 407.904 170.58 410.414C164.64 418.104 156.48 423.724 150.66 431.564C148.82 434.044 146.61 436.264 145.83 439.394C143.39 445.444 140.82 451.414 140.58 458.114C140.51 460.054 139.93 462.224 137.39 462.754C132.79 463.184 131.06 459.314 128.86 456.634C119.16 444.824 112.34 431.724 112.02 415.994C113.98 410.594 115.29 404.934 118.47 400.024C120.56 397.844 122.56 395.594 124.18 393.014C132.1 386.184 140.94 381.154 151.39 379.344C154.68 378.774 157.94 378.764 161.07 380.124Z" fill="#4BAC34"/>
<path d="M403.38 375.734C428.72 366.684 452.66 355.084 473.34 337.544C475.11 336.044 477.01 334.894 479.29 334.414C479.48 336.164 479.63 338.824 479.23 342.004C478.29 349.464 476.31 373.884 472.96 378.124C470.85 380.794 459.1 385.524 452.65 389.064C445.3 393.104 440.27 408.014 439.34 407.574C438.18 407.034 434.63 404.514 433.32 404.004C425.15 400.834 407.5 400.174 398.61 404.664C397 405.474 394.89 406.854 394.89 406.854C394.89 406.854 399.39 387.544 399.47 382.714C399.53 379.334 400.99 377.444 403.39 375.724L403.38 375.734Z" fill="#4BAC34"/>
<path d="M288.82 354.514C288.61 355.084 288.06 355.954 288.25 356.164C293.11 361.654 297.29 367.814 303.59 371.904C298.5 385.234 298.12 399.424 296.7 412.324C293.78 415.424 292.49 403.334 289.8 412.904C288.86 416.724 289.46 420.604 289.4 424.454C289.28 431.894 289.21 432.014 281.21 431.814C280.52 431.684 279.88 431.414 279.28 431.054C277.18 425.244 278.72 419.354 278.94 413.484C278.99 412.264 279.15 410.954 279.6 409.844C284.48 397.604 277.48 390.074 269.06 383.094C266.52 380.984 263.8 379.064 262.27 375.994C266.53 364.984 274.23 357.494 285.42 353.654C286.62 353.244 287.89 353.454 288.84 354.504L288.82 354.514Z" fill="#4BAC34"/>
<path d="M193.96 411.764C201.82 413.554 209.75 413.924 217.76 413.094C219.02 414.584 218.57 416.264 218.03 417.784C213.6 430.244 210.92 443.054 210.27 456.274L209.91 456.534C197.06 461.994 184.8 460.044 172.88 453.644C172.44 453.144 172.14 452.564 171.96 451.924C172.12 441.944 178.04 434.214 182.47 425.984C185.35 420.634 188.63 415.284 193.96 411.764Z" fill="#4BAC34"/>
<path d="M193.96 411.764C188.93 419.794 182.66 427.004 178.75 435.784C176.48 440.874 173.92 445.814 172.83 451.334C170.74 453.414 168.62 452.084 166.6 451.284C158.56 448.114 151.41 443.484 144.84 437.914C147.7 431.044 153.3 426.364 158.32 421.244C164.25 415.214 170.52 409.494 174.49 401.844C180.21 406.654 187.16 409.064 193.96 411.764Z" fill="#C2D10F"/>
<path d="M140.31 165.164C145.02 144.754 170.4 128.774 193.58 135.784C195.04 136.224 197.26 136.314 197.37 138.114C197.43 139.084 195.78 140.364 194.65 141.154C187.83 145.914 181.82 151.424 173.18 153.904C162.57 156.944 157.08 166.194 154.12 176.634C146.67 178.284 139.64 172.444 140.31 165.164Z" fill="#FCFCFB"/>
<path d="M144.84 437.924C149.73 438.514 152.8 442.384 156.76 444.644C161.87 447.544 166.79 450.744 172.83 451.344C172.85 451.794 172.87 452.244 172.89 452.694C172.6 461.224 170.46 469.584 170.61 478.174C170.64 479.664 170.18 481.544 167.86 481.444C156.21 477.634 145.32 472.604 137.39 462.754C140.12 454.554 140.22 445.564 144.85 437.934L144.84 437.924Z" fill="#C2D10F"/>
<path d="M456.85 252.004C454.71 253.414 452.99 255.204 451.85 257.524C449.21 261.094 447.12 260.004 445.37 256.724C442.57 251.454 440 246.054 436.22 241.364C429.94 231.894 422.48 223.224 416.94 213.244C413.1 206.014 406.11 201.264 402 194.244C400.85 191.484 400.89 189.564 404.76 190.434C411.05 193.024 415.74 197.854 420.34 202.484C434.94 217.154 448.42 232.754 456.83 252.014L456.85 252.004Z" fill="#C2D10F"/>
<path d="M343.75 128.214C354.51 122.634 366.05 123.094 377.59 124.024C383.77 124.524 389.91 125.634 396 123.454C397.23 123.014 398.34 122.654 398.75 121.294C404.11 126.494 406.38 133.074 407.3 140.264C407.4 146.664 398.21 151.404 391.2 148.564C389.64 147.934 388.29 146.974 387.03 145.894C376.48 136.734 364.21 131.864 350.27 131.054C347.78 130.914 345.25 130.704 343.75 128.214Z" fill="#C2D10F"/>
<path d="M167.85 481.424C170.56 478.184 169.71 474.554 170.09 471.024C170.75 464.834 169.53 455.884 173.05 450.284C184.98 455.544 197.13 459.414 209.9 456.524C199.36 461.694 194.21 470.504 192.9 481.814C192.55 484.854 190.82 485.384 188.24 485.294C181.23 485.054 174.37 484.124 167.84 481.414L167.85 481.424Z" fill="#4BAC34"/>
<path d="M161.07 380.124C147.07 380.044 135.22 385.394 124.78 394.344C123.29 394.804 113.97 416.834 112.02 415.984C107.98 415.514 115.22 367.054 121.24 361.494C122.77 360.074 129.37 361.514 131.47 360.924C138.64 360.194 145.24 360.804 152.28 362.814C155.41 363.714 159.3 364.324 160.29 367.924C161.28 371.554 161.34 375.744 161.09 380.124H161.07Z" fill="#C2D10F"/>
<path d="M343.75 128.214C348.4 128.984 353.02 130.044 357.71 130.484C369.75 131.604 379.48 137.434 388.44 144.974C394.64 150.194 405.28 147.544 407.31 140.274C409.9 149.464 407.36 158.104 404.44 166.694C402.27 166.814 401.81 164.964 401.15 163.614C398.11 157.334 393.14 154.164 386.21 153.654C382.35 153.374 378.57 152.384 374.73 151.784C366.23 146.454 358.42 139.944 348.58 136.874C343.56 135.304 337.85 135.714 333.59 131.854C336.48 129.274 340.14 128.814 343.75 128.214Z" fill="#4BAC34"/>
<path d="M439.4 450.084C438.99 455.624 436.78 456.744 431.43 454.464C420.8 449.934 410.51 451.944 400.84 457.844C399.54 457.934 398.96 457.074 398.48 456.064C397.99 451.054 394.72 446.004 398.62 441.024C406.18 439.284 413.94 438.394 420.84 434.224C423.99 432.324 426.59 429.514 430.2 428.364C432.42 428.214 433.85 429.494 435.12 431.064C436.34 432.934 437.26 434.954 438.17 436.984C440.3 441.184 439.26 445.694 439.4 450.084Z" fill="#4BAC34"/>
<path d="M317.81 431.354C322.72 429.244 327.94 430.014 332.83 430.674C337.7 431.334 342.53 431.324 347.38 431.614C348.35 432.514 348.87 433.714 348.75 434.954C348.07 442.564 347 450.134 345.39 457.604C345.17 458.614 344.4 459.404 343.52 460.014C335.99 455.464 328.1 452.074 319.05 452.444C315.84 445.574 315.08 438.564 317.81 431.344V431.354Z" fill="#4BAC34"/>
<path d="M395.87 396.724C397.25 397.054 399.72 396.214 399 399.004C398.23 401.984 399.87 402.624 402.14 402.974C389.67 408.344 381.56 417.694 377.02 430.314C375.75 432.034 375.03 434.834 372.15 434.004C369.69 433.304 368.81 430.774 368.78 428.584C368.73 424.534 367.07 420.534 368.38 416.464C368.65 406.064 369.24 395.704 370.82 385.404C371.247 393.79 375.73 397.984 384.27 397.984C388.19 397.984 392.11 398.164 395.86 396.724H395.87Z" fill="#4BAC34"/>
<path d="M221.31 412.044C229.543 409.917 233.673 413.09 233.7 421.564C233.73 431.044 233.53 440.584 235.81 449.854C236.93 454.404 234.78 454.384 231.68 453.584C226.97 452.374 222.29 452.404 217.59 453.554C214.22 448.654 217 443.524 217.29 438.594C217.82 429.664 218.69 420.694 221.3 412.034L221.31 412.044Z" fill="#4BAC34"/>
<path d="M129.27 348.924C134.32 338.124 146.7 330.274 159.2 329.764C166.45 331.084 172.6 339.054 173.36 346.574C165.94 350.084 163.54 355.634 162.53 360.684C157.36 356.604 132.51 348.864 129.27 348.924Z" fill="#C2D10F"/>
<path d="M317.81 431.354C318.22 438.384 318.63 445.424 319.05 452.454C310.25 453.304 310.47 453.284 309.77 444.444C308.22 424.954 308.56 405.574 312.4 386.354C313.12 382.734 314.41 379.224 315.44 375.664C317.24 377.614 316.35 379.964 316.35 382.154C316.33 398.564 315.54 415.004 317.82 431.354H317.81Z" fill="#C2D10F"/>
<path d="M278.78 430.314C279.26 430.354 279.75 430.394 280.23 430.444C283.47 437.344 281.97 444.534 281.33 451.624C281.15 453.594 279.83 455.074 277.38 454.104C271.32 452.294 265.16 452.454 258.98 453.174C254.37 447.824 254.9 441.334 254.88 434.954C255.3 433.024 256.27 431.074 258.16 430.784C264.99 429.734 271.85 427.994 278.77 430.314H278.78Z" fill="#4BAC34"/>
<path d="M427.03 395.474C430.69 393.484 434.81 393.194 438.79 392.734C447.82 391.684 455.11 386.434 463.21 383.154C463.97 383.954 455.28 406.254 445.71 412.874C436.01 403.454 424.56 398.794 410.9 400.224C414.36 398.094 418.15 399.464 421.78 399.264C424.5 399.114 426.79 398.844 427.03 395.474Z" fill="#4BAC34"/>
<path d="M436.71 436.664C435.91 435.074 435.1 433.474 434.3 431.884C426.72 422.084 420.47 420.324 412.84 422.894C404.74 426.494 402.59 434.294 399.62 441.504C397.38 446.724 399.91 451.884 399.78 457.084C392.87 454.254 391.48 448.224 390.98 441.754C390.82 439.724 391.77 437.754 391.57 435.684C396.22 419.394 408.88 411.104 423.06 415.474C433.29 418.624 438.22 426.644 440.81 436.444C441.53 438.154 441.8 439.834 440.4 441.714C437.89 440.894 438.72 437.654 436.72 436.654L436.71 436.664Z" fill="#C2D10F"/>
<path d="M256 435.014C256.34 441.174 257.58 447.184 258.99 453.164C251.31 456.214 251.34 456.214 249.83 447.294C245.42 421.254 247.06 395.954 258.94 371.884C260.35 371.724 260.82 372.694 261.2 373.764C261.61 376.284 261.24 378.714 260.36 381.084C254.93 395.854 254.62 411.084 256.6 426.444C256.99 429.434 255.59 432.124 256 435.004V435.014Z" fill="#C2D10F"/>
<path d="M374.58 150.684C381.23 150.644 387.76 151.954 394.04 153.694C400.15 155.374 401.62 161.804 404.43 166.694C403.73 172.274 399.37 176.354 398.24 181.754C395.15 180.404 393.44 176.564 389.42 176.904C384.08 168.384 378.81 159.824 374.58 150.684Z" fill="#4BAC34"/>
<path d="M260.479 373.704C259.969 373.104 259.449 372.504 258.939 371.894C262.679 361.454 268.029 351.734 272.539 341.634C275.689 340.474 278.089 342.564 280.499 343.774C285.719 346.384 291.969 346.664 296.419 350.914C297.169 351.494 297.919 352.064 299.719 353.444C295.259 352.604 292.159 354.204 288.819 354.494C278.719 355.544 272.849 362.694 266.909 369.694C265.339 371.544 264.029 373.624 262.599 375.594C260.659 376.314 261.079 374.434 260.479 373.684V373.704Z" fill="#4BAC34"/>
<path d="M445.71 412.874C451.99 405.074 457.1 396.544 461.77 387.714C462.57 386.204 463.24 384.834 463.21 383.144C466.3 381.004 469.29 378.644 473.2 378.114C469.25 393.854 461.86 407.894 452 421.524C449.68 418.334 447.7 415.604 445.71 412.874Z" fill="#C2D10F"/>
<path d="M140.31 165.164C141 170.784 146.16 175.064 154.12 176.634C155.49 186.914 147.67 193.484 144.15 201.984C137.22 192.204 135.77 177.654 140.31 165.164Z" fill="#C3E2D8"/>
<path d="M277.39 454.104C280.74 453.634 280.06 451.054 280.08 448.894C280.15 442.744 280.18 436.594 280.23 430.444C289.25 430.024 288.58 431.934 288.76 421.804C288.81 418.844 287.83 415.684 289.8 412.914C289.99 429.134 289.68 445.374 292.93 462.144C287.11 459.134 282.25 456.614 277.39 454.104Z" fill="#4BAC34"/>
<path d="M319.98 466.504C329.63 466.194 336.03 471.424 341.12 478.874C342.43 481.494 340.44 482.134 338.68 482.624C336.13 483.344 333.29 484.534 330.88 483.874C322.63 481.604 313.69 483.724 305.77 479.784C304.73 474.854 308.5 470.944 315.04 471.484C319.58 471.864 320.31 470.114 319.99 466.494L319.98 466.504Z" fill="#C2D10F"/>
<path d="M221.309 412.044C222.339 422.994 218.489 433.534 218.529 444.414C218.539 447.464 217.919 450.514 217.589 453.564C215.149 454.464 212.699 455.374 210.259 456.274C207.019 446.604 211.249 437.594 212.949 428.424C213.909 423.194 216.119 418.194 217.759 413.094C218.859 412.474 219.919 411.684 221.309 412.044Z" fill="#C2D10F"/>
<path d="M129.27 348.924C139.02 348.474 155.46 353.004 162.53 360.684C161.53 363.024 162.71 366.034 160.27 367.924C150.78 362.244 131.38 361.624 120.94 362.054C120.86 357.384 125.14 351.894 129.27 348.914V348.924Z" fill="#4BAC34"/>
<path d="M420.56 466.554C429.69 466.234 434.7 472.264 439.42 478.744C438.5 481.494 436.17 482.554 433.69 482.744C425.06 483.394 416.42 483.464 407.78 482.844C406.52 482.754 405.48 481.994 404.53 481.184C404.22 480.334 403.92 479.494 403.61 478.644C405.88 473.684 409.79 470.514 415.17 471.564C420.22 472.544 420.45 470.024 420.56 466.564V466.554Z" fill="#C2D10F"/>
<path d="M267.82 466.634C274.42 466.424 279.05 470.244 283.44 474.414C286.55 477.374 284.41 480.554 283.57 483.654C283.09 484.114 282.45 484.474 281.83 484.674C281.05 484.924 280.38 484.734 280.21 484.694C278.8 484.424 267.58 483.214 251.91 481.594C251.86 477.714 253.41 475.734 254.04 475.044C256.59 472.234 261.13 471.514 262.14 471.604C266.58 472.014 268.23 470.944 267.82 466.634Z" fill="#4BAC34"/>
<path d="M357.37 479.044C357.09 478.564 356.8 478.084 356.52 477.604C360 472.994 364.64 470.254 370.33 471.794C374.63 472.954 375.2 470.524 376.18 467.794C383.51 470.144 387.84 475.244 389.75 482.554C389.67 485.534 387.34 486.284 385.46 485.394C378.42 482.064 370.7 483.614 363.47 481.834C361.2 481.274 359.06 480.734 357.38 479.044H357.37Z" fill="#C2D10F"/>
<path d="M173.36 346.574C171.41 339.694 159.62 330.144 159.46 329.764C167.17 328.104 176.22 328.194 181.89 331.574C184.38 335.024 187.29 338.344 185.4 343.124C181.39 344.274 177.37 345.424 173.36 346.574Z" fill="#4BAC34"/>
<path d="M368.38 416.464C368.9 420.294 369.25 424.154 369.99 427.934C371.18 434.034 372.04 434.264 377.02 430.324C376.09 436.404 374.34 442.384 374.56 448.624C374.68 451.974 372.74 452.744 369.83 452.774C367.45 452.804 365.78 452.504 365.8 449.574C365.9 438.484 366.56 427.434 368.38 416.474V416.464Z" fill="#4BAC34"/>
<path d="M305.14 478.794C312.36 481.904 320.33 479.084 327.85 482.014C331.78 483.544 337.43 482.994 341.12 478.874C342.79 480.554 344.29 482.674 343.21 484.854C342.13 487.024 339.46 485.924 337.52 485.934C325.93 485.994 314.33 485.924 302.74 485.894C301.79 482.934 301.84 480.314 305.14 478.794Z" fill="#4BAC34"/>
<path d="M404.53 481.174C412.83 481.244 421.13 481.214 429.43 481.424C433.09 481.514 436.42 480.844 439.43 478.744C441.21 480.364 442.64 482.494 441.74 484.714C440.78 487.064 438.03 486.134 436.15 485.974C427.26 485.244 418.39 485.654 409.52 486.014C405.87 486.164 403.9 485.144 404.54 481.174H404.53Z" fill="#4BAC34"/>
<path d="M343.52 460.014C344.81 450.544 346.09 441.084 347.38 431.614V431.604C349.48 430.434 349.15 426.994 352.09 426.614C351.67 436.654 351.26 446.694 350.84 456.724C350.75 459.004 350.69 461.934 348.96 462.964C346.57 464.384 345.5 460.824 343.52 460.014Z" fill="#4BAC34"/>
<path d="M223.96 467.564C224.56 467.484 225.16 467.304 225.75 467.324C235.13 467.714 236.72 470.354 232.67 478.794C231.8 480.274 230.56 481.434 228.83 481.454C223.38 481.494 218.01 483.194 212.52 482.254C210.98 477.964 212.74 474.624 218.34 472.984C221.47 472.064 223.27 470.604 223.95 467.564H223.96Z" fill="#4BAC34"/>
<path d="M305.63 478.994C303.57 480.934 303.91 483.654 302.73 485.894C299.18 486.604 298.05 485.374 298.54 481.664C299.84 471.764 308.01 465.844 319.98 466.504C321.42 468.464 323.75 470.494 321.85 473.004C320.37 474.964 318.11 473.394 316.14 472.924C310.82 471.644 308.16 474.904 305.64 478.994H305.63Z" fill="#C2D10F"/>
<path d="M267.82 466.634C269.01 468.454 271.17 470.174 269.77 472.584C268.21 475.274 265.91 473.534 263.81 473.064C257.82 471.714 254.86 475.454 252.46 480.024C252.85 482.344 252.99 484.574 250.48 485.914C247.32 486.634 246.01 485.714 246.38 482.184C247.41 472.484 256.29 465.934 267.82 466.654V466.634Z" fill="#C2D10F"/>
<path d="M454.24 202.724C454.81 206.524 454.03 210.034 451.78 214.064C445.71 207.274 439.9 200.784 434.09 194.284C443.96 191.404 449.36 193.674 454.24 202.724Z" fill="#4BAC34"/>
<path d="M424.43 184.514C423.16 183.584 421.5 183.074 421.01 181.294C433.27 176.924 444.12 180.734 451.36 191.924C449.59 196.564 445.95 194.924 443.92 193.134C438.24 188.124 431.23 186.674 424.43 184.514Z" fill="#C2D10F"/>
<path d="M424.43 184.514C431.8 183.754 438.1 186.154 443.5 191.054C445.96 193.284 448.35 195.064 451.35 191.924C453.52 195.204 454.94 198.684 454.23 202.734C449.27 195.744 441.78 194.784 434.08 194.294C430.35 191.534 427.44 187.974 424.42 184.524L424.43 184.514Z" fill="#C2D10F"/>
<path d="M216.72 117.824C219 119.484 222.66 121.724 220.6 124.244C218.46 126.864 214.52 130.074 210.3 127.574C205.62 124.804 200.4 123.484 195.61 121.094C201.97 115.654 209.23 116.004 216.72 117.824Z" fill="#4BAC34"/>
<path d="M370.82 385.404C370.82 376.074 369.83 374.794 362.27 374.254C360.88 369.554 358.4 363.404 353.69 357.214C353.69 357.214 353.27 355.224 352.53 355.204C352.35 355.204 352.2 355.314 352.19 355.334C351.86 355.594 331.28 367.564 269.99 338.044C264.84 335.564 259.65 332.784 249.29 327.244C225.88 314.724 205.47 303.804 206.5 301.284C206.93 300.214 211.41 300.244 230.57 305.864C230.57 305.864 265.06 310.854 275.95 310.524C301.88 309.724 326.91 305.204 350.25 293.324C352.62 292.114 354.94 290.634 357.76 290.644C358.36 290.814 359.14 291.184 359.08 291.734C358.33 298.144 361.62 298.814 366.69 297.264C368.05 296.844 369.55 296.964 370.99 297.094C376.07 297.554 377.5 299.624 375.96 304.464C374.96 307.594 373.51 310.554 372.1 313.524C370.7 316.464 368.74 319.164 368.07 322.684C373.3 324.914 377.94 320.354 382.94 321.554C384.39 322.764 383.4 323.714 382.5 324.494C380.81 325.964 378.81 327.024 376.94 328.264C371.72 331.724 371.7 331.724 376.02 336.064C377.38 337.434 378.29 338.924 378.06 340.934C378.03 341.344 377.94 341.754 377.9 342.164C376.47 354.644 377.83 355.794 389.26 351.804C390.78 351.564 392.31 351.104 393.8 351.924C397.01 355.574 398.57 360.024 399.68 364.604C400.65 368.604 401.95 372.444 403.73 376.144C401.53 380.154 401.11 384.634 400.27 389.004C399.79 391.494 407.11 393.544 406.18 395.794C405.51 397.414 381.32 400.694 374.36 399.594C371.86 399.194 370.1 398.194 370.36 395.234C370.64 391.974 369.87 388.664 370.82 385.434V385.404Z" fill="#4BAC34"/>
<path d="M250.47 485.904C251.13 483.944 251.79 481.974 252.45 480.014C258.7 480.384 264.91 482.124 271.23 480.114C273.26 479.464 275.23 480.494 276.68 482.194C278.59 484.434 281.17 483.664 283.57 483.654C282.48 486.454 279.93 486.014 277.78 486.024C268.68 486.064 259.57 485.964 250.47 485.904Z" fill="#4BAC34"/>
<path d="M357.37 479.044C364.06 479.954 370.63 481.924 377.51 481.164C379.87 480.904 381.88 481.644 383.68 483.354C385.86 485.434 388.07 485.464 389.74 482.554C391.45 485.914 388.83 486.014 386.85 486.044C378.62 486.164 370.39 486.064 362.16 486.114C356.93 486.144 358.68 481.584 357.37 479.044Z" fill="#4BAC34"/>
<path d="M216.72 117.824C209.64 118.684 202.4 118.464 195.61 121.094C192.79 120.494 189.98 119.894 187.06 119.274C196.2 110.724 206.54 110.264 216.73 117.824H216.72Z" fill="#C2D10F"/>
<path d="M391.57 435.684C391.23 443.994 394.09 451.074 399.78 457.074C400.14 457.334 400.49 457.584 400.84 457.844C398.83 459.654 397.07 462.764 393.93 461.364C390.29 459.744 387.86 457.074 388.19 452.274C388.59 446.534 389.25 440.974 391.57 435.674V435.684Z" fill="#4BAC34"/>
<path d="M223.96 467.564C225.54 470.974 226.72 473.964 220.78 473.804C215.89 473.674 213.82 477.414 212.06 481.254C212.9 482.974 212.94 484.554 211.29 485.864C206.93 486.934 205.78 485.074 206.55 480.994C208.09 472.844 215.19 467.284 223.96 467.564Z" fill="#C2D10F"/>
<path d="M376.17 467.804C377.22 474.304 376.64 474.974 371.05 473.034C367.8 471.904 365.08 472.844 362.26 474.294C360.28 475.304 358.96 477.444 356.51 477.614C357.02 471.134 363.93 465.934 371.4 466.564C373.01 466.704 374.58 467.374 376.16 467.804H376.17Z" fill="#C2D10F"/>
<path d="M420.56 466.554C420.99 468.624 424.06 470.084 422.33 472.574C420.6 475.074 418.4 473.464 416.26 472.834C410.43 471.124 407.42 475.804 403.6 478.634C402.47 472.574 404.37 469.984 411.5 467.294C414.51 466.154 417.48 466.144 420.56 466.554Z" fill="#C2D10F"/>
<path d="M211.29 485.854C211.55 484.324 211.81 482.784 212.06 481.244C218.86 479.864 225.97 481.034 232.67 478.784C232.6 484.804 229.68 486.984 223.68 486.144C219.61 485.574 215.42 485.914 211.28 485.844L211.29 485.854Z" fill="#4BAC34"/>
<path d="M352.08 426.624C350.52 428.304 351.68 432.524 347.37 431.614C349.4 418.654 350.77 405.564 354.66 392.954C353.8 404.174 352.94 415.404 352.07 426.634L352.08 426.624Z" fill="#4BAC34"/>
<path d="M185.4 343.124C184.23 339.274 183.05 335.424 181.89 331.574C186.03 332.534 188.41 334.504 189.34 335.744C190.8 338.434 191.56 341.054 188.64 343.344C187.56 343.274 186.48 343.204 185.4 343.134V343.124Z" fill="#C2D10F"/>
<path d="M486.82 276.024C491.39 281.154 491.05 287.234 490.11 294.914C487.82 287.814 485.97 282.044 484.11 276.284C484.94 275.374 485.86 275.494 486.82 276.034V276.024Z" fill="#4BAC34"/>
<path d="M188.64 343.334C188.87 340.804 189.11 338.264 189.34 335.734C191.74 336.364 201.58 344.124 198.43 347.014C196.24 349.024 191.15 344.274 188.64 343.334Z" fill="#4BAC34"/>
<path d="M436.71 436.664C438.94 436.844 439.01 439.064 440.34 440.674C440.52 439.024 440.66 437.734 440.8 436.444C442.99 441.264 440.94 445.644 439.4 450.084C438.5 445.604 437.61 441.134 436.71 436.654V436.664Z" fill="#C2D10F"/>
<path d="M404.78 190.424C402.11 190.424 402.08 192.344 402.02 194.234C398.82 191.994 397.08 188.674 394.68 184.934C399.12 185.274 401.49 188.024 404.42 189.584C404.64 189.824 404.76 190.104 404.79 190.424H404.78Z" fill="#C2D10F"/>
<path d="M358.55 291.254C354.48 293.234 350.46 295.344 346.33 297.184C312.15 312.444 276.57 315.384 239.97 309.044C236.1 309.244 232.29 309.214 229.39 306.014C226.98 302.534 227.11 299.034 229.61 295.714C232.81 291.474 237.09 292.244 241.4 293.434C275.19 300.214 307.93 297.174 339.53 283.104C348.81 278.974 357.61 274.114 365.49 267.644C368.3 265.334 371.27 261.894 375.26 264.514C379.62 267.384 379.05 271.854 377.4 276.194C377.8 278.724 375.89 279.844 374.29 281.044C369.29 284.804 364.97 289.634 358.56 291.234L358.55 291.254Z" fill="#4BAC34"/>
<path d="M486.819 276.024C485.919 276.114 485.009 276.194 484.109 276.274C482.929 274.614 482.139 272.824 481.979 270.114C484.639 271.664 486.039 273.564 486.819 276.014V276.024Z" fill="#4BAC34"/>
<path d="M374.58 150.684C381.13 158.514 386.14 167.224 389.42 176.904C391.59 189.054 392.16 201.204 388.31 213.134C380.99 235.814 366.24 250.894 342.3 255.044C317.2 259.394 296.26 251.974 280.38 231.264C263.47 209.204 264.18 168.594 289.94 146.854C295.45 140.524 301.78 135.644 310.61 135.194C318.1 132.944 325.78 132.014 333.58 131.854C349.19 133.904 362.86 140.174 374.57 150.684H374.58Z" fill="#0B2B28"/>
<path d="M310.62 135.194C302.86 137.554 296.71 142.744 289.95 146.854C276.84 148.994 266.45 156.564 256.05 163.984C236.25 178.094 221.81 197.194 207.33 216.294C194.9 232.684 177.61 241.844 156.6 232.334C157.95 220.844 164.33 211.474 170.47 202.374C183.92 182.444 201.69 166.904 222.53 154.824C227.03 152.214 231.78 150.284 236.47 148.154C240.25 145.564 244.9 145.134 248.92 143.154C266.5 137.394 284.35 133.124 303.01 133.314C305.71 133.344 308.43 133.204 310.63 135.204L310.62 135.194Z" fill="#C2D10F"/>
<path d="M410.38 201.984C418.58 209.814 431.31 231.084 437.78 240.194C441.85 247.504 446.96 254.284 449.05 262.584C438.14 287.754 377.85 325.624 354.6 331.344C354.26 331.424 353.93 331.504 353.61 331.574C353.46 331.654 353.16 331.354 352.69 330.814C350.67 328.494 345.64 321.674 337.45 321.304C302.97 319.734 237.64 307.264 239.05 303.924C248.04 306.734 314.71 295.684 328.91 290.614C382.11 271.634 445.85 213.764 410.39 201.974L410.38 201.984Z" fill="#C2D10F"/>
<path d="M241.4 293.454C230.44 293.484 227.25 297.134 230.58 305.854C222.55 317.564 165.98 277.994 165.15 261.454C165.12 260.874 164.78 260.344 164.49 259.424C167.43 258.854 168.57 261.344 170.21 262.464C186.08 273.284 203.89 279.794 221.83 286.074C228.41 288.374 234.89 290.994 241.41 293.464L241.4 293.454Z" fill="#4BAC34"/>
<path d="M176.52 283.694L178.36 281.274C184.85 287.204 192.46 291.544 199.82 296.704C227.24 315.904 258.93 331.164 287.52 342.004C291.21 343.404 294.67 346.734 298.38 346.044C359.07 334.664 368.22 361.194 362.28 374.254C357.49 376.314 357.33 380.994 356.21 385.074C355.51 387.644 355.18 390.314 354.68 392.944C352.7 403.464 351.74 414.144 350 424.704C349.63 426.944 349.2 429.184 348.11 431.234C347.68 431.854 347.13 432.304 346.44 432.604C336.49 433.754 326.66 432.334 316.82 431.174C314.84 426.074 314.38 420.674 314.35 415.324C314.26 402.094 313.6 388.834 315.44 375.654C316.71 372.234 318.65 368.524 313.65 366.514C308.36 364.394 305.98 368.304 303.6 371.904C299.14 371.754 287.23 359.574 287.49 355.344C287.5 355.144 282.25 344.774 275.71 343.404C253.71 338.774 175.82 284.694 176.53 283.694H176.52Z" fill="#C2D10F"/>
<path d="M234.39 284.804C226.39 284.594 220.12 283.474 214.59 279.744C211.09 277.384 210.5 273.824 212.14 270.414C213.86 266.834 217.03 265.774 221.04 267.414C234.48 272.914 246.16 269.524 256.48 260.014C259.91 256.854 263.22 253.124 268.13 257.454C271.6 260.514 270.75 265.724 266.32 270.604C257.37 280.474 245.7 283.904 234.39 284.804Z" fill="#0C2E28"/>
<path d="M206.27 243.434C206.3 237.114 211.35 231.694 217.36 231.524C223.01 231.364 228.75 237.294 228.74 243.294C228.73 249.114 223.53 254.034 217.36 254.064C210.69 254.094 206.24 249.824 206.27 243.434Z" fill="#0E2E28"/>
<path d="M345.68 405.334C345.16 407.534 343.78 408.904 341.51 409.074C339.12 409.254 337.55 408.124 337.48 405.594C337.41 403.124 338.78 401.794 341.23 401.794C343.56 401.794 344.96 403.114 345.68 405.334Z" fill="#4BAC34"/>
<path d="M334.87 418.674C334.66 420.564 334.43 422.374 332.14 422.004C330.23 421.694 327.68 421.544 327.88 418.724C328.01 416.874 329.06 415.244 331.43 415.384C333.66 415.504 334.63 416.814 334.87 418.674Z" fill="#4BAC34"/>
<path d="M448.86 263.004C445.1 255.544 440.61 247.654 436.86 240.194C441.57 244.374 443.79 250.194 446.37 255.624C447.92 258.884 449.63 258.344 452.21 256.854C451.98 258.114 450.14 259.694 448.86 263.014V263.004Z" fill="#C2D10F"/>
<path d="M260.48 373.704C261.19 374.344 261.89 374.974 262.6 375.614C269.99 380.934 276.06 387.604 282.04 394.384C283.02 395.494 283.94 396.594 283.51 398.214C280.87 407.974 279.83 417.934 279.69 428.014C279.68 428.784 279.11 429.534 278.79 430.304C272.93 431.174 267.05 431.854 261.1 431.624C258.54 431.524 256.72 432.424 256 435.024C252.98 417.404 252.43 399.884 257.85 382.564C258.77 379.624 259.61 376.654 260.48 373.704Z" fill="#C2D10F"/>
<path d="M158.86 426.614C161.51 426.754 162.78 427.874 162.85 430.094C162.93 432.594 161.68 434.004 159.12 433.964C156.93 433.934 155.64 432.754 155.54 430.534C155.43 427.974 156.89 426.824 158.86 426.604V426.614Z" fill="#4BAC34"/>
<path d="M399.62 441.504C399.53 432.214 404.26 425.974 412.15 421.724C422.08 419.784 426.88 421.614 431 428.884C421.89 436.444 412 442.054 399.62 441.494V441.504Z" fill="#C2D10F"/>
<path d="M431 428.894C426.42 422.054 419.52 421.254 412.15 421.724C419.41 417.614 431.46 422.014 434.3 431.874C433.2 430.874 432.1 429.884 431 428.884V428.894Z" fill="#C2D10F"/>
<path d="M284.9 184.044C286.86 167.234 301.99 151.744 320.56 148.414C344.96 144.044 364.4 155.024 374.09 177.554C375.82 181.574 376.53 185.864 376.02 190.284C370.52 195.394 363.62 197.894 356.83 200.594C355.3 201.674 353.65 202.544 351.85 203.084C345.34 205.064 338.92 201.834 336.89 195.564C334.91 189.444 338.54 183.084 345.05 181.024C346.8 180.474 348.82 181.054 350.36 179.734C344.03 168.084 326.92 165.294 316.3 172.464C309.1 177.324 304.24 183.674 303.05 192.494C302.78 194.494 302.87 196.684 301.16 198.254C295.04 198.884 290.61 195.114 286.09 192.064C283.38 190.234 284.19 186.894 284.89 184.034L284.9 184.044Z" fill="#FDFCFB"/>
<path d="M355.98 198.954C363.28 197.484 368.98 192.324 376.03 190.274C378.93 208.964 369.51 226.124 350.74 236.374C335.97 244.434 313.23 241.654 300.71 230.564C288.06 219.364 282.44 205.484 283.73 188.724C283.86 187.084 283.73 185.394 284.91 184.034C284.46 188.574 285.98 191.714 290.67 193.234C294.28 194.414 297.26 197.204 301.19 197.734C303.19 198.894 303.47 201.024 304.15 202.954C308.38 215.034 317.35 222.174 328.51 222.354C341.37 222.564 349.78 216.764 354.79 203.994C355.4 202.434 357.17 200.984 355.99 198.944L355.98 198.954Z" fill="#C3E3DB"/>
<path d="M271.04 417.744C270.17 420.204 268.8 421.544 266.44 421.554C264.2 421.564 263.77 420.064 263.81 418.254C263.86 415.924 264.72 414.124 267.39 414.364C269.47 414.544 270.36 416.214 271.04 417.744Z" fill="#4BAC34"/>
<path d="M355.979 198.954C358.419 206.784 353.549 212.164 348.829 216.684C333.619 231.214 307.849 223.474 302.489 203.114C302.019 201.334 301.619 199.534 301.189 197.734C302.389 180.214 310.509 170.074 325.619 167.214C337.129 165.044 349.619 171.734 354.009 182.894C347.099 181.784 340.639 181.744 338.179 189.864C336.869 194.194 338.369 197.894 341.869 200.164C346.619 203.244 351.599 203.084 355.989 198.954H355.979Z" fill="#082A28"/>
</g>
<rect x="0.5" y="0.5" width="599" height="599" stroke="black"/>
<defs>
<clipPath id="clip0_99_1182">
<rect width="600" height="600" fill="white"/>
</clipPath>
</defs>
</svg>
