<svg width="600" height="600" viewBox="0 0 600 600" fill="none" xmlns="http://www.w3.org/2000/svg">
<g clip-path="url(#clip0_99_1920)">
<path d="M550 0H50C22.3858 0 0 22.3858 0 50V550C0 577.614 22.3858 600 50 600H550C577.614 600 600 577.614 600 550V50C600 22.3858 577.614 0 550 0Z" fill="white"/>
<path d="M281.407 391.796C264.903 389.934 241.699 381.344 227.25 371.626C207.988 358.671 193.892 340.944 187.686 322.293C185.117 314.572 184.102 308.959 184.364 301.911C184.626 294.852 186.187 290.267 189.775 284.086C194.086 276.661 193.877 273.101 188.949 262.624C185.131 254.506 183.714 248.82 183.756 241.505C183.858 223.531 195.991 207.621 213.029 203.161C217.998 201.861 227.14 201.651 231.594 202.824C237.44 204.363 242.274 207.088 246.921 211.738C251.74 216.56 252.726 218.572 256.258 226.625C257.617 229.725 258.665 232.384 259.045 232.763C259.631 233.35 259.692 232.571 263.214 230.706L267.131 227.959L272.675 229.606C280.679 231.984 287.307 232.392 297.662 232.402C308.073 232.412 315.883 230.731 323.706 229.503L328.817 228.037L332.778 230.54C334.864 231.857 336.164 233.065 336.492 232.939C336.82 232.813 336.349 231.064 337.126 229.357C342.931 216.609 346.822 212.613 352.388 208.114C358.393 203.259 364.76 201.263 373.5 201.299C382.968 201.338 392.971 204.686 399.848 211.082C405.939 216.747 409.219 224.038 411.317 231.596C411.988 234.013 412.455 236.752 412.436 242.005C412.414 248.109 411.865 249.754 410.704 253.581C409.971 255.994 408.253 260.135 407.039 262.553C403.953 268.697 402.672 271.649 402.955 276.061C403.147 279.057 403.509 280.058 405.098 282.913C408.205 288.496 409.394 290.825 410.21 293.972C414.117 309.053 407.666 330.512 393.539 348.692C375.807 371.512 345.099 387.81 312.343 391.642C305.511 392.441 287.784 392.515 281.407 391.796ZM309.824 334.849C343.399 332.82 366.98 324.573 388.793 307.756C392.919 304.575 393.658 304.251 394.138 301.691C394.846 297.92 392.636 294.57 388.652 294.566C386.286 294.564 386.1 294.894 379.936 299.481C361.365 313.302 341.738 322.077 312.75 324.177C304.062 324.807 287.045 324.303 278.125 323.379C255.298 321.013 235.34 312.483 219.868 301.373C217.378 299.586 214.623 297.171 213.366 296.277C211.672 295.072 210.812 294.609 209.277 294.61C204.023 294.615 201.494 299.736 204.234 304.21C205.529 306.323 216.513 314.028 224.151 318.257C246.966 330.892 277.321 336.814 309.824 334.849ZM281.192 294.628C287.506 292.904 288.798 286.509 285.333 281.248C283.081 277.828 277.779 277.309 273.638 279.05C269.796 280.664 268.037 284.759 268.905 288.607C270.115 293.969 275.556 296.168 281.192 294.628ZM320.521 291.819C322.609 291.322 325.041 289.625 325.386 287.762C325.73 285.899 324.097 284.53 322.929 283.37C321.761 282.21 319.37 281.401 316.83 282.403C314.289 283.405 312.937 287.799 314.148 290.341C315.36 292.883 318.433 292.316 320.521 291.819ZM228.465 267.806C247.178 261.004 252.281 238.34 238.253 224.313C233.649 219.709 228.377 217.202 221.563 216.773C216.158 216.433 212.837 217.019 207.844 219.518C195.074 225.909 189.902 241.409 196.197 254.497C198.323 258.917 203.052 263.804 207.128 265.988C213.694 269.507 221.696 270.267 228.465 267.806ZM385.634 267.677C404.385 260.86 409.345 238.067 395.21 224.118C390.493 219.462 385.334 217.182 378.5 216.752C373.107 216.413 369.791 217.197 364.839 219.676C348.76 227.724 345.274 249.004 358.134 261.622C361.999 265.415 365.204 267.136 370.273 268.511C375.092 269.818 380.926 269.388 385.634 267.677Z" fill="#82D63C"/>
<path d="M221.772 189.386C213.353 189.536 204.997 191.781 197.618 195.953C185.826 202.62 177.045 213.878 173.255 226.818C169.469 239.745 170.782 253.826 176.667 265.871C178.197 269.002 179.548 271.352 180.056 273.181C180.355 274.26 180.329 275.078 180.244 275.393C180.153 275.728 179.51 276.839 178.353 278.74C173.82 286.194 171.853 294.732 171.763 303.06C171.673 311.355 173.399 319.368 175.965 326.828C186.365 357.066 211.412 380.245 240.169 392.721C259.089 400.929 275.338 404.225 295.891 404.225L296.891 391.995C277.994 391.995 262.447 388.382 245.282 380.936C219.379 369.698 197.091 348.755 188.113 322.651C185.895 316.204 184.54 309.608 184.61 303.198C184.679 296.819 186.221 290.527 189.329 285.416C190.136 284.09 191.749 282.06 192.645 278.749C193.549 275.409 193.147 272.315 192.433 269.745C191.291 265.633 189.387 262.641 188.21 260.232C183.747 251.097 182.745 240.125 185.585 230.429C188.42 220.746 195.213 212.071 203.941 207.136C212.656 202.209 223.6 200.897 233.137 203.73C242.658 206.557 249.992 214.065 254.258 222.966C254.993 224.498 258.214 234.261 259.625 233.315L271.892 225.091C271.202 222.874 267.948 219.106 266.944 217.013C261.022 204.656 249.87 195.298 236.794 191.415C231.896 189.961 226.823 189.297 221.772 189.386Z" fill="#0A1E2E"/>
<path d="M373.978 189.386C382.396 189.536 390.753 191.781 398.131 195.953C409.923 202.62 418.705 213.878 422.495 226.818C426.28 239.745 424.967 253.826 419.082 265.871C417.552 269.002 416.202 271.352 415.694 273.181C415.394 274.26 415.42 275.078 415.506 275.393C415.596 275.728 416.24 276.839 417.396 278.74C421.929 286.194 423.896 294.732 423.986 303.06C424.076 311.355 422.351 319.368 419.785 326.828C409.385 357.066 384.337 380.245 355.581 392.721C336.66 400.929 316.417 404.225 295.739 404.225L294.739 391.995C313.618 391.995 333.302 388.382 350.467 380.936C376.37 369.698 398.659 348.755 407.637 322.651C409.854 316.204 411.209 309.608 411.14 303.198C411.071 296.819 409.529 290.527 406.42 285.416C405.614 284.09 404 282.06 403.104 278.749C402.201 275.409 402.603 272.315 403.316 269.745C404.458 265.633 406.362 262.641 407.539 260.232C412.002 251.097 413.005 240.125 410.165 230.429C407.329 220.746 400.537 212.071 391.808 207.136C383.094 202.209 372.15 200.897 362.613 203.73C353.091 206.557 345.757 214.065 341.491 222.966C340.757 224.498 337.536 234.261 336.124 233.315L323.857 225.091C324.547 222.874 327.802 219.106 328.805 217.013C334.727 204.656 345.879 195.298 358.956 191.415C363.853 189.961 368.926 189.297 373.978 189.386Z" fill="#0A1E2E"/>
<path d="M338.453 212.227C338.453 215.688 334.81 219.027 328.218 221.612C321.625 224.196 312.542 225.844 302.695 226.243C292.849 226.643 282.926 225.765 274.812 223.777C266.699 221.788 260.961 218.829 258.689 215.46" stroke="#0A1E2E" stroke-width="12.847"/>
<path d="M208.7 294.308C207.859 294.384 207.042 294.625 206.295 295.016C205.548 295.408 204.885 295.943 204.345 296.591C203.254 297.899 202.727 299.587 202.881 301.284C203.034 302.98 203.855 304.547 205.163 305.638C214.972 313.821 226.082 320.414 237.963 325.106C254.679 331.707 272.449 334.396 289.911 335.162C294.708 335.373 299.512 335.441 304.312 335.368C306.016 335.342 307.639 334.64 308.825 333.418C310.011 332.195 310.662 330.551 310.637 328.848C310.624 328.005 310.445 327.172 310.11 326.397C309.776 325.623 309.292 324.922 308.686 324.335C308.081 323.747 307.365 323.285 306.581 322.974C305.797 322.663 304.959 322.51 304.115 322.523C299.568 322.592 295.018 322.528 290.475 322.328C273.953 321.603 257.605 319.05 242.682 313.158C232.082 308.972 222.142 303.073 213.392 295.773C212.084 294.682 210.396 294.155 208.7 294.308Z" fill="#0A1E2E"/>
<path d="M388.807 294.308C389.647 294.384 390.464 294.625 391.212 295.016C391.959 295.408 392.621 295.943 393.162 296.591C394.253 297.899 394.78 299.587 394.626 301.284C394.473 302.98 393.652 304.547 392.344 305.638C382.535 313.821 371.425 320.414 359.544 325.106C342.827 331.707 325.058 334.396 307.595 335.162C302.799 335.373 297.995 335.441 293.194 335.368C291.491 335.342 289.868 334.64 288.682 333.418C287.496 332.195 286.844 330.551 286.87 328.848C286.883 328.005 287.062 327.172 287.396 326.397C287.731 325.623 288.215 324.922 288.821 324.335C289.426 323.747 290.142 323.285 290.926 322.974C291.71 322.663 292.548 322.51 293.391 322.523C297.939 322.592 302.489 322.528 307.032 322.328C323.554 321.603 339.902 319.05 354.825 313.158C365.425 308.972 375.364 303.073 384.115 295.773C385.423 294.682 387.111 294.155 388.807 294.308Z" fill="#0A1E2E"/>
<path d="M278.055 295.408C283.365 295.408 287.669 291.463 287.669 286.596C287.669 281.729 283.365 277.783 278.055 277.783C272.746 277.783 268.441 281.729 268.441 286.596C268.441 291.463 272.746 295.408 278.055 295.408Z" fill="#0A1E2E"/>
<path d="M318.862 295.409C324.171 295.409 328.476 291.463 328.476 286.596C328.476 281.729 324.171 277.783 318.862 277.783C313.552 277.783 309.248 281.729 309.248 286.596C309.248 291.463 313.552 295.409 318.862 295.409Z" fill="#0A1E2E"/>
<path d="M219.792 269.46C234.449 269.46 246.33 257.579 246.33 242.922C246.33 228.266 234.449 216.384 219.792 216.384C205.135 216.384 193.254 228.266 193.254 242.922C193.254 257.579 205.135 269.46 219.792 269.46Z" fill="#061B26"/>
<path d="M220.293 245.426C225.271 245.426 229.306 241.391 229.306 236.413C229.306 231.435 225.271 227.4 220.293 227.4C215.315 227.4 211.28 231.435 211.28 236.413C211.28 241.391 215.315 245.426 220.293 245.426Z" fill="white"/>
<path d="M376.776 269.46C362.12 269.46 350.238 257.579 350.238 242.922C350.238 228.266 362.12 216.384 376.776 216.384C391.433 216.384 403.314 228.266 403.314 242.922C403.314 257.579 391.433 269.46 376.776 269.46Z" fill="#061B26"/>
<path d="M376.275 245.426C371.297 245.426 367.262 241.391 367.262 236.413C367.262 231.435 371.297 227.4 376.275 227.4C381.253 227.4 385.288 231.435 385.288 236.413C385.288 241.391 381.253 245.426 376.275 245.426Z" fill="white"/>
<path d="M223.511 144.304L305.186 114.164V213.532L223.511 194.302V144.304Z" fill="#38424B"/>
<path d="M381.879 144.304L298.204 114.164L298.151 213.532L381.879 194.302V144.304Z" fill="#0D1F29"/>
<path d="M288.926 222.052C281.027 221.4 270.61 217.457 265.637 215.139C263.133 213.972 261.387 209.583 261.825 209.145C261.927 209.044 273.031 210.281 282.174 213.354L298.203 217.46L314.211 213.609C323.379 211.404 334.112 209.508 334.184 209.58C334.613 210.01 331.068 215.249 328.688 216.358C319.948 220.431 303.213 223.231 288.926 222.052Z" fill="#0A1E2E"/>
<path d="M390.483 189.018H391.5H393.024V182.155V178.866L398.217 177.12C401.591 175.986 407.892 174.409 412.1 173.228L419.751 167.705L404.877 162.183C396.696 159.145 388.471 156.692 388.433 156.73C388.394 156.769 388.383 164.833 388.408 173.046L388.453 189.018H390.483Z" fill="#0A1E2E" stroke="#0A1E2E" stroke-width="2.27105" stroke-linecap="square"/>
<path d="M383.323 191.138V150.198Z" fill="#0A1E2E"/>
<path d="M383.323 191.138V150.198" stroke="#0A1E2E" stroke-width="12.847" stroke-linecap="square"/>
<path d="M210.572 189.018H209.555H208.031V182.155V178.866L202.838 177.12C199.464 175.986 193.163 174.409 188.955 173.228L181.304 167.705L196.178 162.183C204.359 159.145 215.021 156.692 215.06 156.73C215.098 156.769 215.11 164.833 215.085 173.046L215.04 189.018H210.572Z" fill="#0A1E2E" stroke="#0A1E2E" stroke-width="2.27105" stroke-linecap="square"/>
<path d="M219.009 191.138V150.198Z" fill="#0A1E2E"/>
<path d="M219.009 191.138V150.198" stroke="#0A1E2E" stroke-width="12.847" stroke-linecap="square"/>
<path d="M155.177 162.598C149.98 161.122 142.291 159.105 142.349 159.047C142.407 158.989 178.028 145.789 219.716 131.221L298.329 103.752L372.492 129.277C413.081 143.247 450.08 156.229 452.068 157.01L456.405 158.714L446.463 162.519L437.307 166.979L434.324 166.007C433.046 165.59 400.649 153.931 364.153 141.142L298.079 117.989L233.558 141.048C197.307 154.003 166.29 165.622 165.881 165.603C165.471 165.583 160.375 164.073 155.177 162.598Z" fill="url(#paint0_linear_99_1920)"/>
<path d="M168.218 169.116L298.204 120.847L434.4 168.315" stroke="#0A1E2E" stroke-width="9.63492"/>
<path d="M391.138 191.749V180.533L468.203 159.852C468.337 159.816 468.456 159.738 468.543 159.629C468.629 159.52 468.678 159.387 468.683 159.248C468.688 159.109 468.648 158.972 468.569 158.857C468.491 158.743 468.377 158.657 468.246 158.611L298.205 100.017L131.764 158.598C131.63 158.645 131.514 158.734 131.433 158.852C131.353 158.969 131.312 159.11 131.317 159.252C131.321 159.394 131.371 159.531 131.459 159.643C131.547 159.756 131.668 159.837 131.805 159.875L205.472 180.533V191.348L298.205 214.181L391.138 191.749Z" stroke="#0A1E2E" stroke-width="9.63492" stroke-linecap="square"/>
<path d="M88.6428 498.707V413.705H117.364C124.005 413.705 129.456 414.84 133.717 417.109C137.978 419.35 141.132 422.435 143.18 426.364C145.227 430.293 146.251 434.762 146.251 439.77C146.251 444.778 145.227 449.219 143.18 453.093C141.132 456.967 137.992 460.011 133.758 462.224C129.525 464.41 124.115 465.503 117.53 465.503H94.2874V456.206H117.198C121.736 456.206 125.388 455.542 128.155 454.214C130.95 452.886 132.97 451.004 134.215 448.569C135.488 446.107 136.124 443.174 136.124 439.77C136.124 436.367 135.488 433.392 134.215 430.847C132.942 428.301 130.908 426.336 128.114 424.953C125.319 423.542 121.625 422.836 117.032 422.836H98.9359V498.707H88.6428ZM128.653 460.522L149.572 498.707H137.618L117.032 460.522H128.653ZM166.889 498.707H156.098L187.31 413.705H197.935L229.146 498.707H218.355L192.954 427.153H192.29L166.889 498.707ZM170.874 465.503H214.371V474.634H170.874V465.503ZM309.79 413.705V498.707H299.829L253.51 431.967H252.68V498.707H242.386V413.705H252.348L298.833 480.611H299.663V413.705H309.79ZM397.79 413.705V498.707H387.829L341.51 431.967H340.68V498.707H330.387V413.705H340.348L386.833 480.611H387.663V413.705H397.79ZM418.387 498.707V413.705H469.687V422.836H428.68V451.557H467.03V460.689H428.68V489.576H470.351V498.707H418.387ZM488.239 498.707V413.705H516.961C523.601 413.705 529.052 414.84 533.313 417.109C537.575 419.35 540.729 422.435 542.776 426.364C544.824 430.293 545.848 434.762 545.848 439.77C545.848 444.778 544.824 449.219 542.776 453.093C540.729 456.967 537.588 460.011 533.355 462.224C529.121 464.41 523.712 465.503 517.127 465.503H493.884V456.206H516.795C521.332 456.206 524.985 455.542 527.752 454.214C530.546 452.886 532.566 451.004 533.811 448.569C535.084 446.107 535.721 443.174 535.721 439.77C535.721 436.367 535.084 433.392 533.811 430.847C532.539 428.301 530.505 426.336 527.71 424.953C524.916 423.542 521.222 422.836 516.628 422.836H498.532V498.707H488.239ZM528.25 460.522L549.168 498.707H537.215L516.628 460.522H528.25Z" fill="#0A1E2E"/>
<path d="M88.6428 498.707H86.1428V501.207H88.6428V498.707ZM88.6428 413.705V411.205H86.1428V413.705H88.6428ZM133.717 417.109L132.542 419.315L132.553 419.321L133.717 417.109ZM143.18 426.364L140.963 427.52L140.963 427.52L143.18 426.364ZM143.18 453.093L140.97 451.925L140.97 451.925L143.18 453.093ZM133.758 462.224L134.905 464.446L134.917 464.44L133.758 462.224ZM94.2874 465.503H91.7874V468.003H94.2874V465.503ZM94.2874 456.206V453.706H91.7874V456.206H94.2874ZM128.155 454.214L127.082 451.956L127.073 451.96L128.155 454.214ZM134.215 448.569L131.994 447.421L131.989 447.431L134.215 448.569ZM128.114 424.953L126.987 427.185L126.996 427.189L127.005 427.193L128.114 424.953ZM98.9359 422.836V420.336H96.4359V422.836H98.9359ZM98.9359 498.707V501.207H101.436V498.707H98.9359ZM128.653 460.522L130.846 459.321L130.134 458.022H128.653V460.522ZM149.572 498.707V501.207H153.792L151.764 497.506L149.572 498.707ZM137.618 498.707L135.418 499.893L136.126 501.207H137.618V498.707ZM117.032 460.522V458.022H112.844L114.831 461.709L117.032 460.522ZM91.1428 498.707V413.705H86.1428V498.707H91.1428ZM88.6428 416.205H117.364V411.205H88.6428V416.205ZM117.364 416.205C123.741 416.205 128.753 417.298 132.542 419.315L134.892 414.902C130.159 412.382 124.268 411.205 117.364 411.205V416.205ZM132.553 419.321C136.405 421.347 139.171 424.081 140.963 427.52L145.397 425.209C143.094 420.789 139.551 417.353 134.881 414.896L132.553 419.321ZM140.963 427.52C142.801 431.048 143.751 435.111 143.751 439.77H148.751C148.751 434.413 147.653 429.539 145.397 425.209L140.963 427.52ZM143.751 439.77C143.751 444.43 142.801 448.46 140.97 451.925L145.39 454.261C147.654 449.979 148.751 445.127 148.751 439.77H143.751ZM140.97 451.925C139.18 455.311 136.427 458.008 132.6 460.009L134.917 464.44C139.556 462.014 143.085 458.623 145.39 454.261L140.97 451.925ZM132.611 460.003C128.842 461.949 123.861 463.003 117.53 463.003V468.003C124.37 468.003 130.208 466.871 134.905 464.446L132.611 460.003ZM117.53 463.003H94.2874V468.003H117.53V463.003ZM96.7874 465.503V456.206H91.7874V465.503H96.7874ZM94.2874 458.706H117.198V453.706H94.2874V458.706ZM117.198 458.706C121.946 458.706 126.01 458.016 129.237 456.468L127.073 451.96C124.766 453.067 121.526 453.706 117.198 453.706V458.706ZM129.228 456.472C132.451 454.94 134.913 452.696 136.441 449.707L131.989 447.431C131.027 449.312 129.448 450.831 127.082 451.956L129.228 456.472ZM136.436 449.717C137.929 446.828 138.624 443.483 138.624 439.77H133.624C133.624 442.864 133.046 445.385 131.994 447.421L136.436 449.717ZM138.624 439.77C138.624 436.054 137.928 432.683 136.451 429.729L131.979 431.965C133.047 434.102 133.624 436.68 133.624 439.77H138.624ZM136.451 429.729C134.911 426.649 132.456 424.313 129.223 422.713L127.005 427.193C129.361 428.36 130.973 429.953 131.979 431.965L136.451 429.729ZM129.241 422.721C125.972 421.071 121.848 420.336 117.032 420.336V425.336C121.403 425.336 124.666 426.013 126.987 427.185L129.241 422.721ZM117.032 420.336H98.9359V425.336H117.032V420.336ZM96.4359 422.836V498.707H101.436V422.836H96.4359ZM98.9359 496.207H88.6428V501.207H98.9359V496.207ZM126.461 461.724L147.379 499.908L151.764 497.506L130.846 459.321L126.461 461.724ZM149.572 496.207H137.618V501.207H149.572V496.207ZM139.819 497.52L119.233 459.336L114.831 461.709L135.418 499.893L139.819 497.52ZM117.032 463.022H128.653V458.022H117.032V463.022ZM166.889 498.707V501.207H168.655L169.245 499.543L166.889 498.707ZM156.098 498.707L153.751 497.845L152.517 501.207H156.098V498.707ZM187.31 413.705V411.205H185.564L184.963 412.844L187.31 413.705ZM197.935 413.705L200.282 412.844L199.68 411.205H197.935V413.705ZM229.146 498.707V501.207H232.728L231.493 497.845L229.146 498.707ZM218.355 498.707L215.999 499.543L216.59 501.207H218.355V498.707ZM192.954 427.153L195.31 426.316L194.72 424.653H192.954V427.153ZM192.29 427.153V424.653H190.525L189.934 426.316L192.29 427.153ZM170.874 465.503V463.003H168.374V465.503H170.874ZM214.371 465.503H216.871V463.003H214.371V465.503ZM214.371 474.634V477.134H216.871V474.634H214.371ZM170.874 474.634H168.374V477.134H170.874V474.634ZM166.889 496.207H156.098V501.207H166.889V496.207ZM158.445 499.569L189.657 414.567L184.963 412.844L153.751 497.845L158.445 499.569ZM187.31 416.205H197.935V411.205H187.31V416.205ZM195.588 414.567L226.8 499.569L231.493 497.845L200.282 412.844L195.588 414.567ZM229.146 496.207H218.355V501.207H229.146V496.207ZM220.711 497.87L195.31 426.316L190.598 427.989L215.999 499.543L220.711 497.87ZM192.954 424.653H192.29V429.653H192.954V424.653ZM189.934 426.316L164.533 497.87L169.245 499.543L194.646 427.989L189.934 426.316ZM170.874 468.003H214.371V463.003H170.874V468.003ZM211.871 465.503V474.634H216.871V465.503H211.871ZM214.371 472.134H170.874V477.134H214.371V472.134ZM173.374 474.634V465.503H168.374V474.634H173.374ZM309.79 413.705H312.29V411.205H309.79V413.705ZM309.79 498.707V501.207H312.29V498.707H309.79ZM299.829 498.707L297.775 500.132L298.521 501.207H299.829V498.707ZM253.51 431.967L255.563 430.542L254.818 429.467H253.51V431.967ZM252.68 431.967V429.467H250.18V431.967H252.68ZM252.68 498.707V501.207H255.18V498.707H252.68ZM242.386 498.707H239.886V501.207H242.386V498.707ZM242.386 413.705V411.205H239.886V413.705H242.386ZM252.348 413.705L254.401 412.279L253.655 411.205H252.348V413.705ZM298.833 480.611L296.78 482.037L297.526 483.111H298.833V480.611ZM299.663 480.611V483.111H302.163V480.611H299.663ZM299.663 413.705V411.205H297.163V413.705H299.663ZM307.29 413.705V498.707H312.29V413.705H307.29ZM309.79 496.207H299.829V501.207H309.79V496.207ZM301.883 497.281L255.563 430.542L251.456 433.393L297.775 500.132L301.883 497.281ZM253.51 429.467H252.68V434.467H253.51V429.467ZM250.18 431.967V498.707H255.18V431.967H250.18ZM252.68 496.207H242.386V501.207H252.68V496.207ZM244.886 498.707V413.705H239.886V498.707H244.886ZM242.386 416.205H252.348V411.205H242.386V416.205ZM250.294 415.132L296.78 482.037L300.886 479.184L254.401 412.279L250.294 415.132ZM298.833 483.111H299.663V478.111H298.833V483.111ZM302.163 480.611V413.705H297.163V480.611H302.163ZM299.663 416.205H309.79V411.205H299.663V416.205ZM397.79 413.705H400.29V411.205H397.79V413.705ZM397.79 498.707V501.207H400.29V498.707H397.79ZM387.829 498.707L385.775 500.132L386.521 501.207H387.829V498.707ZM341.51 431.967L343.564 430.542L342.818 429.467H341.51V431.967ZM340.68 431.967V429.467H338.18V431.967H340.68ZM340.68 498.707V501.207H343.18V498.707H340.68ZM330.387 498.707H327.887V501.207H330.387V498.707ZM330.387 413.705V411.205H327.887V413.705H330.387ZM340.348 413.705L342.401 412.279L341.655 411.205H340.348V413.705ZM386.833 480.611L384.78 482.037L385.526 483.111H386.833V480.611ZM387.663 480.611V483.111H390.163V480.611H387.663ZM387.663 413.705V411.205H385.163V413.705H387.663ZM395.29 413.705V498.707H400.29V413.705H395.29ZM397.79 496.207H387.829V501.207H397.79V496.207ZM389.883 497.281L343.564 430.542L339.456 433.393L385.775 500.132L389.883 497.281ZM341.51 429.467H340.68V434.467H341.51V429.467ZM338.18 431.967V498.707H343.18V431.967H338.18ZM340.68 496.207H330.387V501.207H340.68V496.207ZM332.887 498.707V413.705H327.887V498.707H332.887ZM330.387 416.205H340.348V411.205H330.387V416.205ZM338.295 415.132L384.78 482.037L388.886 479.184L342.401 412.279L338.295 415.132ZM386.833 483.111H387.663V478.111H386.833V483.111ZM390.163 480.611V413.705H385.163V480.611H390.163ZM387.663 416.205H397.79V411.205H387.663V416.205ZM418.387 498.707H415.887V501.207H418.387V498.707ZM418.387 413.705V411.205H415.887V413.705H418.387ZM469.687 413.705H472.187V411.205H469.687V413.705ZM469.687 422.836V425.336H472.187V422.836H469.687ZM428.68 422.836V420.336H426.18V422.836H428.68ZM428.68 451.557H426.18V454.057H428.68V451.557ZM467.03 451.557H469.53V449.057H467.03V451.557ZM467.03 460.689V463.189H469.53V460.689H467.03ZM428.68 460.689V458.189H426.18V460.689H428.68ZM428.68 489.576H426.18V492.076H428.68V489.576ZM470.351 489.576H472.851V487.076H470.351V489.576ZM470.351 498.707V501.207H472.851V498.707H470.351ZM420.887 498.707V413.705H415.887V498.707H420.887ZM418.387 416.205H469.687V411.205H418.387V416.205ZM467.187 413.705V422.836H472.187V413.705H467.187ZM469.687 420.336H428.68V425.336H469.687V420.336ZM426.18 422.836V451.557H431.18V422.836H426.18ZM428.68 454.057H467.03V449.057H428.68V454.057ZM464.53 451.557V460.689H469.53V451.557H464.53ZM467.03 458.189H428.68V463.189H467.03V458.189ZM426.18 460.689V489.576H431.18V460.689H426.18ZM428.68 492.076H470.351V487.076H428.68V492.076ZM467.851 489.576V498.707H472.851V489.576H467.851ZM470.351 496.207H418.387V501.207H470.351V496.207ZM488.239 498.707H485.739V501.207H488.239V498.707ZM488.239 413.705V411.205H485.739V413.705H488.239ZM533.313 417.109L532.138 419.315L532.15 419.321L533.313 417.109ZM542.776 426.364L540.559 427.52L540.559 427.52L542.776 426.364ZM542.776 453.093L540.566 451.925L540.566 451.925L542.776 453.093ZM533.355 462.224L534.502 464.446L534.513 464.44L533.355 462.224ZM493.884 465.503H491.384V468.003H493.884V465.503ZM493.884 456.206V453.706H491.384V456.206H493.884ZM527.752 454.214L526.679 451.956L526.67 451.96L527.752 454.214ZM533.811 448.569L531.591 447.421L531.586 447.431L533.811 448.569ZM527.71 424.953L526.583 427.185L526.592 427.189L526.601 427.193L527.71 424.953ZM498.532 422.836V420.336H496.032V422.836H498.532ZM498.532 498.707V501.207H501.032V498.707H498.532ZM528.25 460.522L530.442 459.321L529.731 458.022H528.25V460.522ZM549.168 498.707V501.207H553.388L551.361 497.506L549.168 498.707ZM537.215 498.707L535.014 499.893L535.722 501.207H537.215V498.707ZM516.628 460.522V458.022H512.44L514.428 461.709L516.628 460.522ZM490.739 498.707V413.705H485.739V498.707H490.739ZM488.239 416.205H516.961V411.205H488.239V416.205ZM516.961 416.205C523.338 416.205 528.349 417.298 532.138 419.315L534.488 414.902C529.755 412.382 523.865 411.205 516.961 411.205V416.205ZM532.15 419.321C536.001 421.347 538.768 424.081 540.559 427.52L544.993 425.209C542.69 420.789 539.148 417.353 534.477 414.896L532.15 419.321ZM540.559 427.52C542.398 431.048 543.348 435.111 543.348 439.77H548.348C548.348 434.413 547.25 429.539 544.993 425.209L540.559 427.52ZM543.348 439.77C543.348 444.43 542.398 448.46 540.566 451.925L544.987 454.261C547.25 449.979 548.348 445.127 548.348 439.77H543.348ZM540.566 451.925C538.777 455.311 536.024 458.008 532.196 460.009L534.513 464.44C539.153 462.014 542.681 458.623 544.987 454.261L540.566 451.925ZM532.208 460.003C528.438 461.949 523.457 463.003 517.127 463.003V468.003C523.967 468.003 529.805 466.871 534.502 464.446L532.208 460.003ZM517.127 463.003H493.884V468.003H517.127V463.003ZM496.384 465.503V456.206H491.384V465.503H496.384ZM493.884 458.706H516.795V453.706H493.884V458.706ZM516.795 458.706C521.542 458.706 525.607 458.016 528.834 456.468L526.67 451.96C524.363 453.067 521.122 453.706 516.795 453.706V458.706ZM528.825 456.472C532.048 454.94 534.509 452.696 536.037 449.707L531.586 447.431C530.623 449.312 529.045 450.831 526.679 451.956L528.825 456.472ZM536.032 449.717C537.526 446.828 538.221 443.483 538.221 439.77H533.221C533.221 442.864 532.643 445.385 531.591 447.421L536.032 449.717ZM538.221 439.77C538.221 436.054 537.525 432.683 536.047 429.729L531.575 431.965C532.644 434.102 533.221 436.68 533.221 439.77H538.221ZM536.047 429.729C534.508 426.649 532.052 424.313 528.819 422.713L526.601 427.193C528.957 428.36 530.569 429.953 531.575 431.965L536.047 429.729ZM528.837 422.721C525.568 421.071 521.444 420.336 516.628 420.336V425.336C520.999 425.336 524.263 426.013 526.583 427.185L528.837 422.721ZM516.628 420.336H498.532V425.336H516.628V420.336ZM496.032 422.836V498.707H501.032V422.836H496.032ZM498.532 496.207H488.239V501.207H498.532V496.207ZM526.057 461.724L546.976 499.908L551.361 497.506L530.442 459.321L526.057 461.724ZM549.168 496.207H537.215V501.207H549.168V496.207ZM539.415 497.52L518.829 459.336L514.428 461.709L535.014 499.893L539.415 497.52ZM516.628 463.022H528.25V458.022H516.628V463.022Z" fill="#081B2A"/>
</g>
<rect x="0.5" y="0.5" width="599" height="599" stroke="black"/>
<defs>
<linearGradient id="paint0_linear_99_1920" x1="146.65" y1="134.768" x2="453.137" y2="134.768" gradientUnits="userSpaceOnUse">
<stop offset="0.257862" stop-color="#FCF9FF"/>
<stop offset="0.654088" stop-color="#5B6774"/>
<stop offset="0.914046" stop-color="#0A1E2E"/>
</linearGradient>
<clipPath id="clip0_99_1920">
<rect width="600" height="600" fill="white"/>
</clipPath>
</defs>
</svg>
